<?xml version="1.0" encoding="UTF-8"?>
<svg xmlns="http://www.w3.org/2000/svg" xmlns:xlink="http://www.w3.org/1999/xlink" width="37.5pt" height="37.499999pt" viewBox="0 0 37.5 37.499999" version="1.2">
<defs>
<clipPath id="clip1">
  <path d="M 1 1 L 36.9375 1 L 36.9375 36.9375 L 1 36.9375 Z M 1 1 "/>
</clipPath>
</defs>
<g id="surface1">
<g clip-path="url(#clip1)" clip-rule="nonzero">
<path style=" stroke:none;fill-rule:nonzero;fill:rgb(73.329163%,89.7995%,32.939148%);fill-opacity:1;" d="M 2.730469 1.019531 C 2.511719 1.015625 2.300781 1.054688 2.097656 1.136719 C 1.898438 1.21875 1.71875 1.335938 1.5625 1.488281 C 1.40625 1.640625 1.289062 1.816406 1.203125 2.019531 C 1.121094 2.21875 1.078125 2.429688 1.078125 2.648438 C 1.078125 2.867188 1.121094 3.074219 1.203125 3.277344 C 1.289062 3.476562 1.40625 3.65625 1.5625 3.808594 C 1.71875 3.960938 1.898438 4.078125 2.097656 4.160156 C 2.300781 4.242188 2.511719 4.28125 2.730469 4.277344 L 35.308594 4.277344 C 35.527344 4.28125 35.738281 4.242188 35.9375 4.160156 C 36.140625 4.078125 36.320312 3.960938 36.476562 3.808594 C 36.628906 3.65625 36.75 3.476562 36.835938 3.277344 C 36.917969 3.074219 36.960938 2.867188 36.960938 2.648438 C 36.960938 2.429688 36.917969 2.21875 36.835938 2.019531 C 36.75 1.816406 36.628906 1.640625 36.476562 1.488281 C 36.320312 1.335938 36.140625 1.21875 35.9375 1.136719 C 35.738281 1.054688 35.527344 1.015625 35.308594 1.019531 Z M 15.761719 9.164062 C 15.542969 9.160156 15.332031 9.199219 15.128906 9.28125 C 14.929688 9.363281 14.75 9.480469 14.59375 9.632812 C 14.4375 9.785156 14.320312 9.960938 14.234375 10.164062 C 14.152344 10.363281 14.109375 10.574219 14.109375 10.792969 C 14.109375 11.011719 14.152344 11.21875 14.234375 11.421875 C 14.320312 11.621094 14.4375 11.800781 14.59375 11.953125 C 14.75 12.105469 14.929688 12.222656 15.128906 12.304688 C 15.332031 12.386719 15.542969 12.425781 15.761719 12.421875 L 35.308594 12.421875 C 35.527344 12.425781 35.738281 12.386719 35.9375 12.304688 C 36.140625 12.222656 36.320312 12.105469 36.476562 11.953125 C 36.628906 11.800781 36.75 11.621094 36.835938 11.421875 C 36.917969 11.21875 36.960938 11.011719 36.960938 10.792969 C 36.960938 10.574219 36.917969 10.363281 36.835938 10.164062 C 36.75 9.960938 36.628906 9.785156 36.476562 9.632812 C 36.320312 9.480469 36.140625 9.363281 35.9375 9.28125 C 35.738281 9.199219 35.527344 9.160156 35.308594 9.164062 Z M 2.730469 17.308594 C 2.511719 17.304688 2.300781 17.34375 2.097656 17.425781 C 1.898438 17.507812 1.71875 17.625 1.5625 17.777344 C 1.40625 17.929688 1.289062 18.109375 1.203125 18.308594 C 1.121094 18.511719 1.078125 18.71875 1.078125 18.9375 C 1.078125 19.15625 1.121094 19.363281 1.203125 19.566406 C 1.289062 19.765625 1.40625 19.945312 1.5625 20.097656 C 1.71875 20.25 1.898438 20.367188 2.097656 20.449219 C 2.300781 20.53125 2.511719 20.570312 2.730469 20.566406 L 35.308594 20.566406 C 35.527344 20.570312 35.738281 20.53125 35.9375 20.449219 C 36.140625 20.367188 36.320312 20.25 36.476562 20.097656 C 36.628906 19.945312 36.75 19.765625 36.835938 19.566406 C 36.917969 19.363281 36.960938 19.15625 36.960938 18.9375 C 36.960938 18.71875 36.917969 18.511719 36.835938 18.308594 C 36.75 18.109375 36.628906 17.929688 36.476562 17.777344 C 36.320312 17.625 36.140625 17.507812 35.9375 17.425781 C 35.738281 17.34375 35.527344 17.304688 35.308594 17.308594 Z M 15.761719 25.453125 C 15.542969 25.449219 15.332031 25.488281 15.128906 25.570312 C 14.929688 25.652344 14.75 25.769531 14.59375 25.921875 C 14.4375 26.074219 14.320312 26.253906 14.234375 26.453125 C 14.152344 26.65625 14.109375 26.863281 14.109375 27.082031 C 14.109375 27.300781 14.152344 27.511719 14.234375 27.710938 C 14.320312 27.914062 14.4375 28.089844 14.59375 28.242188 C 14.75 28.394531 14.929688 28.511719 15.128906 28.59375 C 15.332031 28.675781 15.542969 28.714844 15.761719 28.710938 L 35.308594 28.710938 C 35.527344 28.714844 35.738281 28.675781 35.9375 28.59375 C 36.140625 28.511719 36.320312 28.394531 36.476562 28.242188 C 36.628906 28.089844 36.75 27.914062 36.835938 27.710938 C 36.917969 27.511719 36.960938 27.300781 36.960938 27.082031 C 36.960938 26.863281 36.917969 26.65625 36.835938 26.453125 C 36.75 26.253906 36.628906 26.074219 36.476562 25.921875 C 36.320312 25.769531 36.140625 25.652344 35.9375 25.570312 C 35.738281 25.488281 35.527344 25.449219 35.308594 25.453125 Z M 2.730469 33.597656 C 2.511719 33.59375 2.300781 33.632812 2.097656 33.714844 C 1.898438 33.796875 1.71875 33.914062 1.5625 34.066406 C 1.40625 34.21875 1.289062 34.398438 1.203125 34.597656 C 1.121094 34.800781 1.078125 35.007812 1.078125 35.226562 C 1.078125 35.445312 1.121094 35.65625 1.203125 35.855469 C 1.289062 36.058594 1.40625 36.234375 1.5625 36.386719 C 1.71875 36.539062 1.898438 36.65625 2.097656 36.738281 C 2.300781 36.820312 2.511719 36.859375 2.730469 36.855469 L 35.308594 36.855469 C 35.527344 36.859375 35.738281 36.820312 35.9375 36.738281 C 36.140625 36.65625 36.320312 36.539062 36.476562 36.386719 C 36.628906 36.234375 36.75 36.058594 36.835938 35.855469 C 36.917969 35.65625 36.960938 35.445312 36.960938 35.226562 C 36.960938 35.007812 36.917969 34.800781 36.835938 34.597656 C 36.75 34.398438 36.628906 34.21875 36.476562 34.066406 C 36.320312 33.914062 36.140625 33.796875 35.9375 33.714844 C 35.738281 33.632812 35.527344 33.59375 35.308594 33.597656 Z M 2.730469 33.597656 "/>
</g>
</g>
</svg>
