<svg height="119" width="83" xmlns="http://www.w3.org/2000/svg" data-name="Layer 1"><rect id="backgroundrect" width="100%" height="100%" x="0" y="0" fill="none" stroke="none"/><g class="currentLayer" style=""><title>Layer 1</title><path d="m82.03350067138672,2.4079060554504395 l-5.552000045776367,-2.2750000953674316 a1.7489999532699585,1.7489999532699585 0 0 0 -2.2829999923706055,0.9559999704360962 l-13.40999984741211,32.72999954223633 a1.75,1.75 0 0 0 0.9559999704360962,2.2829999923706055 l1.6050000190734863,0.6579999923706055 l-21.086999893188477,53.430999755859375 l-0.9380000233650208,-0.38600000739097595 a1.75,1.75 0 0 0 -2.2839999198913574,0.9539999961853027 l-5.090000152587891,12.399999618530273 l-20.399999618530273,-4.935999870300293 a11.5,11.5 0 0 0 -9.951000213623047,1.8609999418258667 a8.815999984741211,8.815999984741211 0 0 0 -3.5999999046325684,6.982999801635742 v4.686999797821045 a6.756999969482422,6.756999969482422 0 0 0 6.75,6.75 h23.71299934387207 a7.436999797821045,7.436999797821045 0 0 0 1.5,-0.15000000596046448 l5.400000095367432,-1.1050000190734863 a7.47599983215332,7.47599983215332 0 0 0 5.954999923706055,-7.300000190734863 a5.744999885559082,5.744999885559082 0 0 0 -0.7229999899864197,-2.799999952316284 l5.242000102996826,-12.78600025177002 a1.75,1.75 0 0 0 -0.9539999961853027,-2.2829999923706055 l-1.3730000257492065,-0.5640000104904175 l21.079999923706055,-53.43000030517578 l0.7080000042915344,0.28999999165534973 a1.7489999532699585,1.7489999532699585 0 0 0 2.2829999923706055,-0.9559999704360962 l13.40999984741211,-32.729000091552734 a1.7489999532699585,1.7489999532699585 0 0 0 -0.9570000171661377,-2.2829999923706055 zm-45.37799835205078,111.41000366210938 l-5.400000095367432,1.1050000190734863 a3.938999891281128,3.938999891281128 0 0 1 -0.7919999957084656,0.07999999821186066 h-23.708999633789062 a3.253999948501587,3.253999948501587 0 0 1 -3.25,-3.25 v-4.684999942779541 a5.2789998054504395,5.2789998054504395 0 0 1 2.2279999256134033,-4.199999809265137 a7.742000102996826,7.742000102996826 0 0 1 4.7170000076293945,-1.5490000247955322 a8.600000381469727,8.600000381469727 0 0 1 2.23799991607666,0.30000001192092896 l25.399999618530273,6.1479997634887695 a2.24399995803833,2.24399995803833 0 0 1 1.725000023841858,2.187000036239624 a3.9630000591278076,3.9630000591278076 0 0 1 -3.1570000648498535,3.864000082015991 zm3.171999931335449,-9.154000282287598 a5.800000190734863,5.800000190734863 0 0 0 -0.9120000004768372,-0.30000001192092896 l-1.5199999809265137,-0.36800000071525574 l4.2210001945495605,-10.28499984741211 l2.312999963760376,0.949999988079071 zm27.575000762939453,-71.16200256347656 l-0.4000000059604645,0.972000002861023 l-0.3840000033378601,-0.15800000727176666 l-0.36000001430511475,-0.14800000190734863 l-1.565999984741211,-0.6439999938011169 l1.75,-4.25 l2.299999952316284,0.9480000138282776 zm2.6689999103546143,-6.513999938964844 l-2.309000015258789,-0.9490000009536743 l9.015000343322754,-22 l2.312999963760376,0.9480000138282776 z" id="svg_1" class="" fill="#1c6435" fill-opacity="1"/></g></svg>