<svg viewBox="268.9971 148.2479 512.0058 359.5042" width="5000" height="3510.7434329845487" xmlns="http://www.w3.org/2000/svg" xmlns:xlink="http://www.w3.org/1999/xlink" preserveAspectRatio="none"><defs></defs><style>.companyName {fill:#D03737;fill-opacity:1;}.icon1 {fill:#0C1248;fill-opacity:1;}.icon2 {fill:#D03737;fill-opacity:1;}.icon3 {fill:#B2B2B2;fill-opacity:1;}.text {fill:#D03737;fill-opacity:1;}</style><g opacity="1" transform="rotate(0 394.1882 489.7521)">
<svg width="261.6237" height="18" x="394.1882" y="489.7521" version="1.1" preserveAspectRatio="none" viewBox="3.24 -28.32 526.72 36.239999999999995">
  <g transform="matrix(1 0 0 1 0 0)" class="text"><path d="M6.24-26.48L6.24 0L3.24 0L3.24-26.48L6.24-26.48Z M16.08-20L19.08-20L19.08-16.88Q20.16-18.32 21.72-19.32Q23.28-20.32 25.28-20.32Q27.28-20.32 28.72-19.76Q30.16-19.20 31.24-18.08L31.24-18.08Q33.72-15.64 33.72-11.64L33.72-11.64L33.72 0L30.72 0L30.72-11.56Q30.72-14.32 29.16-15.96Q27.60-17.60 25.12-17.60L25.12-17.60Q22.60-17.60 20.84-15.92L20.84-15.92Q19.08-14.20 19.08-11.52L19.08-11.52L19.08 0L16.08 0L16.08-20Z M51.36-25.48L50.96-25.48Q48.84-25.48 47.78-24.54Q46.72-23.60 46.72-21.52L46.72-21.52L46.72-20L51.36-20L51.36-17.36L46.72-17.36L46.72 0L43.72 0L43.72-17.36L40.28-17.36L40.28-20L43.72-20L43.72-21.76Q43.72-25.04 45.68-26.68Q47.64-28.32 51.12-28.32L51.12-28.32L51.36-28.32L51.36-25.48Z M66.92-20.32L66.92-20.32Q71.40-20.32 74.20-17.32L74.20-17.32Q76.84-14.44 76.84-10L76.84-10Q76.84-5.56 74.20-2.68L74.20-2.68Q71.40 0.32 66.92 0.32L66.92 0.32Q62.44 0.32 59.64-2.68L59.64-2.68Q57.00-5.56 57.00-10L57.00-10Q57.00-14.44 59.64-17.32L59.64-17.32Q62.44-20.32 66.92-20.32ZM66.92-2.40L66.92-2.40Q70.16-2.40 72.04-4.64L72.04-4.64Q73.84-6.76 73.84-10L73.84-10Q73.84-13.24 72.04-15.36L72.04-15.36Q70.16-17.60 66.92-17.60L66.92-17.60Q63.68-17.60 61.80-15.36L61.80-15.36Q60.00-13.24 60.00-10L60.00-10Q60.00-6.76 61.80-4.64L61.80-4.64Q63.68-2.40 66.92-2.40Z M95.16-20.32L95.36-20.32L95.36-17.32L95-17.32Q91.76-17.32 89.72-14.72L89.72-14.72Q87.80-12.24 87.80-8.80L87.80-8.80L87.80 0L84.80 0L84.80-20L87.80-20L87.80-15.08Q88.76-18.20 91.96-19.68L91.96-19.68Q93.28-20.32 95.16-20.32L95.16-20.32Z M105.60-20L105.60-16.96Q107.60-20.32 111.68-20.32L111.68-20.32Q113.68-20.32 115.38-19.26Q117.08-18.20 118.04-16.28L118.04-16.28Q119.40-18.80 122.28-19.88L122.28-19.88Q123.44-20.32 124.90-20.32Q126.36-20.32 127.70-19.74Q129.04-19.16 130.08-18.08L130.08-18.08Q132.32-15.68 132.32-12.08L132.32-12.08L132.32 0L129.32 0L129.32-12Q129.32-14.48 127.92-16.08L127.92-16.08Q126.52-17.60 124.36-17.60L124.36-17.60Q122.08-17.60 120.56-16.12L120.56-16.12Q118.96-14.60 118.96-11.96L118.96-11.96L118.96 0L115.96 0L115.96-12Q115.96-14.48 114.56-16.08L114.56-16.08Q113.16-17.60 111-17.60L111-17.60Q108.72-17.60 107.20-16.12L107.20-16.12Q105.60-14.60 105.60-11.96L105.60-11.96L105.60 0L102.60 0L102.60-20L105.60-20Z M156.92 0L156.92-3.20Q154.52 0.32 149.76 0.32L149.76 0.32Q145.44 0.32 142.72-2.68L142.72-2.68Q140.08-5.64 140.08-10L140.08-10Q140.08-14.36 142.72-17.32L142.72-17.32Q145.44-20.32 149.96-20.32Q154.48-20.32 156.92-16.76L156.92-16.76L156.92-20L159.92-20L159.92 0L156.92 0ZM150.16-2.40L150.16-2.40Q153.40-2.40 155.28-4.64L155.28-4.64Q157.08-6.76 157.08-10L157.08-10Q157.08-13.24 155.28-15.36L155.28-15.36Q153.40-17.60 150.16-17.60L150.16-17.60Q146.96-17.60 144.96-15.36L144.96-15.36Q143.08-13.24 143.08-10L143.08-10Q143.08-6.76 144.96-4.64L144.96-4.64Q146.96-2.40 150.16-2.40Z M174.28 0L171.28 0L171.28-17.36L167.20-17.36L167.20-20L171.28-20L171.28-27.16L174.28-27.16L174.28-20L178.88-20L178.88-17.36L174.28-17.36L174.28 0Z M186.16 0L186.16-20L189.16-20L189.16 0L186.16 0ZM186.04-27.28L189.28-27.28L189.28-23.36L186.04-23.36L186.04-27.28Z M207.04-20.32L207.04-20.32Q211.52-20.32 214.32-17.32L214.32-17.32Q216.96-14.44 216.96-10L216.96-10Q216.96-5.56 214.32-2.68L214.32-2.68Q211.52 0.32 207.04 0.32L207.04 0.32Q202.56 0.32 199.76-2.68L199.76-2.68Q197.12-5.56 197.12-10L197.12-10Q197.12-14.44 199.76-17.32L199.76-17.32Q202.56-20.32 207.04-20.32ZM207.04-2.40L207.04-2.40Q210.28-2.40 212.16-4.64L212.16-4.64Q213.96-6.76 213.96-10L213.96-10Q213.96-13.24 212.16-15.36L212.16-15.36Q210.28-17.60 207.04-17.60L207.04-17.60Q203.80-17.60 201.92-15.36L201.92-15.36Q200.12-13.24 200.12-10L200.12-10Q200.12-6.76 201.92-4.64L201.92-4.64Q203.80-2.40 207.04-2.40Z M224.92-20L227.92-20L227.92-16.88Q229-18.32 230.56-19.32Q232.12-20.32 234.12-20.32Q236.12-20.32 237.56-19.76Q239-19.20 240.08-18.08L240.08-18.08Q242.56-15.64 242.56-11.64L242.56-11.64L242.56 0L239.56 0L239.56-11.56Q239.56-14.32 238-15.96Q236.44-17.60 233.96-17.60L233.96-17.60Q231.44-17.60 229.68-15.92L229.68-15.92Q227.92-14.20 227.92-11.52L227.92-11.52L227.92 0L224.92 0L224.92-20Z M267.08-20L267.08-16.96Q269.08-20.32 273.16-20.32L273.16-20.32Q275.16-20.32 276.86-19.26Q278.56-18.20 279.52-16.28L279.52-16.28Q280.88-18.80 283.76-19.88L283.76-19.88Q284.92-20.32 286.38-20.32Q287.84-20.32 289.18-19.74Q290.52-19.16 291.56-18.08L291.56-18.08Q293.80-15.68 293.80-12.08L293.80-12.08L293.80 0L290.80 0L290.80-12Q290.80-14.48 289.40-16.08L289.40-16.08Q288.00-17.60 285.84-17.60L285.84-17.60Q283.56-17.60 282.04-16.12L282.04-16.12Q280.44-14.60 280.44-11.96L280.44-11.96L280.44 0L277.44 0L277.44-12Q277.44-14.48 276.04-16.08L276.04-16.08Q274.64-17.60 272.48-17.60L272.48-17.60Q270.20-17.60 268.68-16.12L268.68-16.12Q267.08-14.60 267.08-11.96L267.08-11.96L267.08 0L264.08 0L264.08-20L267.08-20Z M318.40 0L318.40-3.20Q316.00 0.32 311.24 0.32L311.24 0.32Q306.92 0.32 304.20-2.68L304.20-2.68Q301.56-5.64 301.56-10L301.56-10Q301.56-14.36 304.20-17.32L304.20-17.32Q306.92-20.32 311.44-20.32Q315.96-20.32 318.40-16.76L318.40-16.76L318.40-20L321.40-20L321.40 0L318.40 0ZM311.64-2.40L311.64-2.40Q314.88-2.40 316.76-4.64L316.76-4.64Q318.56-6.76 318.56-10L318.56-10Q318.56-13.24 316.76-15.36L316.76-15.36Q314.88-17.60 311.64-17.60L311.64-17.60Q308.44-17.60 306.44-15.36L306.44-15.36Q304.56-13.24 304.56-10L304.56-10Q304.56-6.76 306.44-4.64L306.44-4.64Q308.44-2.40 311.64-2.40Z M346.20 0L346.20-3.20Q343.80 0.32 339.04 0.32L339.04 0.32Q334.72 0.32 332.00-2.68L332.00-2.68Q329.36-5.64 329.36-10L329.36-10Q329.36-14.36 332.00-17.32L332.00-17.32Q334.72-20.32 339.24-20.32Q343.76-20.32 346.20-16.76L346.20-16.76L346.20-28L349.20-28L349.20 0L346.20 0ZM339.44-2.40L339.44-2.40Q342.68-2.40 344.56-4.64L344.56-4.64Q346.36-6.76 346.36-10L346.36-10Q346.36-13.24 344.56-15.36L344.56-15.36Q342.68-17.60 339.44-17.60L339.44-17.60Q336.24-17.60 334.24-15.36L334.24-15.36Q332.36-13.24 332.36-10L332.36-10Q332.36-6.76 334.24-4.64L334.24-4.64Q336.24-2.40 339.44-2.40Z M367.32-2.40L367.32-2.40Q371.36-2.40 373.12-5.76L373.12-5.76L376.40-5.76Q375.36-3.04 373.10-1.36Q370.84 0.32 367.28 0.32L367.28 0.32Q362.76 0.32 359.92-2.68L359.92-2.68Q357.16-5.60 357.16-10L357.16-10Q357.16-14.44 359.80-17.32L359.80-17.32Q362.60-20.32 367.08-20.32L367.08-20.32Q371.56-20.32 374.36-17.32L374.36-17.32Q377.00-14.44 377.00-10L377.00-10L377.00-8.80L360.24-8.80Q360.56-6.04 362.44-4.24L362.44-4.24Q364.36-2.40 367.32-2.40ZM367.08-17.60L367.08-17.60Q364.32-17.60 362.44-15.88L362.44-15.88Q360.68-14.24 360.28-11.60L360.28-11.60L373.88-11.60Q373.48-14.24 371.72-15.88L371.72-15.88Q369.84-17.60 367.08-17.60Z M412.00-14.64L408.96-14.64Q408.56-17.76 403.94-17.76Q399.32-17.76 399.32-14.88L399.32-14.88Q399.32-13.68 400.30-13.06Q401.28-12.44 402.76-12.04Q404.24-11.64 405.98-11.30Q407.72-10.96 409.20-10.34Q410.68-9.72 411.66-8.64Q412.64-7.56 412.64-5.68L412.64-5.68Q412.64-2.76 410.44-1.22Q408.24 0.32 404.48 0.32L404.48 0.32Q400.48 0.32 398.12-1.68L398.12-1.68Q395.96-3.44 395.80-6.28L395.80-6.28L398.92-6.28Q399.20-3.52 402.04-2.56L402.04-2.56Q403.08-2.24 404.10-2.24Q405.12-2.24 406.00-2.36Q406.88-2.48 407.72-2.80L407.72-2.80Q409.64-3.56 409.64-5.40L409.64-5.40Q409.64-6.64 408.66-7.30Q407.68-7.96 406.20-8.38Q404.72-8.80 402.98-9.14Q401.24-9.48 399.76-10.08Q398.28-10.68 397.30-11.72Q396.32-12.76 396.32-14.60L396.32-14.60Q396.32-17.32 398.30-18.82Q400.28-20.32 404.16-20.32L404.16-20.32Q407.84-20.32 409.96-18.56L409.96-18.56Q411.72-17.08 412.00-14.64L412.00-14.64Z M420.48 0L420.48-20L423.48-20L423.48 0L420.48 0ZM420.36-27.28L423.60-27.28L423.60-23.36L420.36-23.36L420.36-27.28Z M435.68-20L435.68-16.96Q437.68-20.32 441.76-20.32L441.76-20.32Q443.76-20.32 445.46-19.26Q447.16-18.20 448.12-16.28L448.12-16.28Q449.48-18.80 452.36-19.88L452.36-19.88Q453.52-20.32 454.98-20.32Q456.44-20.32 457.78-19.74Q459.12-19.16 460.16-18.08L460.16-18.08Q462.40-15.68 462.40-12.08L462.40-12.08L462.40 0L459.40 0L459.40-12Q459.40-14.48 458.00-16.08L458.00-16.08Q456.60-17.60 454.44-17.60L454.44-17.60Q452.16-17.60 450.64-16.12L450.64-16.12Q449.04-14.60 449.04-11.96L449.04-11.96L449.04 0L446.04 0L446.04-12Q446.04-14.48 444.64-16.08L444.64-16.08Q443.24-17.60 441.08-17.60L441.08-17.60Q438.80-17.60 437.28-16.12L437.28-16.12Q435.68-14.60 435.68-11.96L435.68-11.96L435.68 0L432.68 0L432.68-20L435.68-20Z M474.40-20L474.40-16.80Q476.80-20.32 481.56-20.32L481.56-20.32Q485.88-20.32 488.56-17.32L488.56-17.32Q491.24-14.36 491.24-10L491.24-10Q491.24-5.64 488.56-2.68L488.56-2.68Q485.88 0.32 481.36 0.32Q476.84 0.32 474.40-3.24L474.40-3.24L474.40 7.92L471.40 7.92L471.40-20L474.40-20ZM481.16-17.60L481.16-17.60Q477.92-17.60 476.04-15.36L476.04-15.36Q474.24-13.24 474.24-10L474.24-10Q474.24-6.76 476.04-4.64L476.04-4.64Q477.92-2.40 481.16-2.40L481.16-2.40Q484.36-2.40 486.36-4.64L486.36-4.64Q488.24-6.76 488.24-10L488.24-10Q488.24-13.24 486.36-15.36L486.36-15.36Q484.36-17.60 481.16-17.60Z M502.16-28L502.16 0L499.16 0L499.16-28L502.16-28Z M520.28-2.40L520.28-2.40Q524.32-2.40 526.08-5.76L526.08-5.76L529.36-5.76Q528.32-3.04 526.06-1.36Q523.80 0.32 520.24 0.32L520.24 0.32Q515.72 0.32 512.88-2.68L512.88-2.68Q510.12-5.60 510.12-10L510.12-10Q510.12-14.44 512.76-17.32L512.76-17.32Q515.56-20.32 520.04-20.32L520.04-20.32Q524.52-20.32 527.32-17.32L527.32-17.32Q529.96-14.44 529.96-10L529.96-10L529.96-8.80L513.20-8.80Q513.52-6.04 515.40-4.24L515.40-4.24Q517.32-2.40 520.28-2.40ZM520.04-17.60L520.04-17.60Q517.28-17.60 515.40-15.88L515.40-15.88Q513.64-14.24 513.24-11.60L513.24-11.60L526.84-11.60Q526.44-14.24 524.68-15.88L524.68-15.88Q522.80-17.60 520.04-17.60Z"/></g>
</svg>
</g><g opacity="1" transform="rotate(0 268.9971 445.7521)">
<svg width="512.0058" height="24" x="268.9971" y="445.7521" version="1.1" preserveAspectRatio="none" viewBox="2.9492 -28.4078 614.375 28.798500000000004">
  <g transform="matrix(1 0 0 1 0 0)" class="companyName"><path d="M30.94-28.01L30.94-2.17Q30.94-1.62 30.73-1.15Q30.53-0.68 30.19-0.34Q29.84 0 29.38 0.20Q28.91 0.39 28.38 0.39L28.38 0.39Q27.91 0.39 27.43 0.21Q26.95 0.04 26.58-0.35L26.58-0.35L8.03-19.73L8.03 0L2.95 0L2.95-25.84Q2.95-26.62 3.39-27.26Q3.83-27.89 4.51-28.20L4.51-28.20Q5.23-28.50 6.00-28.35Q6.76-28.20 7.30-27.64L7.30-27.64L25.86-8.28L25.86-28.01L30.94-28.01Z M41.95-28.01L41.95 0L36.88 0L36.88-28.01L41.95-28.01Z M75.53-14.00L75.53-2.56Q75.53-2.01 75.33-1.54Q75.14-1.07 74.79-0.73Q74.45-0.39 73.98-0.20Q73.52 0 72.97 0L72.97 0L54.65 0Q53.95 0 53.13-0.17Q52.32-0.33 51.53-0.68Q50.74-1.04 50.02-1.59Q49.30-2.15 48.74-2.94Q48.18-3.73 47.85-4.78Q47.52-5.82 47.52-7.13L47.52-7.13L47.52-20.88Q47.52-21.58 47.69-22.39Q47.85-23.20 48.20-23.99Q48.55-24.79 49.12-25.51Q49.69-26.23 50.48-26.79Q51.27-27.34 52.30-27.68Q53.34-28.01 54.65-28.01L54.65-28.01L75.29-28.01L75.29-22.93L54.65-22.93Q53.65-22.93 53.13-22.40Q52.60-21.88 52.60-20.84L52.60-20.84L52.60-7.13Q52.60-6.15 53.13-5.62Q53.67-5.08 54.65-5.08L54.65-5.08L70.45-5.08L70.45-11.45L56.93-11.45L56.93-16.56L72.97-16.56Q73.52-16.56 73.98-16.36Q74.45-16.15 74.79-15.80Q75.14-15.45 75.33-14.99Q75.53-14.53 75.53-14.00L75.53-14.00Z M103.85-16.56L103.85-11.45L87.81-11.45L87.81-16.56L103.85-16.56ZM106.13-5.08L106.13 0L87.81 0Q86.76 0 85.51-0.37Q84.26-0.74 83.19-1.59Q82.13-2.44 81.42-3.80Q80.70-5.16 80.70-7.13L80.70-7.13L80.70-25.45Q80.70-25.98 80.90-26.45Q81.09-26.91 81.44-27.27Q81.78-27.62 82.25-27.81Q82.71-28.01 83.26-28.01L83.26-28.01L106.13-28.01L106.13-22.93L85.78-22.93L85.78-7.13Q85.78-6.13 86.31-5.61Q86.84-5.08 87.85-5.08L87.85-5.08L106.13-5.08Z M136.76-5.08L136.76 0L113.59 0Q113.05 0 112.58-0.20Q112.11-0.39 111.77-0.73Q111.43-1.07 111.23-1.54Q111.04-2.01 111.04-2.56L111.04-2.56L111.04-28.01L116.11-28.01L116.11-5.08L136.76-5.08Z M176.23-28.01L176.23-7.13Q176.23-5.61 175.70-4.30Q175.18-2.99 174.23-2.03Q173.28-1.07 171.97-0.54Q170.66 0 169.12 0L169.12 0L150.51 0L150.51-5.08L169.12-5.08Q170.06-5.08 170.59-5.62Q171.11-6.15 171.11-7.13L171.11-7.13L171.11-28.01L176.23-28.01Z M209.53-25.45L209.53 0L204.45 0L204.45-6.88L186.60-6.88L186.60 0L181.52 0L181.52-14.00Q181.52-17.07 182.58-19.65Q183.63-22.23 185.51-24.08Q187.38-25.94 189.94-26.97Q192.50-28.01 195.53-28.01L195.53-28.01L206.97-28.01Q207.50-28.01 207.97-27.81Q208.44-27.62 208.79-27.27Q209.14-26.91 209.34-26.45Q209.53-25.98 209.53-25.45L209.53-25.45ZM186.60-14.00L186.60-11.95L204.45-11.95L204.45-22.93L195.53-22.93Q195.29-22.93 194.54-22.86Q193.79-22.79 192.80-22.52Q191.82-22.25 190.72-21.68Q189.63-21.11 188.71-20.12Q187.79-19.12 187.20-17.63Q186.60-16.13 186.60-14.00L186.60-14.00Z M248.03-25.84L248.03 0L242.91 0L242.91-16.68L233.91-0.84Q233.57-0.23 232.98 0.08Q232.38 0.39 231.70 0.39L231.70 0.39Q231.04 0.39 230.46 0.08Q229.88-0.23 229.55-0.84L229.55-0.84L220.51-16.68L220.51 0L215.43 0L215.43-25.84Q215.43-26.72 215.95-27.40Q216.46-28.09 217.30-28.32L217.30-28.32Q217.71-28.42 218.13-28.39Q218.54-28.36 218.92-28.21Q219.30-28.07 219.61-27.80Q219.92-27.54 220.14-27.17L220.14-27.17L231.70-7.07L243.26-27.17Q243.71-27.91 244.50-28.22Q245.29-28.54 246.15-28.32L246.15-28.32Q246.97-28.09 247.50-27.40Q248.03-26.72 248.03-25.84L248.03-25.84Z M276.95-16.56L276.95-11.45L260.92-11.45L260.92-16.56L276.95-16.56ZM279.24-5.08L279.24 0L260.92 0Q259.86 0 258.61-0.37Q257.36-0.74 256.30-1.59Q255.23-2.44 254.52-3.80Q253.81-5.16 253.81-7.13L253.81-7.13L253.81-25.45Q253.81-25.98 254.00-26.45Q254.20-26.91 254.54-27.27Q254.88-27.62 255.35-27.81Q255.82-28.01 256.37-28.01L256.37-28.01L279.24-28.01L279.24-22.93L258.89-22.93L258.89-7.13Q258.89-6.13 259.41-5.61Q259.94-5.08 260.96-5.08L260.96-5.08L279.24-5.08Z M310.96-8.24L310.96-8.24Q310.96-6.74 310.58-5.54Q310.20-4.34 309.57-3.42Q308.95-2.50 308.11-1.86Q307.27-1.21 306.37-0.80Q305.47-0.39 304.54-0.20Q303.61 0 302.79 0L302.79 0L283.20 0L283.20-5.08L302.79-5.08Q304.26-5.08 305.07-5.94Q305.88-6.80 305.88-8.24L305.88-8.24Q305.88-8.95 305.66-9.53Q305.45-10.12 305.05-10.55Q304.65-10.98 304.07-11.21Q303.50-11.45 302.79-11.45L302.79-11.45L291.11-11.45Q289.88-11.45 288.46-11.88Q287.03-12.32 285.81-13.30Q284.59-14.28 283.78-15.86Q282.97-17.44 282.97-19.73L282.97-19.73Q282.97-22.01 283.78-23.58Q284.59-25.16 285.81-26.14Q287.03-27.13 288.46-27.57Q289.88-28.01 291.11-28.01L291.11-28.01L308.40-28.01L308.40-22.93L291.11-22.93Q289.67-22.93 288.86-22.05Q288.05-21.17 288.05-19.73L288.05-19.73Q288.05-18.26 288.86-17.41Q289.67-16.56 291.11-16.56L291.11-16.56L302.79-16.56L302.83-16.56Q303.65-16.54 304.57-16.34Q305.49-16.13 306.40-15.70Q307.30-15.27 308.13-14.62Q308.95-13.96 309.58-13.05Q310.21-12.13 310.59-10.94Q310.96-9.75 310.96-8.24Z M353.07-5.08L353.07 0L334.75 0Q334.04 0 333.23-0.17Q332.42-0.33 331.63-0.68Q330.84-1.04 330.12-1.59Q329.39-2.15 328.84-2.94Q328.28-3.73 327.95-4.78Q327.62-5.82 327.62-7.13L327.62-7.13L327.62-20.88Q327.62-21.58 327.78-22.39Q327.95-23.20 328.30-23.99Q328.65-24.79 329.22-25.51Q329.79-26.23 330.58-26.79Q331.37-27.34 332.40-27.68Q333.44-28.01 334.75-28.01L334.75-28.01L353.07-28.01L353.07-22.93L334.75-22.93Q333.75-22.93 333.22-22.40Q332.70-21.88 332.70-20.84L332.70-20.84L332.70-7.13Q332.70-6.15 333.23-5.62Q333.77-5.08 334.75-5.08L334.75-5.08L353.07-5.08Z M386.86-16.68L386.86-11.33Q386.86-8.77 385.98-6.62Q385.10-4.47 383.54-2.91Q381.97-1.35 379.83-0.48Q377.70 0.39 375.18 0.39L375.18 0.39L368.30 0.39Q365.78 0.39 363.63-0.48Q361.48-1.35 359.92-2.91Q358.36-4.47 357.47-6.62Q356.58-8.77 356.58-11.33L356.58-11.33L356.58-16.68Q356.58-19.22 357.47-21.38Q358.36-23.54 359.92-25.09Q361.48-26.64 363.63-27.52Q365.78-28.40 368.30-28.40L368.30-28.40L375.18-28.40Q377.70-28.40 379.83-27.52Q381.97-26.64 383.54-25.09Q385.10-23.54 385.98-21.38Q386.86-19.22 386.86-16.68L386.86-16.68ZM381.78-11.33L381.78-16.68Q381.78-18.18 381.30-19.40Q380.82-20.63 379.95-21.49Q379.08-22.36 377.86-22.84Q376.64-23.32 375.18-23.32L375.18-23.32L368.30-23.32Q366.82-23.32 365.60-22.84Q364.38-22.36 363.50-21.49Q362.62-20.63 362.14-19.40Q361.66-18.18 361.66-16.68L361.66-16.68L361.66-11.33Q361.66-9.82 362.14-8.60Q362.62-7.38 363.50-6.51Q364.38-5.64 365.60-5.17Q366.82-4.69 368.30-4.69L368.30-4.69L375.14-4.69Q376.62-4.69 377.84-5.17Q379.06-5.64 379.94-6.51Q380.82-7.38 381.30-8.60Q381.78-9.82 381.78-11.33L381.78-11.33Z M419.86-28.01L419.86-2.17Q419.86-1.62 419.66-1.15Q419.45-0.68 419.11-0.34Q418.77 0 418.30 0.20Q417.83 0.39 417.30 0.39L417.30 0.39Q416.84 0.39 416.36 0.21Q415.88 0.04 415.51-0.35L415.51-0.35L396.95-19.73L396.95 0L391.88 0L391.88-25.84Q391.88-26.62 392.31-27.26Q392.75-27.89 393.44-28.20L393.44-28.20Q394.16-28.50 394.92-28.35Q395.68-28.20 396.23-27.64L396.23-27.64L414.79-8.28L414.79-28.01L419.86-28.01Z M452.68-8.24L452.68-8.24Q452.68-6.74 452.29-5.54Q451.91-4.34 451.29-3.42Q450.66-2.50 449.82-1.86Q448.98-1.21 448.09-0.80Q447.19-0.39 446.26-0.20Q445.33 0 444.51 0L444.51 0L424.92 0L424.92-5.08L444.51-5.08Q445.98-5.08 446.79-5.94Q447.60-6.80 447.60-8.24L447.60-8.24Q447.60-8.95 447.38-9.53Q447.17-10.12 446.77-10.55Q446.37-10.98 445.79-11.21Q445.21-11.45 444.51-11.45L444.51-11.45L432.83-11.45Q431.60-11.45 430.18-11.88Q428.75-12.32 427.53-13.30Q426.31-14.28 425.50-15.86Q424.69-17.44 424.69-19.73L424.69-19.73Q424.69-22.01 425.50-23.58Q426.31-25.16 427.53-26.14Q428.75-27.13 430.18-27.57Q431.60-28.01 432.83-28.01L432.83-28.01L450.12-28.01L450.12-22.93L432.83-22.93Q431.39-22.93 430.58-22.05Q429.77-21.17 429.77-19.73L429.77-19.73Q429.77-18.26 430.58-17.41Q431.39-16.56 432.83-16.56L432.83-16.56L444.51-16.56L444.55-16.56Q445.37-16.54 446.29-16.34Q447.21-16.13 448.12-15.70Q449.02-15.27 449.84-14.62Q450.66-13.96 451.30-13.05Q451.93-12.13 452.30-10.94Q452.68-9.75 452.68-8.24Z M484.34-28.01L484.34-2.56Q484.34-2.01 484.14-1.54Q483.95-1.07 483.59-0.73Q483.24-0.39 482.77-0.20Q482.30 0 481.78 0L481.78 0L470.33 0Q468.71 0 467.05-0.35Q465.39-0.70 463.84-1.44Q462.29-2.17 460.92-3.30Q459.55-4.43 458.53-5.99Q457.50-7.54 456.91-9.54Q456.33-11.54 456.33-14.00L456.33-14.00L456.33-28.01L461.41-28.01L461.41-14.00Q461.41-11.86 462.00-10.37Q462.60-8.89 463.52-7.89Q464.43-6.89 465.53-6.33Q466.62-5.76 467.61-5.49Q468.59-5.21 469.35-5.15Q470.10-5.08 470.33-5.08L470.33-5.08L479.26-5.08L479.26-28.01L484.34-28.01Z M515.96-5.08L515.96 0L492.79 0Q492.25 0 491.78-0.20Q491.31-0.39 490.97-0.73Q490.63-1.07 490.43-1.54Q490.23-2.01 490.23-2.56L490.23-2.56L490.23-28.01L495.31-28.01L495.31-5.08L515.96-5.08Z M541.02-28.01L541.02-22.93L529.82-22.93L529.82 0L524.75 0L524.75-22.93L513.54-22.93L513.54-28.01L541.02-28.01Z M549.86-28.01L549.86 0L544.79 0L544.79-28.01L549.86-28.01Z M583.79-28.01L583.79-2.17Q583.79-1.62 583.58-1.15Q583.38-0.68 583.04-0.34Q582.70 0 582.23 0.20Q581.76 0.39 581.23 0.39L581.23 0.39Q580.76 0.39 580.28 0.21Q579.80 0.04 579.43-0.35L579.43-0.35L560.88-19.73L560.88 0L555.80 0L555.80-25.84Q555.80-26.62 556.24-27.26Q556.68-27.89 557.36-28.20L557.36-28.20Q558.09-28.50 558.85-28.35Q559.61-28.20 560.16-27.64L560.16-27.64L578.71-8.28L578.71-28.01L583.79-28.01Z M617.32-14.00L617.32-2.56Q617.32-2.01 617.13-1.54Q616.93-1.07 616.59-0.73Q616.25-0.39 615.78-0.20Q615.31 0 614.77 0L614.77 0L596.45 0Q595.74 0 594.93-0.17Q594.12-0.33 593.33-0.68Q592.54-1.04 591.82-1.59Q591.09-2.15 590.54-2.94Q589.98-3.73 589.65-4.78Q589.32-5.82 589.32-7.13L589.32-7.13L589.32-20.88Q589.32-21.58 589.48-22.39Q589.65-23.20 590-23.99Q590.35-24.79 590.92-25.51Q591.48-26.23 592.28-26.79Q593.07-27.34 594.10-27.68Q595.14-28.01 596.45-28.01L596.45-28.01L617.09-28.01L617.09-22.93L596.45-22.93Q595.45-22.93 594.92-22.40Q594.39-21.88 594.39-20.84L594.39-20.84L594.39-7.13Q594.39-6.15 594.93-5.62Q595.47-5.08 596.45-5.08L596.45-5.08L612.25-5.08L612.25-11.45L598.73-11.45L598.73-16.56L614.77-16.56Q615.31-16.56 615.78-16.36Q616.25-16.15 616.59-15.80Q616.93-15.45 617.13-14.99Q617.32-14.53 617.32-14.00L617.32-14.00Z"/></g>
</svg>
</g><g opacity="1" transform="rotate(0 396.9986 148.2479)">
<svg width="256.0029" height="267.5042" x="396.9986" y="148.2479" version="1.1" preserveAspectRatio="none" viewBox="7 2.700000047683716 90.91547393798828 95">
  <g transform="matrix(1 0 0 1 0 0)" class="icon1"><path d="M76.6,47.7c-0.9-1.7-0.9-3.2-0.1-4.6c-1,0.1-2.1,0.4-3.1,0.2c-1-0.3-1.9-1-2.6-1.8c-1.1-1.4-0.9-3.4,0.2-4.8  c1.2-1.6,3-1.9,5.6-1c-0.8-1.6-0.9-3.2,0-4.7c-2.9,0.8-4.5,0.4-5.7-1.2c-1-1.4-1-3.4,0-4.8c1.2-1.7,2.9-2,5.7-1.2  c-0.8-1.6-0.9-3.1,0.1-4.8c-2.5,0.9-4.6,0.7-6-1.6c-0.9-1.5-0.6-3.4,0.5-4.7c1.3-1.5,3-1.8,5.4-0.9c-0.1-0.4-0.2-0.8-0.4-1.1  c0.1-0.1,0.1-0.1,0.2-0.2c1.4,1,2.7,2,4.1,2.9c0,0.1-0.1,0.2-0.1,0.3c-0.8-0.2-1.6-0.4-2.2-0.5c0,1.3,0,2.8,0,4.1  c1.1-0.1,2.4-0.2,3.8-0.3c-0.1-0.5-0.2-1.3-0.3-2.1c-0.1,0.1-0.1,0.2-0.2,0.3c1.7,1.5,3.5,3.1,5.4,4.8c-1.1-0.2-1.8-0.3-2.5-0.4  c0,1.1,0,2.2,0,3.3c1-0.1,2.1-0.1,3.2-0.2c0-0.5-0.1-1.1-0.1-1.7c1.9,2.1,4.1,4.1,3.1,7.6c1.9-1,2.3,0.4,2.8,1.5  c1.9,4.2,3.3,8.5,3.9,13c0.1,0.6-0.1,1.3,0,1.9c0.1,0.6,0.4,1.1,0.5,1.7c0.1,2.4,0.2,4.9,0,7.3c-0.4,4.6-1.3,9.2-3.1,13.5  c-0.8,2-1.9,4-2.8,5.9c-0.2,0.4-0.2,0.9-0.3,1.4c-0.1-0.2-0.3-0.3-0.4-0.5c-0.6,1.1-1.2,2.1-1.7,3.2l-0.1,0.1  c-1,2.1-2.7,2.8-4.9,1.9c1,5.6-2.7,7-6.4,5.5c0.1,0.8,0.3,1.6,0.4,2.4c0.1,1-0.4,1.8-1.2,2.3c-0.4,0.2-0.8,0.5-1.2,0.8  c-2.2,1.5-3.1,1-4.5-0.1c-1.4-1.2-1.8-3.3-0.9-4.9c1-2.1,3.2-2.7,5.9-1.8C76.2,82.8,76,82,76,81.2s0.3-1.5,0.4-2.2  c-0.9,0.1-2,0.4-3,0.2c-0.9-0.2-1.9-0.9-2.5-1.7c-1.1-1.3-1-3.4,0.1-4.8c1.2-1.6,2.9-2,5.6-1.1c-0.8-1.6-0.8-3.1,0-4.7  c-2.8,0.8-4.5,0.4-5.7-1.2c-1-1.4-1-3.3-0.1-4.7c1.2-1.7,2.8-2.1,5.7-1.3c-0.8-1.6-0.9-3.1,0.1-4.8c-2.4,1-4.5,0.8-5.9-1.5  c-0.9-1.5-0.7-3.5,0.5-4.8C72.4,47,74.1,46.7,76.6,47.7z M78.1,37.2c0,1.3,0,2.8,0,4c1.1-0.1,2.4-0.2,3.7-0.3c0-1.1,0-2.3,0-3.3  C80.5,37.4,79.2,37.3,78.1,37.2z M78.1,73.2c0,1.3,0,2.8,0,4c1.1-0.1,2.4-0.2,3.7-0.3c0-1.1,0-2.3,0-3.3  C80.5,73.4,79.2,73.3,78.1,73.2z M81.8,28.9c0-1,0-2.2,0-3.3c-1.3-0.1-2.6-0.2-3.7-0.3c0,1.3,0,2.8,0,4C79.2,29.1,80.5,29,81.8,28.9  z M81.8,52.9c0-1.1,0-2.3,0-3.3c-1.3-0.1-2.6-0.3-3.7-0.4c0,1.3,0,2.8,0,4C79.2,53.1,80.5,53,81.8,52.9z M78.1,65.2  c1.1-0.1,2.4-0.2,3.7-0.3c0-1.1,0-2.3,0-3.3c-1.3-0.1-2.6-0.3-3.7-0.4C78.1,62.5,78.1,64,78.1,65.2z M87.4,67.9  c-1-0.1-2-0.2-2.9-0.2c0,1.1,0,2.1,0,3.2c1-0.1,2-0.2,2.9-0.2C87.4,69.7,87.4,68.8,87.4,67.9z M84.5,34.8c1-0.1,1.9-0.2,2.9-0.2  c0-0.9,0-1.8,0-2.7c-1-0.1-2-0.1-2.9-0.2C84.5,32.7,84.5,33.7,84.5,34.8z M87.3,46.6c0-0.9,0-1.8,0-2.7c-1-0.1-2-0.1-2.8-0.2  c0,1.1,0,2.1,0,3.2C85.4,46.7,86.4,46.7,87.3,46.6z M84.5,55.6c0,1.1,0,2.2,0,3.2c1-0.1,1.9-0.2,2.8-0.2c0-0.9,0-1.8,0-2.7  C86.4,55.8,85.4,55.7,84.5,55.6z M90.9,62.1c0,0.8,0,1.5,0,2.3c0.7-0.1,1.4-0.1,2-0.2c0-0.6,0-1.3,0-1.9  C92.2,62.2,91.6,62.2,90.9,62.1z M92.9,38.3c-0.6-0.1-1.3-0.2-2-0.2c0,0.8,0,1.5,0,2.3c0.7-0.1,1.4-0.2,2-0.2  C92.9,39.5,92.9,38.9,92.9,38.3z M90.9,50.1c0,0.7,0,1.5,0,2.2c0.6-0.1,1.2-0.1,1.8-0.2c0-0.6,0-1.2,0-1.8  C92.1,50.2,91.5,50.2,90.9,50.1z"></path><path d="M72.2,57.2c0,2.2-1.7,4-3.9,4c-2.2,0-4.1-1.8-4-4c0-2.2,1.8-4,4-4C70.4,53.2,72.2,55,72.2,57.2z"></path><path d="M68.2,65.2c2.2,0,4,1.7,4,3.9c0,2.2-1.8,4.1-4,4c-2.2,0-3.9-1.8-3.9-4C64.3,67,66.1,65.3,68.2,65.2z"></path><path d="M72.2,45.2c0,2.2-1.8,4-4,4s-4-1.8-4-4s1.8-3.9,4-3.9C70.5,41.3,72.2,43.1,72.2,45.2z"></path><path d="M68.3,85.2c-2.2,0-4-1.7-4-3.9c-0.1-2.2,1.8-4.1,4-4.1s4,1.8,4,4C72.3,83.4,70.5,85.2,68.3,85.2z"></path><path d="M68.3,17.2c2.2,0,4,1.8,4,4s-1.9,4-4.1,4c-2.2-0.1-3.9-1.9-3.9-4C64.3,19,66.1,17.2,68.3,17.2z"></path><path d="M68.3,29.2c2.2,0,4,1.8,4,3.9c0,2.2-1.8,4.1-4,4c-2.2,0-3.9-1.8-3.9-4C64.3,31,66.1,29.2,68.3,29.2z"></path><path d="M72.4,9.1c-0.2,1.9-1.4,3.6-3.2,4c-1.8,0.4-3.7-0.4-4.5-2.1c-0.8-1.7-0.4-3.8,1.1-4.8c0.4-0.3,1.2-0.4,1.7-0.3  c1.4,0.5,2.7,1,4,1.7C71.9,7.9,72.1,8.6,72.4,9.1z"></path><path d="M62.3,67c-2.1,0-3.8-1.8-3.8-3.8c0-2.1,1.8-3.8,3.9-3.8c2,0,3.7,1.7,3.7,3.8C66.1,65.2,64.3,67,62.3,67z"></path><path d="M66.1,51.3c0,2.1-1.8,3.8-3.9,3.8c-2.1-0.1-3.8-1.9-3.7-3.9s1.8-3.7,3.8-3.7C64.3,47.4,66.1,49.2,66.1,51.3z"></path><path d="M62.3,71.4c2.1,0,3.8,1.8,3.8,3.9s-1.8,3.8-3.9,3.8c-2-0.1-3.7-1.8-3.7-3.8C58.4,73.2,60.2,71.4,62.3,71.4z"></path><path d="M62.2,43c-2.1,0-3.8-1.8-3.8-3.9c0-2.1,1.9-3.8,3.9-3.7s3.7,1.8,3.7,3.8C66.1,41.3,64.3,43.1,62.2,43z"></path><path d="M66.1,87.2c0,2.1-1.7,3.8-3.8,3.9c-2.1,0-3.8-1.7-3.8-3.8c0-2,1.7-3.7,3.7-3.8C64.2,83.4,66,85.1,66.1,87.2z"></path><path d="M66.1,27.2c0,2.1-1.8,3.8-3.8,3.8c-2.1,0-3.8-1.8-3.8-3.9c0-2,1.7-3.7,3.8-3.8C64.3,23.4,66.1,25.1,66.1,27.2z"></path><path d="M62.2,19c-2.1-0.1-3.8-1.9-3.7-3.9c0.1-2.1,1.9-3.8,4-3.7c2,0.1,3.7,1.9,3.6,3.9C66,17.4,64.2,19.1,62.2,19z"></path><path d="M56.3,77.6c2,0,3.6,1.6,3.6,3.6s-1.7,3.6-3.7,3.6c-2-0.1-3.5-1.7-3.5-3.7C52.7,79.2,54.3,77.6,56.3,77.6z"></path><path d="M59.9,57.2c0,2-1.6,3.6-3.6,3.6s-3.7-1.6-3.6-3.7c0-2,1.7-3.6,3.6-3.5C58.2,53.6,59.9,55.3,59.9,57.2z"></path><path d="M56.2,72.8c-2,0-3.6-1.7-3.5-3.6c0-2,1.7-3.6,3.7-3.6c2,0.1,3.5,1.7,3.5,3.7C59.8,71.3,58.2,72.8,56.2,72.8z"></path><path d="M59.9,21.2c0,2-1.6,3.6-3.6,3.6s-3.7-1.7-3.6-3.7c0-2,1.7-3.5,3.6-3.5C58.3,17.6,59.9,19.3,59.9,21.2z"></path><path d="M56.3,29.6c2,0,3.6,1.6,3.6,3.6s-1.7,3.6-3.7,3.6s-3.5-1.7-3.5-3.7C52.7,31.2,54.3,29.6,56.3,29.6z"></path><path d="M59.9,45.2c0,2-1.6,3.6-3.5,3.6c-2,0-3.7-1.6-3.6-3.6c0-2,1.6-3.6,3.6-3.6C58.2,41.6,59.8,43.2,59.9,45.2z"></path><path d="M59.9,93.3c-0.1,2-1.7,3.5-3.7,3.5s-3.6-1.7-3.5-3.8c0.1-2,1.8-3.5,3.7-3.4C58.3,89.7,59.9,91.4,59.9,93.3z"></path><path d="M56.3,5.6c2,0,3.6,1.7,3.5,3.6c0,2-1.7,3.6-3.7,3.6c-2-0.1-3.5-1.7-3.5-3.7C52.7,7.2,54.3,5.6,56.3,5.6z"></path><path d="M50.2,18.6c-1.9,0-3.3-1.6-3.3-3.5c0.1-1.8,1.6-3.3,3.5-3.2c1.9,0,3.3,1.6,3.3,3.5C53.6,17.2,52,18.6,50.2,18.6z"></path><path d="M50.3,66.6c-1.9,0-3.4-1.5-3.4-3.4s1.5-3.3,3.4-3.3s3.4,1.5,3.4,3.4C53.6,65.1,52.1,66.6,50.3,66.6z"></path><path d="M53.6,39.2c0,1.9-1.5,3.4-3.5,3.4c-1.8,0-3.3-1.5-3.3-3.4s1.5-3.4,3.5-3.4C52.2,35.9,53.6,37.4,53.6,39.2z"></path><path d="M50.2,83.8c1.9,0,3.4,1.5,3.4,3.4s-1.5,3.3-3.3,3.4c-1.9,0-3.4-1.5-3.4-3.4S48.4,83.9,50.2,83.8z"></path><path d="M50.2,47.8c1.9,0,3.4,1.5,3.4,3.4s-1.5,3.3-3.3,3.4c-1.9,0-3.4-1.5-3.4-3.4S48.4,47.9,50.2,47.8z"></path><path d="M50.3,30.6c-1.9,0-3.4-1.5-3.4-3.4s1.5-3.3,3.3-3.4c1.9,0,3.4,1.5,3.4,3.4S52.2,30.6,50.3,30.6z"></path><path d="M53.6,75.2c0,1.9-1.5,3.4-3.4,3.4s-3.3-1.5-3.4-3.3c0-1.9,1.5-3.4,3.4-3.4C52.1,71.9,53.6,73.3,53.6,75.2z"></path><path d="M64.3,93.3c0-2,1.3-3.6,3.1-4c1.9-0.4,3.7,0.5,4.5,2.2c0.3,0.7,0.4,1.1-0.5,1.5c-1.7,0.6-3.3,1.5-5,2.1  c-1.5,0.6-1.8,0.4-2.1-1.3C64.3,93.6,64.3,93.4,64.3,93.3z"></path><path d="M41.1,45c0.1-1.7,1.5-3,3.3-3c1.8,0.1,3.1,1.5,3,3.3s-1.6,3.1-3.4,3C42.3,48.3,41,46.8,41.1,45z"></path><path d="M47.4,9.2c0,1.8-1.4,3.2-3.2,3.2c-1.7,0-3.1-1.4-3.1-3.1c0-1.8,1.4-3.2,3.2-3.2C46.1,6.1,47.4,7.5,47.4,9.2z"></path><path d="M47.4,69.3c0,1.8-1.4,3.1-3.3,3.1c-1.7,0-3.1-1.4-3-3.2c0-1.8,1.4-3.1,3.3-3.1C46.1,66.1,47.4,67.5,47.4,69.3z"></path><path d="M47.4,81.2c0,1.8-1.4,3.2-3.2,3.1c-1.7,0-3.1-1.4-3.1-3.2c0-1.8,1.4-3.2,3.2-3.1C46.1,78.1,47.4,79.5,47.4,81.2z"></path><path d="M44.3,30.1c1.8,0,3.2,1.4,3.1,3.2c0,1.7-1.4,3.1-3.2,3.1S41,35,41.1,33.2C41.1,31.4,42.5,30.1,44.3,30.1z"></path><path d="M47.4,21.3c0,1.8-1.4,3.1-3.3,3.1c-1.7,0-3.1-1.4-3-3.2c0-1.8,1.4-3.1,3.3-3.1C46.1,18.1,47.4,19.5,47.4,21.3z"></path><path d="M47.4,93.2c0,1.8-1.4,3.2-3.2,3.2c-1.7,0-3.1-1.4-3.1-3.1c0-1.8,1.4-3.2,3.2-3.2C46.1,90.1,47.4,91.5,47.4,93.2z"></path><path d="M47.4,57.2c0,1.8-1.4,3.2-3.2,3.2s-3.1-1.4-3.1-3.1c0-1.8,1.4-3.2,3.2-3.2C46,54.1,47.4,55.4,47.4,57.2z"></path><path d="M38.2,54.1c-1.7,0-2.9-1.3-2.9-3c0-1.6,1.3-2.8,2.9-2.8c1.7,0,2.9,1.3,2.9,3C41.1,52.9,39.9,54.1,38.2,54.1z"></path><path d="M38.2,66.1c-1.7,0-2.9-1.3-2.9-3c0-1.6,1.3-2.8,2.9-2.8c1.7,0,2.9,1.3,2.9,3C41.1,64.9,39.9,66.1,38.2,66.1z"></path><path d="M41.2,75.3c0,1.7-1.3,2.9-3,2.9c-1.6-0.1-2.8-1.3-2.8-3s1.3-2.9,3-2.9C40,72.4,41.2,73.6,41.2,75.3z"></path><path d="M35.3,39.3c0-1.7,1.3-3,2.9-2.9c1.6,0,2.9,1.2,2.9,2.9s-1.3,3-2.9,2.9C36.6,42.1,35.4,40.9,35.3,39.3z"></path><path d="M38.3,12.3c1.7,0,2.9,1.3,2.9,3c0,1.6-1.3,2.8-2.9,2.8c-1.7,0-2.9-1.3-2.9-3C35.4,13.5,36.7,12.3,38.3,12.3z"></path><path d="M38.2,90.1c-1.7,0-2.9-1.3-2.9-3c0-1.6,1.3-2.8,2.9-2.8c1.7,0,2.9,1.3,2.9,3C41.1,88.9,39.9,90.1,38.2,90.1z"></path><path d="M41.2,27.2c0,1.7-1.3,2.9-3,2.9c-1.6,0-2.8-1.3-2.8-2.9c0-1.7,1.3-2.9,3-2.9C40,24.3,41.2,25.6,41.2,27.2z"></path><path d="M32.2,71.9c-1.5,0-2.6-1.2-2.6-2.7s1.2-2.6,2.7-2.6c1.5,0,2.6,1.2,2.6,2.7C34.9,70.7,33.7,71.9,32.2,71.9z"></path><path d="M34.9,9.2c0,1.5-1.1,2.7-2.6,2.7s-2.7-1.1-2.7-2.6s1.1-2.7,2.6-2.7C33.7,6.6,34.9,7.7,34.9,9.2z"></path><path d="M32.2,47.9c-1.5,0-2.6-1.2-2.6-2.7s1.2-2.6,2.7-2.6c1.5,0,2.6,1.2,2.6,2.7C34.9,46.7,33.7,47.9,32.2,47.9z"></path><path d="M32.2,78.6c1.5,0,2.7,1.1,2.7,2.6s-1.1,2.7-2.6,2.7s-2.7-1.1-2.7-2.6C29.6,79.8,30.7,78.6,32.2,78.6z"></path><path d="M34.9,33.2c0,1.5-1.1,2.7-2.6,2.7s-2.7-1.1-2.7-2.6s1.1-2.7,2.6-2.7C33.7,30.5,34.9,31.7,34.9,33.2z"></path><path d="M32.2,18.6c1.5,0,2.7,1.1,2.7,2.6s-1.1,2.7-2.6,2.7s-2.7-1.1-2.7-2.6C29.6,19.8,30.8,18.6,32.2,18.6z"></path><path d="M34.9,57.2c0,1.5-1.2,2.7-2.6,2.7c-1.5,0-2.7-1.2-2.7-2.6c0-1.5,1.2-2.7,2.6-2.7C33.7,54.6,34.9,55.7,34.9,57.2z"></path><path d="M46.9,2.8c0.3,0,0.6-0.1,0.8-0.1c1.9,0,3.8,0,5.8,0c0.2,1.4-0.3,2.5-1.4,3.3c-1.1,0.8-2.6,0.8-3.7,0.1  C47.3,5.3,46.7,4.3,46.9,2.8z"></path><path d="M26.2,65.6c-1.3,0-2.4-1.1-2.3-2.4c0-1.3,1.2-2.4,2.5-2.4c1.3,0.1,2.3,1.2,2.3,2.4C28.6,64.6,27.5,65.6,26.2,65.6z"></path><path d="M28.6,75.3c0,1.3-1.1,2.3-2.4,2.3s-2.4-1.2-2.4-2.5c0.1-1.3,1.2-2.3,2.5-2.3C27.6,72.9,28.7,74,28.6,75.3z"></path><path d="M26.3,84.8c1.3,0,2.4,1.1,2.4,2.4s-1.1,2.4-2.4,2.4S24,88.5,24,87.2C23.9,85.9,25,84.8,26.3,84.8z"></path><path d="M26.3,41.6c-1.3,0-2.4-1.1-2.4-2.4c0-1.3,1.1-2.4,2.5-2.4c1.3,0,2.3,1.2,2.3,2.4C28.6,40.5,27.5,41.6,26.3,41.6z"></path><path d="M28.6,15.2c0,1.3-1,2.4-2.3,2.4s-2.5-1.1-2.5-2.4s1.1-2.4,2.4-2.4C27.5,12.8,28.6,13.9,28.6,15.2z"></path><path d="M26.2,29.6c-1.3,0-2.4-1.1-2.4-2.4s1.1-2.4,2.5-2.4c1.3,0,2.3,1.2,2.3,2.4C28.6,28.5,27.5,29.6,26.2,29.6z"></path><path d="M28.6,51.2c0,1.3-1.1,2.4-2.3,2.4c-1.3,0-2.5-1.1-2.4-2.4c0-1.3,1.1-2.3,2.4-2.3C27.5,48.8,28.6,49.9,28.6,51.2z"></path><path d="M34.1,95.1c-1.4-0.6-2.7-1.1-3.9-1.7c-0.3-0.1-0.5-0.8-0.4-1.1c0.3-1,1.1-1.7,2.2-1.8c1.1-0.1,2.1,0.3,2.6,1.3  C35.2,93,35,94.1,34.1,95.1z"></path><path d="M58.4,3.2c2.4,0.6,4.7,1.1,7,1.7c-0.6,1.4-2,2.2-3.5,2.1C60.1,6.8,58.9,5.6,58.4,3.2z"></path><path d="M22.3,57.2c0,1.1-0.9,2.1-2,2.1s-2.1-0.9-2.1-2s0.9-2.1,2-2.1S22.3,56.1,22.3,57.2z"></path><path d="M20.3,23.3c-1.1,0-2.1-0.9-2.1-2s0.9-2.1,2-2.1s2.1,0.9,2.1,2S21.4,23.2,20.3,23.3z"></path><ellipse transform="matrix(1.418092e-02 -0.9999 0.9999 1.418092e-02 -25.2429 64.8375)" cx="20.3" cy="45.2" rx="2" ry="2"></ellipse><path d="M22.3,33.2c0,1.1-0.9,2.1-2,2.1s-2.1-0.9-2.1-2s0.9-2.1,2-2.1C21.4,31.2,22.3,32.1,22.3,33.2z"></path><path d="M22.3,69.3c0,1.1-1,2-2.1,2s-2-1-2-2.1s1-2,2.1-2C21.4,67.2,22.3,68.1,22.3,69.3z"></path><ellipse transform="matrix(1.411294e-02 -0.9999 0.9999 1.411294e-02 -61.2382 100.3326)" cx="20.3" cy="81.2" rx="2" ry="2"></ellipse><path d="M14.2,76.9c-0.9,0-1.7-0.8-1.7-1.7c0-1,0.8-1.7,1.8-1.7c0.9,0,1.6,0.8,1.6,1.7C15.9,76.2,15.2,76.9,14.2,76.9z"></path><path d="M14.2,28.9c-0.9,0-1.7-0.8-1.6-1.7c0-0.9,0.9-1.7,1.8-1.6c0.9,0.1,1.6,0.8,1.6,1.7C15.9,28.1,15.1,28.9,14.2,28.9z"></path><path d="M47.3,97.7c1.2-2.6,5-2.3,5.9,0C51.2,97.7,49.3,97.7,47.3,97.7z"></path><path d="M14.3,37.6c0.9,0,1.7,0.8,1.7,1.7s-0.8,1.7-1.7,1.6c-0.9,0-1.6-0.8-1.6-1.6C12.6,38.3,13.4,37.6,14.3,37.6z"></path><path d="M14.3,49.6c0.9,0,1.7,0.8,1.7,1.7s-0.8,1.7-1.7,1.6c-0.9,0-1.6-0.8-1.6-1.6C12.6,50.4,13.3,49.6,14.3,49.6z"></path><path d="M14.3,61.6c0.9,0,1.7,0.8,1.7,1.7c0,0.9-0.8,1.7-1.7,1.6c-0.9,0-1.6-0.8-1.6-1.6C12.6,62.4,13.3,61.6,14.3,61.6z"></path><path d="M35.9,4.7c1.7-0.4,3.4-0.9,5.1-1.3c0.1,1.2-0.6,2.2-1.8,2.5C37.9,6.4,36.7,6,35.9,4.7z"></path><path d="M8.5,31.8c0.3,0.5,0.8,0.9,0.9,1.4c0.1,0.7-0.4,1.2-1.1,1.2c-0.8,0-1.3-0.4-1.2-1.1c0.1-0.5,0.5-1,0.8-1.4  C8.1,31.8,8.3,31.8,8.5,31.8z"></path><path d="M7.9,70.6c-0.3-0.5-0.8-0.9-0.9-1.4C7,68.5,7.5,68,8.3,68s1.3,0.5,1.1,1.2c-0.1,0.5-0.6,0.9-0.9,1.4  C8.3,70.6,8.1,70.6,7.9,70.6z"></path><path d="M8.3,43.6c0.5,0.7,1.2,1.2,1.1,1.6c-0.1,0.5-0.7,0.8-1.1,1.2c-0.4-0.4-1-0.8-1-1.2C7.1,44.8,7.7,44.3,8.3,43.6z"></path><path d="M9.9,57.2c-0.8,0.5-1.2,1.2-1.6,1.1c-0.5-0.1-0.8-0.7-1.2-1.1c0.4-0.4,0.8-1,1.2-1C8.7,56.1,9.2,56.7,9.9,57.2z"></path><path d="M63.8,96c-1.6,0.4-3,0.7-4.5,1.1C60.5,95.4,62.1,95,63.8,96z"></path></g>
</svg>
</g></svg>