<?xml version="1.0" encoding="UTF-8"?>
<svg xmlns="http://www.w3.org/2000/svg" xmlns:xlink="http://www.w3.org/1999/xlink" width="787.5pt" height="202.499994pt" viewBox="0 0 787.5 202.499994" version="1.2">
<g id="surface1">
<path style=" stroke:none;fill-rule:nonzero;fill:rgb(79.998779%,100%,0%);fill-opacity:1;" d="M 113.484375 186.449219 C 110.132812 186.90625 106.996094 187.359375 103.851562 187.75 C 102.277344 187.945312 100.671875 188.25 99.117188 188.101562 C 96.691406 187.871094 94.285156 187.367188 91.902344 186.839844 C 90.703125 186.578125 89.707031 185.859375 88.925781 184.828125 C 86.835938 182.082031 85.097656 179.125 83.9375 175.894531 C 81.464844 168.992188 79.152344 162.035156 76.753906 155.109375 C 75.554688 151.644531 74.28125 148.207031 73.085938 144.742188 C 72.652344 143.476562 72.273438 142.183594 72.003906 140.875 C 71.195312 136.941406 70.464844 132.988281 69.667969 129.050781 C 69.503906 128.25 69.171875 127.484375 68.816406 126.386719 C 67.953125 127.828125 67.269531 128.972656 66.640625 130.019531 C 66.527344 131.242188 66.484375 132.347656 66.3125 133.433594 C 65.976562 135.59375 66.25 137.585938 67.773438 139.34375 C 67.769531 140.570312 67.835938 141.792969 67.75 143.007812 C 67.195312 150.945312 66.621094 158.878906 66.019531 166.8125 C 65.75 170.355469 65.40625 173.894531 65.089844 177.433594 C 64.914062 179.386719 64.820312 181.355469 64.519531 183.289062 C 64.222656 185.214844 63.710938 187.109375 63.265625 189.160156 C 61.738281 190.488281 59.703125 191.054688 57.839844 191.910156 C 55.394531 193.035156 52.84375 193.921875 50.402344 195.046875 C 49.019531 195.6875 47.578125 195.863281 46.132812 195.894531 C 44.058594 195.9375 41.976562 195.753906 39.929688 195.664062 C 37.683594 193.777344 36.011719 191.53125 34.484375 189.179688 C 32.625 186.3125 30.925781 183.339844 29.011719 180.511719 C 27.96875 178.964844 27.195312 177.324219 26.644531 175.578125 C 25.914062 173.253906 25.257812 170.902344 24.679688 168.53125 C 24.269531 166.84375 23.621094 165.304688 22.683594 163.839844 C 21.234375 161.582031 19.894531 159.25 18.511719 156.957031 C 18.742188 156.035156 18.949219 155.214844 19.226562 154.105469 C 18.800781 153.097656 18.289062 151.863281 17.761719 150.632812 C 15.5 145.371094 13.179688 140.128906 10.992188 134.832031 C 10.109375 132.695312 9.550781 130.425781 8.761719 128.242188 C 7.058594 123.53125 5.40625 118.800781 3.527344 114.160156 C 2.742188 112.214844 2.050781 110.320312 1.867188 108.21875 C 1.75 106.890625 1.386719 105.585938 1.101562 104.105469 C 2.722656 101.761719 4.699219 99.644531 6.757812 97.636719 C 11.304688 96.996094 15.761719 96.355469 20.226562 95.75 C 21.078125 95.632812 21.882812 95.859375 22.714844 96.1875 C 25.375 97.253906 27.597656 98.9375 29.9375 101.0625 C 30.265625 102.183594 30.675781 103.585938 31.09375 104.980469 C 31.269531 105.566406 31.382812 106.1875 31.652344 106.722656 C 33.96875 111.320312 34.164062 116.371094 34.753906 121.320312 C 35.089844 124.132812 35.65625 126.824219 36.714844 129.46875 C 39.070312 135.359375 41.269531 141.3125 43.488281 147.128906 C 43.472656 150.402344 42.816406 153.515625 42.851562 156.789062 C 45.148438 156.34375 46.273438 154.785156 47.722656 153.726562 C 48.429688 153.207031 49.066406 152.652344 49.226562 151.414062 C 48.671875 150.085938 48.03125 148.503906 47.347656 146.941406 C 46.59375 145.21875 46.382812 143.472656 46.558594 141.574219 C 47.46875 131.566406 48.226562 121.542969 49.167969 111.539062 C 49.523438 107.738281 49.21875 103.972656 49.089844 100.191406 C 49.054688 99.101562 49.015625 98.007812 48.972656 96.808594 C 51.351562 94.328125 54.25 92.867188 57.566406 92.355469 C 59.480469 92.0625 61.460938 92.179688 63.410156 92.101562 C 64.507812 92.0625 65.609375 92.039062 66.703125 91.953125 C 70.152344 91.679688 73.492188 92.410156 77.03125 94.28125 C 79.339844 97.773438 81.046875 101.640625 82.261719 105.785156 C 83.878906 111.289062 85.730469 116.71875 87.453125 122.1875 C 89.179688 127.65625 90.867188 133.136719 92.578125 138.609375 C 92.910156 139.660156 93.183594 140.746094 93.664062 141.726562 C 94.402344 143.230469 94.238281 144.546875 93.238281 145.832031 C 93.097656 146.007812 93.09375 146.289062 92.996094 146.621094 C 93.976562 149.292969 96.007812 151.132812 98.449219 152.820312 C 100.449219 150.484375 100.453125 147.648438 100.777344 144.847656 C 100.0625 143.070312 99.289062 141.269531 98.617188 139.433594 C 97.8125 137.242188 97.550781 134.960938 97.457031 132.621094 C 97.230469 127.007812 97.550781 121.390625 97.0625 115.78125 C 96.839844 113.234375 97.179688 110.660156 96.996094 108.082031 C 96.777344 105.042969 96.941406 101.976562 96.867188 98.921875 C 96.792969 95.78125 97.5 92.863281 99.078125 90.144531 C 99.625 89.195312 100.097656 88.207031 100.53125 87.378906 C 103.160156 86.121094 107.160156 85.132812 115.039062 83.773438 C 118.21875 84.746094 121.589844 85.777344 125.105469 86.851562 C 125.734375 87.644531 126.421875 88.496094 127.097656 89.359375 C 127.765625 90.21875 128.421875 91.089844 129.09375 91.964844 C 127.679688 95.136719 127.148438 98.359375 126.753906 101.648438 C 125.925781 108.574219 125.121094 115.511719 123.957031 122.386719 C 123.035156 127.828125 122.546875 133.308594 121.820312 138.765625 C 121.191406 143.496094 120.554688 148.222656 119.789062 152.929688 C 119.496094 154.722656 118.84375 156.457031 118.339844 158.210938 C 117.738281 160.316406 117.117188 162.417969 116.582031 164.257812 C 117.222656 166.6875 117.710938 168.832031 118.355469 170.925781 C 118.847656 172.535156 118.78125 174.164062 118.230469 175.621094 C 116.898438 179.152344 115.324219 182.59375 113.839844 186.066406 C 113.796875 186.171875 113.679688 186.242188 113.484375 186.449219 M 74.945312 111.984375 C 71.0625 110.417969 67.480469 109.195312 64.269531 107.160156 C 64.027344 107.007812 63.601562 107.152344 63.085938 107.160156 C 62.433594 110.394531 61.0625 113.390625 60.480469 116.691406 C 62.152344 117.945312 63.78125 118.824219 65.773438 118.878906 C 66.773438 117.511719 65.890625 115.777344 67.109375 114.480469 C 69.25 114.59375 71.113281 116.019531 73.472656 116.261719 C 73.925781 114.949219 74.390625 113.597656 74.945312 111.984375 M 97.421875 169.746094 C 96.84375 171.546875 96.394531 172.914062 95.972656 174.285156 C 95.910156 174.5 95.996094 174.761719 96.027344 175.167969 C 96.328125 175.5 96.714844 175.929688 97.105469 176.363281 C 99.230469 175.496094 99.839844 173.550781 101.066406 172.210938 C 100.34375 170.617188 98.972656 170.453125 97.421875 169.746094 M 42.816406 166.539062 C 44.28125 168.863281 46.277344 169.964844 48.394531 170.929688 C 48.96875 171.1875 49.515625 171.375 50.09375 170.964844 C 49.679688 169.613281 49.683594 169.605469 47.707031 168.101562 C 46.34375 167.0625 44.925781 166.152344 42.816406 166.539062 M 24.046875 138.953125 C 24.441406 136.550781 24.082031 134.667969 24.101562 132.800781 C 24.101562 132.636719 23.800781 132.472656 23.507812 132.171875 C 22.816406 132.417969 22.054688 132.6875 21.339844 132.941406 C 21.292969 135.628906 21.484375 136.085938 24.046875 138.953125 M 109.203125 134.164062 C 109.78125 135.027344 110.199219 136.082031 111.496094 136.292969 C 112.035156 135.648438 112.125 134.964844 111.65625 134.3125 C 111.179688 133.65625 110.820312 132.820312 109.878906 132.679688 C 109.039062 132.902344 109.199219 133.558594 109.203125 134.164062 M 22.890625 115.601562 C 21.53125 113.960938 21.519531 113.972656 20.871094 114.007812 C 19.8125 115.179688 19.695312 115.824219 20.375 116.703125 C 21.410156 117.039062 22.242188 116.839844 22.890625 115.601562 M 85.375 149.394531 C 85.488281 147.871094 85.484375 146.832031 83.957031 146.488281 C 83.675781 146.9375 83.402344 147.324219 83.183594 147.742188 C 83.023438 148.046875 82.929688 148.394531 82.785156 148.777344 C 83.117188 148.996094 83.382812 149.28125 83.699219 149.351562 C 84.140625 149.449219 84.613281 149.386719 85.375 149.394531 M 114.339844 113.585938 C 114.921875 112.691406 115.039062 111.816406 114.457031 110.925781 C 113.855469 110.773438 113.257812 110.535156 112.710938 111.414062 C 112.960938 112.03125 113.261719 112.789062 113.554688 113.515625 C 113.890625 113.546875 114.109375 113.566406 114.339844 113.585938 M 38.296875 158.113281 C 38.09375 158.945312 37.890625 159.652344 38.867188 159.929688 C 39.636719 159.789062 40.113281 159.363281 40.242188 158.582031 C 39.910156 157.675781 39.25 157.792969 38.296875 158.113281 M 98.328125 160.128906 C 98.480469 158.726562 98.464844 158.734375 96.964844 158.066406 C 96.828125 158.351562 96.691406 158.640625 96.503906 159.03125 C 97.136719 159.414062 97.695312 159.75 98.328125 160.128906 M 111.035156 121.082031 C 111.375 121.289062 111.65625 121.457031 111.9375 121.621094 C 112.511719 120.722656 112.511719 120.722656 111.53125 120.1875 C 111.375 120.46875 111.21875 120.75 111.035156 121.082031 M 29.117188 143.851562 C 29.457031 144.050781 29.738281 144.214844 30.015625 144.375 C 30.582031 143.484375 30.582031 143.484375 29.601562 142.953125 C 29.449219 143.234375 29.296875 143.519531 29.117188 143.851562 "/>
<path style=" stroke:none;fill-rule:nonzero;fill:rgb(79.998779%,100%,0%);fill-opacity:1;" d="M 583.152344 57.335938 C 583.144531 55.101562 583.113281 52.785156 583.132812 50.464844 C 583.15625 48.375 582.910156 46.335938 582.328125 44.316406 C 581.6875 42.097656 581.15625 39.851562 580.570312 37.574219 C 580.851562 36.988281 581.117188 36.445312 581.375 35.90625 C 582.105469 34.382812 582.183594 32.910156 581.402344 31.328125 C 580.699219 29.910156 580.214844 28.382812 579.691406 26.882812 C 579.5 26.324219 579.46875 25.710938 579.34375 24.996094 C 580.277344 24.160156 581.171875 23.355469 582.128906 22.496094 C 585.621094 22.265625 589.144531 21.972656 592.671875 21.820312 C 595.730469 21.6875 598.753906 21.5 601.679688 20.472656 C 602.941406 20.027344 604.277344 19.808594 605.542969 19.496094 C 607.457031 19.988281 609.339844 20.46875 611.421875 21.003906 C 614.203125 20.308594 617.167969 19.59375 620.117188 18.820312 C 621.332031 18.5 622.539062 18.445312 623.746094 18.714844 C 625.472656 19.097656 627.140625 18.832031 628.828125 18.480469 C 631.699219 17.882812 634.632812 17.53125 637.453125 16.75 C 639.601562 16.15625 641.597656 16.453125 643.589844 17.027344 C 646.515625 17.875 649.390625 18.886719 652.285156 19.84375 C 652.859375 20.035156 653.449219 20.230469 653.972656 20.523438 C 656.953125 22.195312 659.917969 23.898438 663.050781 25.679688 C 664.832031 29.019531 666.6875 32.441406 668.476562 35.902344 C 668.863281 36.648438 669.054688 37.507812 669.253906 38.335938 C 670.09375 41.773438 670.902344 45.222656 671.683594 48.5 C 670.449219 53.902344 669.257812 59.132812 668.054688 64.386719 C 664.613281 68.226562 662.910156 69.757812 658.960938 72.519531 C 658.476562 73.585938 657.925781 74.796875 657.46875 75.800781 C 657.539062 77.757812 659.464844 78.136719 659.972656 79.53125 C 662.824219 82.550781 665.757812 85.503906 668.503906 88.621094 C 670.191406 90.535156 671.703125 92.632812 673.089844 94.78125 C 675.203125 98.054688 677.691406 101.125 678.976562 104.890625 C 679.171875 105.464844 679.554688 105.976562 679.734375 106.554688 C 680.015625 107.476562 680.199219 108.425781 680.460938 109.53125 C 679.605469 110.335938 678.730469 111.164062 677.769531 112.066406 C 673.542969 112.976562 669.261719 113.894531 664.980469 114.816406 C 663.417969 115.152344 661.835938 115.183594 660.242188 115.121094 C 658.046875 115.035156 655.847656 115.042969 653.652344 114.96875 C 652.164062 114.917969 650.703125 114.683594 649.605469 113.542969 C 646.222656 110.027344 642.398438 106.933594 639.535156 102.921875 C 638.117188 100.933594 636.605469 99.007812 635.207031 97.007812 C 634.652344 96.214844 634.28125 95.292969 633.832031 94.429688 C 632.4375 91.71875 631.058594 89 629.640625 86.300781 C 629.359375 85.773438 628.921875 85.328125 628.535156 84.8125 C 626.304688 84.609375 624.128906 84.410156 621.777344 84.191406 C 620.589844 85.152344 619.371094 86.136719 618.105469 87.15625 C 618.128906 88.125 618.039062 88.984375 618.195312 89.792969 C 618.769531 92.78125 619.363281 95.769531 620.089844 98.722656 C 620.449219 100.179688 620.675781 101.609375 620.335938 103.058594 C 619.980469 104.578125 620.261719 105.957031 620.882812 107.335938 C 621.578125 108.890625 622.261719 110.460938 622.875 112.054688 C 623.082031 112.597656 623.054688 113.234375 623.117188 113.671875 C 621.449219 116.492188 619.316406 118.664062 617.203125 120.867188 C 616.304688 121.804688 615.308594 122.394531 614.09375 122.664062 C 610.164062 123.539062 606.230469 124.394531 602.367188 125.246094 C 598.28125 123.660156 594.566406 121.605469 591.097656 118.695312 C 591.035156 116.398438 590.867188 113.96875 590.929688 111.546875 C 590.972656 109.914062 590.765625 108.425781 590.09375 106.917969 C 589.453125 105.480469 589.035156 103.929688 588.640625 102.398438 C 588.0625 100.148438 587.640625 97.859375 587.046875 95.617188 C 586.757812 94.507812 586.703125 93.472656 587.070312 92.382812 C 587.261719 91.816406 587.453125 91.199219 587.429688 90.617188 C 587.222656 85.617188 587.101562 80.605469 586.6875 75.625 C 586.363281 71.742188 585.640625 67.898438 585.109375 64.035156 C 584.960938 62.949219 584.984375 61.820312 584.691406 60.777344 C 584.398438 59.730469 583.8125 58.765625 583.152344 57.335938 M 642.699219 54.316406 C 641.117188 49.578125 638.992188 46.632812 634.921875 43.519531 C 628.648438 42.699219 622.234375 41.691406 615.710938 42.242188 C 614.777344 42.320312 613.738281 41.835938 612.820312 42.773438 C 612.582031 46.464844 610.136719 49.738281 610.164062 53.542969 C 611.335938 55.554688 612.421875 57.460938 613.558594 59.34375 C 614.589844 61.046875 615.855469 62.511719 618.160156 63.191406 C 622.03125 62.171875 626.121094 60.894531 630.300781 60.054688 C 634.855469 59.140625 638.789062 57.101562 642.699219 54.316406 M 656.820312 57.742188 C 657.316406 56.578125 657.261719 55.355469 657.386719 54.179688 C 657.511719 52.96875 657.625 51.757812 657.667969 50.542969 C 657.710938 49.375 658.234375 48.167969 657.492188 46.929688 C 656.167969 46.84375 654.851562 46.585938 653.402344 47.289062 C 652.480469 48.789062 651.0625 50.183594 650.921875 52.195312 C 652.671875 54.585938 654.398438 56.214844 656.820312 57.742188 M 611.195312 75.472656 C 609.414062 73.859375 607.546875 73.378906 605.597656 72.792969 C 605.175781 73.203125 604.546875 73.542969 604.347656 74.050781 C 603.777344 75.515625 603.347656 77.039062 602.9375 78.558594 C 602.871094 78.804688 603.195312 79.152344 603.398438 79.574219 C 605.453125 78.589844 607.421875 77.664062 609.367188 76.699219 C 609.90625 76.429688 610.378906 76.027344 611.195312 75.472656 M 598.742188 38.707031 C 596.746094 36.679688 595.074219 35.5625 593.03125 35.058594 C 592.847656 35.011719 592.605469 35.226562 592.164062 35.414062 C 592.058594 35.84375 591.84375 36.410156 591.796875 36.988281 C 591.738281 37.679688 590.804688 38.183594 591.441406 39.085938 C 591.6875 39.164062 592.03125 39.378906 592.355469 39.351562 C 594.25 39.191406 596.144531 38.976562 598.742188 38.707031 M 601.984375 54.339844 C 600.871094 52.210938 598.765625 52.019531 597.113281 51.128906 C 596.996094 51.066406 596.710938 51.304688 596.507812 51.402344 C 596.484375 51.523438 596.410156 51.660156 596.449219 51.753906 C 597.34375 53.917969 599.285156 54.5 601.308594 54.925781 C 601.441406 54.953125 601.640625 54.648438 601.984375 54.339844 M 644.554688 37.417969 C 645.199219 36.171875 645.085938 34.867188 645.125 33.710938 C 644.222656 32.941406 643.460938 32.769531 642.628906 33.304688 C 642.433594 35.636719 642.84375 36.539062 644.554688 37.417969 M 599.605469 69.550781 C 600.152344 69.59375 600.535156 69.4375 600.570312 68.71875 C 599.914062 67.554688 599.09375 66.457031 597.777344 65.832031 C 597.535156 66.152344 597.398438 66.332031 597.148438 66.65625 C 597.796875 67.714844 598.550781 68.753906 599.605469 69.550781 M 651.449219 37.34375 C 650.511719 37.476562 649.976562 37.550781 649.523438 37.613281 C 649.214844 38.589844 648.839844 39.371094 649.707031 40.21875 C 650.136719 40.164062 650.671875 40.101562 651.203125 40.039062 C 651.28125 39.175781 651.34375 38.503906 651.449219 37.34375 M 609.753906 29.78125 C 608.921875 29.136719 608.449219 28.609375 607.859375 28.355469 C 607.277344 28.101562 606.710938 28.332031 606.628906 29.113281 C 607.914062 30.734375 607.914062 30.734375 609.753906 29.78125 M 607.738281 89.574219 C 608.164062 89.277344 608.539062 88.996094 608.007812 88.308594 C 607.164062 87.996094 606.164062 87.871094 605.097656 88.074219 C 605.148438 88.320312 605.125 88.5625 605.238281 88.703125 C 605.453125 88.976562 605.742188 89.1875 605.988281 89.414062 C 606.601562 89.46875 607.183594 89.523438 607.738281 89.574219 M 646.636719 66.878906 C 647.890625 68.554688 649.308594 68.367188 650.914062 68.324219 C 649.703125 67.113281 648.578125 66.34375 646.636719 66.878906 M 603.902344 98.039062 C 603.460938 97.238281 603.183594 96.5625 602.238281 96.597656 C 602.089844 96.847656 601.921875 97.125 601.769531 97.375 C 602.710938 98.671875 602.710938 98.671875 603.316406 98.699219 C 603.464844 98.53125 603.613281 98.363281 603.902344 98.039062 "/>
<path style=" stroke:none;fill-rule:nonzero;fill:rgb(79.998779%,100%,0%);fill-opacity:1;" d="M 318.507812 59.644531 C 319.277344 59.472656 320.335938 59.207031 321.40625 58.996094 C 328.105469 57.6875 334.804688 56.367188 341.507812 55.101562 C 347.015625 54.0625 352.53125 53.085938 358.042969 52.109375 C 358.761719 51.980469 359.519531 51.894531 360.238281 51.972656 C 363.996094 52.378906 367.777344 52.527344 371.457031 53.664062 C 373.777344 54.382812 376.113281 55.089844 378.441406 55.773438 C 382.554688 56.980469 385.953125 59.253906 389.136719 61.953125 C 391.550781 64 393.941406 66.078125 396.238281 68.25 C 397.199219 69.15625 398.023438 70.265625 398.695312 71.410156 C 402.246094 77.441406 404.6875 83.933594 406.46875 90.691406 C 406.625 91.277344 406.816406 91.851562 407.003906 92.429688 C 407.539062 94.082031 407.769531 95.707031 407.386719 97.472656 C 407.140625 98.621094 407.277344 99.910156 407.503906 101.085938 C 408.171875 104.511719 407.824219 107.890625 407.285156 111.277344 C 407.074219 112.601562 406.707031 113.910156 406.59375 115.238281 C 406.230469 119.539062 404.949219 123.617188 403.65625 127.683594 C 403.257812 128.949219 402.582031 130.144531 401.910156 131.296875 C 399.925781 134.691406 397.402344 137.671875 394.621094 140.4375 C 391.546875 143.496094 387.882812 145.660156 383.960938 147.429688 C 378.933594 149.691406 373.71875 151.308594 368.273438 152.246094 C 358.304688 153.960938 348.351562 155.769531 338.390625 157.535156 C 337.796875 157.640625 337.183594 157.769531 336.59375 157.726562 C 331.859375 157.382812 327.25 156.257812 322.472656 155.75 C 322.324219 154.824219 322.191406 154.125 322.097656 153.421875 C 322.015625 152.820312 321.960938 152.210938 321.925781 151.601562 C 321.839844 150.265625 321.746094 148.925781 321.710938 147.585938 C 321.640625 144.535156 321.609375 141.484375 321.542969 138.433594 C 321.5 136.359375 321.503906 134.28125 321.328125 132.21875 C 321.238281 131.148438 321.035156 129.949219 320.460938 129.085938 C 319.65625 127.878906 319.582031 126.546875 319.328125 125.261719 C 318.925781 123.234375 318.910156 121.128906 318.488281 119.105469 C 318.066406 117.085938 317.351562 115.125 316.71875 112.980469 C 317.167969 111.613281 317.664062 110.113281 318.1875 108.519531 C 317.804688 105.9375 316.601562 103.515625 315.699219 101.003906 C 315.238281 99.722656 314.894531 98.464844 314.785156 97.101562 C 314.574219 94.425781 314.199219 91.769531 314.214844 89.070312 C 314.222656 87.375 313.921875 85.675781 313.761719 83.976562 C 313.703125 83.375 313.578125 82.761719 313.621094 82.164062 C 313.777344 79.886719 313.292969 77.789062 312.039062 76.09375 C 311.414062 69.621094 313.375 63.757812 318.507812 59.644531 M 345.964844 92.585938 C 347.078125 94.117188 347.558594 95.9375 347.625 97.964844 C 347.71875 100.769531 348.046875 103.5625 348.273438 106.359375 C 348.496094 109.15625 348.703125 111.953125 348.953125 114.746094 C 349.125 116.6875 349.105469 118.695312 349.613281 120.550781 C 350.921875 125.355469 354.148438 128.507812 358.863281 130.449219 C 363.300781 128.480469 367.65625 126.308594 371.789062 124.183594 C 373.285156 120.71875 374.539062 117.40625 376.128906 114.257812 C 377.695312 111.152344 377.808594 107.902344 377.667969 104.597656 C 377.535156 101.554688 377.210938 98.519531 376.945312 95.15625 C 375.5 90.769531 372.476562 87.203125 368.515625 84.335938 C 366.800781 83.097656 364.921875 82.191406 362.851562 81.902344 C 357.238281 81.125 351.679688 81.527344 346.082031 82.9375 C 345.664062 84.417969 345.734375 85.871094 345.789062 87.328125 C 345.847656 88.914062 345.894531 90.5 345.964844 92.585938 M 391.492188 104.511719 C 391.136719 104.796875 390.769531 105.085938 390.648438 105.1875 C 390.484375 106.933594 390.28125 108.246094 390.277344 109.5625 C 390.277344 110.242188 390.5 111.039062 391.625 111.074219 C 393.261719 109.773438 394.054688 108.03125 393.980469 105.679688 C 393.203125 105.316406 392.460938 104.96875 391.492188 104.511719 M 331.808594 142.09375 C 331.617188 144.578125 331.6875 144.984375 332.640625 147.050781 C 334.699219 146.21875 335.476562 144.382812 336.503906 142.339844 C 334.878906 142.191406 333.515625 141.765625 331.808594 142.09375 M 331.613281 71.351562 C 333.203125 69.371094 333.207031 69.375 333.488281 67.628906 C 332.390625 67.136719 331.234375 67.039062 330.089844 67.164062 C 329.1875 67.734375 328.515625 68.359375 328.679688 69.488281 C 329.414062 70.519531 330.511719 70.941406 331.613281 71.351562 M 388.132812 87.019531 C 388.390625 84.6875 387.050781 81.324219 384.691406 78.140625 C 383.839844 78.296875 383.839844 79.027344 384.007812 79.539062 C 384.535156 81.144531 385.121094 82.746094 385.835938 84.277344 C 386.328125 85.332031 387.050781 86.285156 388.132812 87.019531 M 346.035156 65.949219 C 345.765625 67.304688 345.355469 68.550781 345.871094 69.890625 C 347.371094 69.296875 347.371094 69.296875 349.328125 66.753906 C 348.25 66.488281 347.230469 66.242188 346.035156 65.949219 M 366.640625 70.863281 C 366.046875 70.015625 365.867188 69.480469 365.503906 69.285156 C 364.457031 68.722656 363.355469 68.238281 362.234375 67.847656 C 361.667969 67.648438 361.390625 68.089844 361.40625 68.839844 C 362.875 69.535156 363.953125 71.253906 366.640625 70.863281 M 337.75 113.65625 C 336.835938 113.554688 336.011719 112.84375 335.050781 113.761719 C 334.859375 114.878906 334.597656 116.042969 335.816406 116.96875 C 336.871094 116.164062 338.007812 115.46875 337.75 113.65625 M 375.09375 71.511719 C 376.039062 73.878906 376.382812 74.3125 378.195312 75.558594 C 378.285156 75.351562 378.421875 75.152344 378.457031 74.933594 C 378.496094 74.703125 378.519531 74.414062 378.414062 74.230469 C 377.8125 73.226562 377.167969 72.25 376.492188 71.183594 C 375.957031 71.308594 375.539062 71.410156 375.09375 71.511719 M 389.570312 113.796875 C 391.359375 114.882812 392.128906 116.089844 393.898438 115.445312 C 393.152344 114.640625 392.519531 113.960938 391.863281 113.25 C 391.289062 113.386719 390.851562 113.492188 389.570312 113.796875 M 336.066406 87.527344 C 336.8125 86.894531 336.808594 86.269531 336.371094 85.597656 C 335.71875 85.269531 335.078125 85.007812 334.640625 85.898438 C 334.691406 86.671875 335.070312 87.191406 336.066406 87.527344 M 387.617188 92.410156 C 386.722656 93.894531 386.699219 93.90625 388.191406 94.902344 C 388.597656 94.152344 388.742188 93.398438 388.242188 92.632812 C 388.03125 92.554688 387.824219 92.484375 387.617188 92.410156 M 324.140625 79.460938 C 324.015625 78.726562 323.925781 78.195312 323.835938 77.660156 C 323.121094 77.65625 322.675781 77.792969 322.65625 78.378906 C 322.644531 78.792969 322.804688 79.214844 322.886719 79.621094 C 323.289062 79.570312 323.507812 79.542969 324.140625 79.460938 M 335.210938 105.1875 C 334.867188 105.332031 334.566406 105.457031 334.265625 105.585938 C 334.824219 106.90625 334.824219 106.90625 336.171875 106.269531 C 335.847656 105.90625 335.546875 105.566406 335.210938 105.1875 "/>
<path style=" stroke:none;fill-rule:nonzero;fill:rgb(79.998779%,100%,0%);fill-opacity:1;" d="M 715.316406 6.648438 C 720.535156 5.933594 725.832031 5.128906 731.15625 4.523438 C 732.699219 4.347656 734.363281 4.527344 735.871094 4.925781 C 737.425781 5.335938 738.976562 5.582031 740.550781 5.742188 C 744.703125 6.164062 748.710938 7.214844 752.679688 8.433594 C 758.613281 10.261719 763.785156 13.378906 768.167969 17.789062 C 768.511719 18.136719 768.894531 18.441406 769.246094 18.777344 C 771.203125 20.640625 772.933594 22.65625 774.136719 25.128906 C 776.273438 29.515625 778.527344 33.839844 780.71875 38.199219 C 780.992188 38.742188 781.171875 39.332031 781.4375 40.011719 C 781.277344 41.75 781.085938 43.574219 780.945312 45.402344 C 780.710938 48.460938 780.742188 51.46875 782.011719 54.378906 C 782.542969 55.59375 782.667969 56.960938 782.519531 58.339844 C 782.097656 62.355469 781.796875 66.390625 781.320312 70.398438 C 781.089844 72.328125 780.675781 74.253906 780.15625 76.125 C 779.871094 77.15625 779.292969 78.148438 778.675781 79.035156 C 775.8125 83.140625 772.96875 87.265625 769.949219 91.257812 C 768.710938 92.894531 767.160156 94.351562 765.566406 95.660156 C 762.550781 98.132812 759.394531 100.433594 756.3125 102.820312 C 755.121094 103.742188 753.808594 104.214844 752.308594 104.464844 C 745.460938 105.617188 738.632812 106.875 731.71875 108.109375 C 731.207031 107.96875 730.632812 107.714844 730.035156 107.65625 C 724.363281 107.070312 719.21875 104.753906 714.011719 102.699219 C 712.207031 101.988281 710.503906 100.96875 708.859375 99.925781 C 705.765625 97.96875 702.78125 95.832031 699.679688 93.882812 C 698.269531 93 697.238281 91.925781 696.570312 90.410156 C 695.433594 87.839844 694.214844 85.3125 693.027344 82.769531 C 691.785156 80.113281 690.542969 77.464844 689.292969 74.8125 C 688.769531 73.699219 688.464844 72.566406 688.390625 71.304688 C 688.09375 66.316406 687.625 61.335938 687.335938 56.34375 C 687.066406 51.605469 686.71875 46.875 687.957031 42.160156 C 688.578125 39.8125 688.800781 37.359375 689.425781 34.984375 C 689.75 33.75 690.289062 32.699219 690.980469 31.714844 C 693.644531 27.917969 696.382812 24.171875 699.066406 20.390625 C 700.28125 18.6875 701.683594 17.191406 703.355469 15.914062 C 707.335938 12.878906 711.273438 9.785156 715.316406 6.648438 M 716.054688 43.742188 C 715.332031 48.417969 715.679688 52.945312 715.511719 57.449219 C 715.492188 57.925781 715.683594 58.40625 715.777344 58.882812 C 716.734375 63.796875 719.257812 67.96875 722.039062 72.007812 C 722.746094 73.035156 723.78125 73.714844 724.859375 74.304688 C 729.449219 76.804688 734.3125 78.210938 739.578125 78.042969 C 744.027344 75.972656 747.265625 72.867188 750.800781 67.191406 C 751.410156 63.050781 751.757812 58.78125 751.867188 54.496094 C 751.972656 50.421875 751.40625 46.472656 749.402344 42.84375 C 748.046875 40.386719 746.609375 37.980469 744.585938 35.9375 C 739.1875 34.105469 733.789062 32.210938 727.835938 31.9375 C 723.886719 35.894531 719.929688 39.859375 716.054688 43.742188 M 746.210938 88.152344 C 742.519531 91.859375 742.105469 92.9375 742.796875 96.578125 C 743.855469 97.203125 744.75 96.433594 745.472656 95.992188 C 747.078125 95.007812 748.828125 94.101562 749.882812 92.421875 C 749.09375 90.5625 747.964844 89.222656 746.210938 88.152344 M 770.507812 55.742188 C 768.597656 56.371094 767.261719 56.003906 766.265625 56.875 C 764.628906 58.300781 762.84375 59.597656 761.855469 61.613281 C 762.6875 64.417969 764.699219 66.351562 766.289062 68.601562 C 766.535156 68.382812 766.6875 68.316406 766.699219 68.226562 C 767.09375 65.742188 765.476562 63.621094 765.328125 61.296875 C 766.640625 59.289062 769.03125 58.445312 770.507812 55.742188 M 747.144531 18.566406 C 747.871094 23.300781 751.199219 24.359375 754.070312 26.15625 C 755.015625 25.925781 756.117188 26.914062 757.441406 25.96875 C 754.394531 23.269531 750.824219 21.511719 747.144531 18.566406 M 698.847656 54.355469 C 700.148438 55.679688 701.5 56.328125 703.332031 56.113281 C 703.707031 55.574219 704.105469 55.007812 704.414062 54.570312 C 703.855469 52.5 702.640625 51.125 701.359375 49.8125 C 701.160156 49.609375 700.742188 49.617188 700.28125 49.488281 C 699.78125 51.1875 699.308594 52.785156 698.847656 54.355469 M 731.269531 90.257812 C 730.71875 91.875 729.730469 93.402344 730.046875 95.429688 C 731.222656 95.910156 732.351562 96.089844 733.695312 95.785156 C 734.113281 95.167969 734.574219 94.496094 735.09375 93.734375 C 733.875 92.4375 733.117188 90.871094 731.269531 90.257812 M 708.773438 38.496094 C 709.304688 37.320312 709.703125 36.570312 709.984375 35.777344 C 710.1875 35.214844 710.320312 34.585938 709.710938 34.078125 C 708.5 33.761719 707.332031 33.730469 706.46875 34.957031 C 706.277344 36.546875 707.339844 37.339844 708.773438 38.496094 M 695.800781 41.171875 C 695.605469 43.207031 696.082031 43.742188 697.9375 43.570312 C 698.429688 42.832031 698.621094 42.070312 698.121094 41.25 C 697.359375 40.710938 696.589844 40.664062 695.800781 41.171875 M 708.273438 79.394531 C 707.582031 78.625 707.582031 78.625 706.609375 78.238281 C 705.808594 79.011719 706.039062 80.035156 705.976562 80.980469 C 705.96875 81.144531 706.164062 81.324219 706.332031 81.605469 C 707.167969 80.898438 708.117188 80.519531 708.273438 79.394531 M 710.683594 71.253906 C 710.527344 72.449219 711.070312 72.941406 712.046875 73.226562 C 712.222656 72.996094 712.542969 72.765625 712.578125 72.496094 C 712.628906 72.082031 712.488281 71.640625 712.410156 71.085938 C 711.707031 71.15625 711.179688 71.207031 710.683594 71.253906 M 702.109375 65.726562 C 701.078125 66.722656 700.96875 67.617188 701.621094 68.699219 C 701.996094 68.539062 702.304688 68.40625 702.570312 68.292969 C 702.90625 67.429688 703.089844 66.648438 702.109375 65.726562 M 762.253906 47.015625 C 762.699219 47.820312 763.042969 48.4375 763.957031 48.421875 C 764.101562 48.167969 764.261719 47.890625 764.402344 47.644531 C 764.019531 46.957031 763.691406 46.332031 762.84375 46.351562 C 762.691406 46.523438 762.542969 46.691406 762.253906 47.015625 M 766.417969 43.273438 C 766.300781 44.265625 766.917969 44.484375 767.707031 44.472656 C 768.25 44.464844 768.523438 44.136719 768.503906 43.582031 C 767.921875 42.691406 767.21875 42.671875 766.417969 43.273438 M 762.976562 69.621094 C 762.5 68.382812 761.714844 68 760.5 68.4375 C 760.972656 69.675781 761.761719 70.050781 762.976562 69.621094 "/>
<path style=" stroke:none;fill-rule:nonzero;fill:rgb(79.998779%,100%,0%);fill-opacity:1;" d="M 130.949219 89.21875 C 133.273438 85.085938 135.050781 82.808594 138.304688 79.761719 C 138.945312 79.636719 139.660156 79.382812 140.378906 79.375 C 143.558594 79.351562 146.734375 79.339844 149.910156 79.429688 C 153.707031 79.539062 157.449219 79.335938 161.167969 78.421875 C 164.359375 77.640625 167.605469 77.070312 170.84375 76.496094 C 172.398438 76.21875 173.984375 76.09375 175.566406 75.996094 C 177.878906 75.847656 180.199219 75.757812 182.515625 75.695312 C 185.09375 75.628906 187.632812 75.433594 189.84375 74.175781 C 194.492188 74.125 198.632812 75.433594 202.65625 77.804688 C 202.894531 78.5 203.238281 79.28125 203.425781 80.09375 C 204.035156 82.703125 204.457031 85.355469 205.203125 87.921875 C 205.714844 89.683594 205.5625 91.382812 205.019531 92.96875 C 204.269531 95.136719 203.523438 97.355469 202.117188 99.300781 C 199.875 99.921875 197.644531 100.542969 195.179688 101.230469 C 191.746094 100.015625 188.082031 100.933594 184.457031 101.183594 C 178.988281 101.558594 173.550781 102.363281 168.09375 102.925781 C 165.910156 103.152344 163.710938 103.214844 161.519531 103.375 C 160.90625 103.417969 160.304688 103.554688 159.878906 104.417969 C 161.238281 107.46875 162.496094 110.742188 164.292969 113.886719 C 164.816406 113.902344 165.304688 114.011719 165.757812 113.917969 C 173.757812 112.296875 181.753906 110.644531 189.757812 109.011719 C 191.3125 108.691406 192.886719 108.449219 194.441406 108.136719 C 197.074219 107.613281 199.542969 107.964844 201.832031 109.414062 C 203.269531 110.328125 204.71875 111.21875 206.285156 112.195312 C 206.054688 115.871094 206.925781 119.550781 205.964844 123.148438 C 204.988281 126.792969 204.039062 130.472656 202.078125 133.90625 C 196.628906 134.957031 191.128906 136.019531 186.191406 136.972656 C 180.574219 136.195312 175.503906 135.492188 170.25 134.765625 C 167.238281 138.5 166.308594 142.917969 166.347656 147.695312 C 167.101562 148.597656 168.113281 149.003906 169.214844 149.117188 C 172.503906 149.453125 175.800781 149.96875 179.089844 149.945312 C 181.492188 149.929688 183.898438 149.207031 186.285156 148.730469 C 194.175781 147.15625 202.058594 145.550781 210.066406 143.929688 C 211.230469 144.429688 212.453125 144.949219 213.742188 145.5 C 213.976562 146.070312 214.25 146.613281 214.429688 147.1875 C 215.335938 150.09375 216.207031 153.015625 217.109375 155.925781 C 217.511719 157.226562 217.648438 158.53125 217.546875 159.898438 C 217.246094 164.070312 216.699219 168.175781 214.882812 172.175781 C 211.011719 173.359375 206.941406 174.085938 202.691406 174.988281 C 201.152344 174.300781 199.398438 174.207031 197.519531 174.289062 C 193.617188 174.46875 189.695312 174.335938 185.785156 174.207031 C 184.15625 174.15625 182.667969 174.40625 181.132812 174.960938 C 177.339844 176.332031 173.457031 177.390625 169.453125 178.027344 C 167.65625 178.3125 165.921875 178.972656 164.15625 179.464844 C 161.105469 180.308594 158.03125 181.089844 155.003906 182.019531 C 153.5 182.480469 152.121094 182.394531 150.722656 181.789062 C 147.445312 180.371094 144.464844 178.484375 141.722656 176.191406 C 140.914062 175.511719 140.511719 174.671875 140.292969 173.707031 C 139.648438 170.855469 139.003906 168.003906 138.398438 165.140625 C 138.25 164.433594 138.113281 163.664062 138.222656 162.964844 C 138.707031 159.804688 138.84375 156.644531 138.550781 153.460938 C 138.496094 152.859375 138.578125 152.238281 138.605469 151.355469 C 136.464844 147.726562 136.582031 143.363281 136.152344 139.144531 C 135.644531 134.171875 135.5 129.160156 135.125 124.171875 C 135.015625 122.722656 134.671875 121.285156 134.386719 119.855469 C 133.746094 116.628906 132.960938 113.425781 132.453125 110.175781 C 131.984375 107.167969 131.753906 104.121094 131.5 101.082031 C 131.253906 98.164062 131.09375 95.238281 130.941406 92.3125 C 130.882812 91.21875 130.941406 90.117188 130.949219 89.21875 M 165.085938 158.925781 C 163.628906 161.070312 162.246094 162.71875 161.691406 164.867188 C 162.195312 165.507812 162.605469 166.109375 163.101562 166.628906 C 163.675781 167.234375 164.324219 167.355469 164.9375 166.636719 C 165.84375 162.242188 165.886719 161.1875 165.085938 158.925781 M 180.113281 165.773438 C 181.191406 164.941406 182.074219 164.304688 182.890625 163.589844 C 183.101562 163.410156 183.09375 162.984375 183.238281 162.488281 C 182.421875 162.3125 181.722656 162.191406 181.035156 162.015625 C 180.246094 161.8125 179.46875 161.5625 178.6875 161.332031 C 178.109375 163.339844 178.109375 163.339844 180.113281 165.773438 M 178.78125 85.136719 C 178.769531 85.5625 178.671875 85.84375 178.769531 86.011719 C 179.597656 87.421875 181.074219 88.0625 182.21875 89.03125 C 182.707031 88.886719 183.042969 88.789062 183.457031 88.667969 C 183.371094 88.285156 183.40625 87.832031 183.199219 87.648438 C 182.210938 86.765625 181.191406 85.90625 180.105469 85.15625 C 179.800781 84.949219 179.226562 85.132812 178.78125 85.136719 M 146.679688 152.320312 C 147.269531 153.582031 148.046875 154.355469 148.882812 155.0625 C 149.140625 155.277344 149.542969 155.332031 149.882812 155.445312 C 150.335938 155.59375 150.765625 155.230469 150.851562 154.472656 C 150.308594 153.847656 149.675781 153.128906 149.054688 152.417969 C 148.257812 152.386719 147.5625 152.355469 146.679688 152.320312 M 149.957031 103.136719 C 149.222656 104.820312 148.515625 106.433594 147.78125 108.113281 C 148.035156 108.320312 148.285156 108.523438 148.511719 108.710938 C 150.230469 107.507812 150.058594 105.542969 150.789062 103.953125 C 150.511719 103.679688 150.261719 103.433594 149.957031 103.136719 M 150.367188 119.996094 C 149.488281 118.347656 148.390625 118.066406 146.976562 118.621094 C 147.464844 120.636719 148.191406 120.96875 150.367188 119.996094 M 151.992188 125.851562 C 152.378906 126.738281 152.742188 127.574219 153.164062 128.535156 C 153.773438 128.355469 154.203125 128.230469 154.601562 128.113281 C 154.671875 127.625 154.726562 127.265625 154.777344 126.925781 C 154.191406 125.867188 153.503906 125.117188 151.992188 125.851562 M 149.578125 141.433594 C 148.695312 141.914062 148.859375 142.632812 149.203125 143.261719 C 149.691406 144.152344 150.382812 144.761719 151.507812 144.160156 C 151.0625 143.082031 150.976562 141.78125 149.578125 141.433594 M 190.277344 162.660156 C 191.71875 162.34375 191.605469 160.835938 192.558594 160.058594 C 192.15625 159.710938 191.921875 159.503906 191.6875 159.300781 C 190.054688 161.199219 190.074219 161.210938 190.277344 162.660156 M 152.476562 167.257812 C 153.871094 169.421875 153.871094 169.421875 155.265625 168.664062 C 154.675781 168.035156 154.109375 167.4375 153.304688 166.582031 C 152.941406 166.878906 152.691406 167.082031 152.476562 167.257812 M 152.945312 144 C 152.464844 144.570312 152.203125 145.152344 152.742188 145.851562 C 152.957031 145.914062 153.171875 145.976562 153.386719 146.042969 C 154.167969 144.613281 154.1875 144.609375 152.945312 144 M 160.855469 154.089844 C 160.359375 154.28125 160.050781 154.398438 159.746094 154.515625 C 160.238281 155.832031 160.238281 155.832031 161.84375 155.207031 C 161.476562 154.789062 161.167969 154.441406 160.855469 154.089844 "/>
<path style=" stroke:none;fill-rule:nonzero;fill:rgb(79.998779%,100%,0%);fill-opacity:1;" d="M 304.878906 134.460938 C 305.867188 137.542969 307.132812 140.980469 308.042969 144.511719 C 308.613281 146.726562 308.824219 149.078125 308.160156 151.382812 C 307.992188 151.96875 307.847656 152.566406 307.761719 153.167969 C 307.414062 155.59375 306.96875 157.992188 305.878906 160.429688 C 304.121094 161.175781 302.0625 161.457031 300.0625 161.933594 C 298.636719 162.273438 297.191406 162.542969 295.785156 162.949219 C 294.449219 163.339844 293.167969 163.453125 291.855469 162.867188 C 291.425781 162.675781 290.910156 162.597656 290.429688 162.59375 C 285.546875 162.582031 280.660156 162.554688 275.777344 162.628906 C 274.578125 162.644531 273.316406 162.824219 272.199219 163.246094 C 268.183594 164.753906 264.007812 165.585938 259.851562 166.558594 C 255.105469 167.667969 250.410156 169 245.726562 170.355469 C 244.347656 170.753906 243.042969 170.847656 241.789062 170.289062 C 237.980469 168.589844 234.402344 166.515625 231.40625 163.308594 C 230.605469 159.589844 229.765625 155.78125 228.984375 151.960938 C 228.867188 151.386719 228.867188 150.707031 229.050781 150.160156 C 229.566406 148.621094 229.410156 147.054688 229.441406 145.488281 C 229.46875 144.019531 229.589844 142.550781 229.566406 141.082031 C 229.558594 140.363281 229.53125 139.496094 229.148438 138.964844 C 227.851562 137.167969 227.773438 135.074219 227.570312 133.050781 C 226.921875 126.617188 226.414062 120.171875 226.191406 113.699219 C 226.144531 112.371094 225.820312 111.046875 225.566406 109.730469 C 224.796875 105.785156 224.011719 101.839844 223.210938 97.898438 C 222.722656 95.5 222.644531 93.0625 222.492188 90.632812 C 222.234375 86.492188 221.929688 82.355469 221.625 77.980469 C 223.109375 74.378906 225.84375 71.417969 228.746094 68.40625 C 229.464844 67.945312 230.363281 67.734375 231.390625 67.753906 C 235.175781 67.828125 238.964844 67.875 242.75 67.828125 C 245.429688 67.792969 248.109375 67.648438 250.75 67.101562 C 254.570312 66.3125 258.394531 65.519531 262.230469 64.820312 C 263.78125 64.539062 265.378906 64.46875 266.957031 64.371094 C 270.730469 64.140625 274.503906 63.949219 278.257812 63.742188 C 279.046875 63.328125 279.796875 62.933594 280.425781 62.605469 C 285.269531 62.390625 289.464844 63.90625 293.335938 66.164062 C 294.808594 68.007812 294.476562 70.238281 295.089844 72.207031 C 295.703125 74.179688 296.0625 76.226562 296.382812 77.589844 C 296.117188 81.488281 294.691406 84.324219 293.316406 87.304688 C 291.136719 88.605469 288.496094 88.675781 285.984375 89.601562 C 282.570312 88.523438 279.035156 89.351562 275.519531 89.582031 C 270.535156 89.910156 265.570312 90.492188 260.597656 90.984375 C 257.457031 91.296875 254.324219 91.640625 251.039062 91.984375 C 251.050781 92.695312 250.878906 93.363281 251.097656 93.859375 C 252.324219 96.648438 253.644531 99.390625 254.921875 102.136719 C 255.402344 102.214844 255.769531 102.378906 256.09375 102.316406 C 265.183594 100.511719 274.277344 98.726562 283.351562 96.835938 C 285.917969 96.300781 288.417969 96.046875 291.40625 97.039062 C 292.859375 97.902344 294.738281 99.019531 296.4375 100.027344 C 297.117188 101.09375 297.269531 102.042969 297.234375 103.042969 C 297.121094 106.59375 297.300781 110.210938 296.230469 113.621094 C 295.328125 116.492188 294.84375 119.578125 292.84375 122.253906 C 289.960938 122.84375 286.988281 123.457031 284.015625 124.0625 C 283.777344 124.109375 283.507812 124.039062 283.285156 124.117188 C 279.199219 125.503906 275.074219 125.050781 270.933594 124.464844 C 267.78125 124.019531 264.617188 123.671875 261.636719 123.304688 C 260.558594 123.65625 260.140625 124.378906 259.710938 125.144531 C 257.707031 128.683594 257.359375 132.515625 257.394531 136.542969 C 258.082031 136.847656 258.601562 137.242188 259.160156 137.304688 C 262.5625 137.699219 265.972656 138.050781 269.390625 138.332031 C 270.214844 138.402344 271.074219 138.195312 271.902344 138.035156 C 280.636719 136.324219 289.386719 134.6875 298.085938 132.816406 C 300.582031 132.277344 302.652344 132.472656 304.878906 134.460938 M 252.402344 152.957031 C 252.921875 153.671875 253.378906 154.355469 253.890625 154.988281 C 254.3125 155.511719 254.84375 155.664062 255.417969 155.203125 C 256.308594 151.746094 256.398438 150.742188 256.0625 147.332031 C 254.480469 149.214844 253.527344 151.121094 252.402344 152.957031 M 273.917969 150.804688 C 272.847656 150.605469 272.148438 150.363281 271.449219 150.371094 C 270.613281 150.382812 270.050781 149.261719 268.679688 150.132812 C 269.292969 151.433594 269.144531 153.152344 271.019531 154.113281 C 272.160156 153.304688 273.699219 152.976562 273.917969 150.804688 M 239.226562 97.027344 C 240.714844 97.1875 240.519531 95.738281 241.234375 95.203125 C 241.328125 94.046875 241.6875 92.886719 241.394531 91.761719 C 241.050781 91.648438 240.839844 91.582031 240.46875 91.457031 C 239.835938 93.261719 238.457031 94.878906 239.226562 97.027344 M 269.675781 74.058594 C 270.820312 75.867188 272.125 77.023438 274.027344 77.359375 C 274.128906 77.378906 274.285156 77.097656 274.433594 76.9375 C 273.558594 75.230469 272.105469 74.230469 270.449219 73.46875 C 270.253906 73.617188 270.074219 73.753906 269.675781 74.058594 M 237.800781 141.054688 C 238.109375 142.746094 239.539062 143.226562 240.800781 143.832031 C 241.238281 144.042969 241.738281 143.917969 241.960938 143.355469 C 240.882812 141.277344 239.703125 140.601562 237.800781 141.054688 M 239.519531 128.972656 C 239.296875 129.25 239.15625 129.425781 238.917969 129.71875 C 239.464844 130.667969 240.042969 131.671875 240.597656 132.628906 C 241.238281 132.753906 241.84375 133.066406 242.253906 132.117188 C 241.992188 131.480469 241.683594 130.734375 241.421875 130.097656 C 240.699219 129.671875 240.101562 129.316406 239.519531 128.972656 M 245.019531 114.023438 C 244.460938 114.011719 244 114 243.570312 113.988281 C 243.113281 115.917969 243.113281 115.917969 244.828125 116.734375 C 245.511719 116.027344 245.503906 115.230469 245.019531 114.023438 M 282.183594 147.335938 C 281.539062 148.382812 281.039062 149.042969 280.714844 149.777344 C 280.480469 150.308594 280.453125 150.949219 281.269531 151.132812 C 283.125 149.058594 283.125 149.058594 282.183594 147.335938 M 237.84375 107.328125 C 238.523438 108.644531 239.203125 109.371094 240.4375 108.828125 C 240.945312 108.242188 241.046875 107.71875 240.558594 107.109375 C 239.738281 106.738281 238.886719 106.46875 237.84375 107.328125 M 236.539062 110.449219 C 235.652344 111.421875 236.203125 112.199219 236.898438 112.925781 C 237.035156 113.070312 237.316406 113.078125 237.53125 113.148438 C 238.4375 112.785156 238.335938 112.101562 238.054688 111.261719 C 237.609375 111.023438 237.085938 110.742188 236.539062 110.449219 M 245.972656 156.59375 C 245.238281 156.105469 244.566406 155.65625 243.839844 155.171875 C 243.554688 155.472656 243.339844 155.699219 242.992188 156.070312 C 243.851562 156.644531 244.59375 157.144531 245.417969 157.695312 C 245.652344 157.230469 245.796875 156.9375 245.972656 156.59375 M 244.265625 132.46875 C 243.375 133.121094 243.375 133.121094 243.0625 134.007812 C 243.734375 134.691406 244.390625 134.855469 245.15625 133.8125 C 244.867188 133.375 244.566406 132.925781 244.265625 132.46875 M 251.921875 144.019531 C 252.042969 143.753906 252.179688 143.460938 252.292969 143.207031 C 251.746094 142.46875 251.140625 142.347656 250.421875 142.785156 C 250.617188 143.523438 250.996094 144.046875 251.921875 144.019531 "/>
<path style=" stroke:none;fill-rule:nonzero;fill:rgb(79.998779%,100%,0%);fill-opacity:1;" d="M 504.324219 36.542969 C 505.703125 35.171875 507.222656 34.929688 508.84375 34.734375 C 516.101562 33.863281 523.347656 32.890625 530.828125 31.929688 C 536.980469 32.910156 543.375 33.929688 549.933594 34.976562 C 555.296875 37.898438 560.167969 41.714844 564.507812 46.3125 C 565.992188 52.578125 567.480469 58.851562 568.957031 65.128906 C 569.535156 67.601562 568.976562 70.050781 568.367188 72.390625 C 567.324219 76.390625 566.238281 80.402344 564.53125 84.199219 C 564.136719 85.078125 563.757812 86.03125 563.128906 86.730469 C 559.375 90.914062 555.539062 95.027344 551.300781 98.738281 C 551.023438 98.980469 550.714844 99.183594 550.425781 99.398438 C 544.066406 100.578125 537.71875 101.792969 531.355469 102.90625 C 530.054688 103.132812 528.675781 103.046875 527.34375 102.957031 C 524.792969 102.785156 522.246094 102.507812 519.761719 102.277344 C 518.90625 104.238281 517.925781 109.066406 517.523438 113.125 C 518.253906 115.246094 520.296875 116.5 521.289062 118.625 C 521.066406 122.941406 519.902344 127.167969 518.738281 131.304688 C 517.421875 132.816406 515.765625 133.640625 514.1875 134.574219 C 512.722656 135.445312 511.277344 136.355469 509.683594 137.335938 C 506.398438 137.484375 502.984375 137.816406 499.582031 137.730469 C 497.671875 137.683594 495.765625 136.996094 493.878906 136.507812 C 492.828125 136.234375 491.820312 135.78125 490.765625 135.398438 C 489.292969 133.054688 488.8125 130.460938 488.964844 127.730469 C 489.144531 124.542969 488.953125 121.394531 488.375 118.246094 C 487.980469 116.089844 487.734375 113.898438 487.550781 111.714844 C 487.292969 108.652344 486.808594 105.664062 485.382812 102.964844 C 485.960938 99.691406 485.828125 96.53125 485.328125 93.371094 C 485.042969 91.566406 484.832031 89.746094 484.59375 87.949219 C 485.082031 86.535156 485.5 85.195312 484.949219 83.664062 C 483.503906 79.617188 482.890625 75.382812 482.363281 71.140625 C 481.746094 66.171875 481.238281 61.191406 480.542969 56.234375 C 480.34375 54.824219 479.664062 53.476562 478.933594 52.160156 C 478.863281 48.871094 478.796875 45.582031 478.734375 42.53125 C 480.03125 40.164062 482.050781 38.921875 483.816406 37.441406 C 484.675781 36.722656 485.769531 36.558594 486.914062 36.480469 C 490.828125 36.222656 494.730469 36.332031 498.640625 36.597656 C 500.457031 36.71875 502.292969 36.570312 504.324219 36.542969 M 546.71875 84.753906 C 546.839844 84.960938 546.714844 85.558594 547.253906 85.085938 C 547.085938 84.96875 546.914062 84.851562 546.746094 84.734375 C 547.136719 83.402344 546.726562 82.371094 545.5 81.75 C 544.980469 81.484375 544.351562 81.382812 544.042969 82.402344 C 544.726562 83.3125 545.125 84.648438 546.71875 84.753906 M 537.746094 60.863281 C 535.6875 59.371094 533.574219 58.910156 531.324219 58.988281 C 529.867188 59.039062 528.40625 59.191406 526.945312 59.226562 C 522.074219 59.34375 517.199219 59.429688 512.324219 59.523438 C 511.53125 59.539062 510.894531 59.796875 510.46875 60.773438 C 510.8125 66.039062 511.167969 71.503906 511.515625 76.855469 C 512.546875 78.113281 513.320312 79.378906 514.609375 80.132812 C 515.625 80.226562 516.601562 80.375 517.578125 80.386719 C 518.296875 80.394531 519.191406 80.464844 519.703125 80.089844 C 521.257812 78.957031 523.207031 79.09375 524.816406 78.300781 C 527.257812 77.105469 529.878906 76.625 532.460938 75.933594 C 533.484375 75.65625 534.683594 75.664062 535.480469 74.640625 C 536.820312 70.242188 537.636719 65.695312 537.746094 60.863281 M 496.824219 81.175781 C 499.882812 84.496094 502.132812 88.4375 506.085938 91.0625 C 506.164062 90.578125 506.34375 90.203125 506.253906 89.917969 C 505.707031 88.183594 505.101562 86.472656 504.507812 84.753906 C 503.867188 82.90625 503.449219 81.027344 504.015625 79.09375 C 504.285156 78.167969 503.898438 77.445312 503.53125 76.613281 C 502.539062 76.058594 501.597656 75.226562 500.132812 75.488281 C 499.078125 77.300781 497.992188 79.164062 496.824219 81.175781 M 553.136719 67.566406 C 554.480469 66.105469 555.617188 64.871094 556.734375 63.65625 C 555.265625 60.824219 553.824219 58.15625 552.488281 55.441406 C 551.726562 53.878906 550.667969 52.578125 549.480469 51.273438 C 548.894531 53.074219 548.894531 53.074219 551.792969 61.28125 C 551.425781 63.152344 549.734375 64.617188 550.050781 66.910156 C 550.984375 67.109375 551.902344 67.304688 553.136719 67.566406 M 496.941406 58.492188 C 497.722656 58.582031 498.433594 58.710938 499.148438 58.738281 C 499.96875 58.769531 500.792969 58.707031 501.636719 58.6875 C 501.984375 57.078125 502.222656 55.660156 502.007812 54.152344 C 501.59375 53.859375 501.222656 53.597656 500.714844 53.242188 C 499.402344 54.660156 498.160156 55.964844 496.980469 57.320312 C 496.816406 57.515625 496.949219 57.96875 496.941406 58.492188 M 503.394531 104.96875 C 502.695312 105.644531 502.285156 105.847656 502.210938 106.140625 C 501.703125 108.121094 501.261719 110.117188 500.800781 112.113281 C 500.566406 113.132812 501.054688 113.996094 501.46875 114.992188 C 503.5625 112.085938 503.121094 108.792969 503.394531 104.96875 M 512.105469 96.28125 C 514.042969 95.777344 514.773438 94.28125 515.730469 92.730469 C 515.074219 92.320312 514.511719 91.925781 513.910156 91.609375 C 513.390625 91.335938 512.816406 91.105469 512.15625 91.804688 C 512.023438 93.144531 511.605469 94.625 512.105469 96.28125 M 547.988281 75.382812 C 549.925781 75.226562 551.507812 74.578125 552.9375 72.859375 C 551.210938 72.570312 549.738281 72.285156 548.367188 72.449219 C 547.660156 73.367188 547.460938 74.125 547.988281 75.382812 M 538.929688 48.855469 C 540.183594 49.628906 541.378906 50.367188 542.511719 51.066406 C 543.371094 50.445312 543.140625 49.839844 542.65625 49.46875 C 541.636719 48.691406 540.523438 48.035156 539.234375 47.1875 C 539.105469 47.882812 539.027344 48.320312 538.929688 48.855469 M 493.425781 54.804688 C 494.109375 54.617188 494.425781 54.53125 494.859375 54.414062 C 494.804688 53.820312 494.757812 53.277344 494.695312 52.621094 C 494.183594 52.773438 493.875 52.863281 493.488281 52.976562 C 493.46875 53.464844 493.457031 53.910156 493.425781 54.804688 M 516.207031 47.367188 C 514.628906 47.121094 514.628906 47.121094 514.023438 47.925781 C 514.847656 48.4375 514.847656 48.4375 516.207031 47.367188 M 516.601562 46.410156 C 516.691406 46.34375 516.839844 46.289062 516.855469 46.210938 C 516.867188 46.132812 516.746094 46.03125 516.683594 45.941406 C 516.59375 46.007812 516.453125 46.0625 516.4375 46.140625 C 516.421875 46.21875 516.542969 46.320312 516.601562 46.410156 "/>
<path style=" stroke:none;fill-rule:nonzero;fill:rgb(79.998779%,100%,0%);fill-opacity:1;" d="M 453.296875 46.035156 C 456.699219 45.644531 459.503906 44.105469 462.796875 44.378906 C 466.039062 46.390625 467.101562 50.066406 469.074219 53.070312 C 468.847656 55.34375 467.640625 57.066406 466.15625 58.507812 C 464.273438 60.335938 463.015625 62.523438 461.792969 64.78125 C 460.910156 66.410156 460.820312 67.960938 461.59375 69.683594 C 462.496094 71.679688 463.199219 73.765625 463.980469 75.789062 C 462.761719 77.507812 461.285156 78.726562 459.558594 79.6875 C 457.640625 80.75 455.75 81.859375 453.863281 82.941406 C 451.902344 82.710938 450.335938 81.753906 448.792969 80.804688 C 446.644531 79.488281 444.386719 78.738281 441.5625 79.027344 C 438.828125 81.6875 436.074219 84.652344 432.480469 86.855469 C 431.847656 86.613281 431.082031 86.5 430.546875 86.089844 C 428.007812 84.136719 425.90625 81.765625 424.105469 78.855469 C 425.40625 75.480469 426.757812 71.984375 428.15625 68.351562 C 427.449219 67.863281 426.925781 67.351562 426.296875 67.085938 C 423.828125 66.046875 421.320312 65.101562 418.839844 64.089844 C 416.890625 63.292969 415.226562 62.082031 413.726562 60.347656 C 414.003906 57.382812 414.335938 54.363281 414.664062 51.476562 C 417.53125 49.511719 420.589844 48.699219 423.660156 47.832031 C 426.492188 49.25 429.390625 50.492188 432.78125 50.714844 C 432.949219 50.113281 433.1875 49.558594 433.242188 48.988281 C 433.472656 46.550781 433.628906 44.105469 433.847656 41.667969 C 434.070312 39.199219 434.957031 36.933594 436.046875 34.742188 C 436.253906 34.324219 436.613281 33.988281 436.925781 33.582031 C 440.382812 34.117188 443.132812 35.855469 445.675781 37.949219 C 447.082031 39.105469 448.277344 40.492188 449.054688 42.175781 C 449.925781 44.0625 451.535156 45.105469 453.296875 46.035156 M 449.128906 61.441406 C 449.230469 61.761719 449.328125 62.078125 449.46875 62.523438 C 450.050781 62.480469 450.597656 62.441406 451.191406 62.398438 C 450.714844 60.992188 450.714844 60.992188 449.128906 61.441406 "/>
</g>
</svg>
