<?xml version="1.0" encoding="UTF-8"?>
<svg xmlns="http://www.w3.org/2000/svg" xmlns:xlink="http://www.w3.org/1999/xlink" width="787.5pt" height="149.999998pt" viewBox="0 0 787.5 149.999998" version="1.2">
<defs>
<clipPath id="clip1">
  <path d="M 20 31 L 144 31 L 144 130 L 20 130 Z M 20 31 "/>
</clipPath>
<clipPath id="clip2">
  <path d="M 20.644531 -104.585938 L 799.683594 -6.015625 L 766.730469 254.410156 L -12.308594 155.835938 Z M 20.644531 -104.585938 "/>
</clipPath>
<clipPath id="clip3">
  <path d="M 20.71875 -105.191406 L 799.757812 -6.621094 L 766.621094 255.289062 L -12.417969 156.71875 Z M 20.71875 -105.191406 "/>
</clipPath>
<clipPath id="clip4">
  <path d="M 20.71875 -105.191406 L 799.609375 -6.640625 L 766.464844 255.292969 L -12.421875 156.742188 Z M 20.71875 -105.191406 "/>
</clipPath>
<clipPath id="clip5">
  <path d="M 21.410156 -105.105469 L 799.019531 -6.714844 L 765.8125 255.714844 L -11.792969 157.324219 Z M 21.410156 -105.105469 "/>
</clipPath>
<clipPath id="clip6">
  <path d="M 21.410156 -105.105469 L 798.917969 -6.726562 L 765.773438 255.207031 L -11.730469 156.828125 Z M 21.410156 -105.105469 "/>
</clipPath>
<clipPath id="clip7">
  <path d="M 576 29 L 664 29 L 664 129 L 576 129 Z M 576 29 "/>
</clipPath>
<clipPath id="clip8">
  <path d="M 20.644531 -104.585938 L 799.683594 -6.015625 L 766.730469 254.410156 L -12.308594 155.835938 Z M 20.644531 -104.585938 "/>
</clipPath>
<clipPath id="clip9">
  <path d="M 20.71875 -105.191406 L 799.757812 -6.621094 L 766.621094 255.289062 L -12.417969 156.71875 Z M 20.71875 -105.191406 "/>
</clipPath>
<clipPath id="clip10">
  <path d="M 20.71875 -105.191406 L 799.609375 -6.640625 L 766.464844 255.292969 L -12.421875 156.742188 Z M 20.71875 -105.191406 "/>
</clipPath>
<clipPath id="clip11">
  <path d="M 21.410156 -105.105469 L 799.019531 -6.714844 L 765.8125 255.714844 L -11.792969 157.324219 Z M 21.410156 -105.105469 "/>
</clipPath>
<clipPath id="clip12">
  <path d="M 21.410156 -105.105469 L 798.917969 -6.726562 L 765.773438 255.207031 L -11.730469 156.828125 Z M 21.410156 -105.105469 "/>
</clipPath>
<clipPath id="clip13">
  <path d="M 318 30 L 407 30 L 407 128 L 318 128 Z M 318 30 "/>
</clipPath>
<clipPath id="clip14">
  <path d="M 20.644531 -104.585938 L 799.683594 -6.015625 L 766.730469 254.410156 L -12.308594 155.835938 Z M 20.644531 -104.585938 "/>
</clipPath>
<clipPath id="clip15">
  <path d="M 20.71875 -105.191406 L 799.757812 -6.621094 L 766.621094 255.289062 L -12.417969 156.71875 Z M 20.71875 -105.191406 "/>
</clipPath>
<clipPath id="clip16">
  <path d="M 20.71875 -105.191406 L 799.609375 -6.640625 L 766.464844 255.292969 L -12.421875 156.742188 Z M 20.71875 -105.191406 "/>
</clipPath>
<clipPath id="clip17">
  <path d="M 21.410156 -105.105469 L 799.019531 -6.714844 L 765.8125 255.714844 L -11.792969 157.324219 Z M 21.410156 -105.105469 "/>
</clipPath>
<clipPath id="clip18">
  <path d="M 21.410156 -105.105469 L 798.917969 -6.726562 L 765.773438 255.207031 L -11.730469 156.828125 Z M 21.410156 -105.105469 "/>
</clipPath>
<clipPath id="clip19">
  <path d="M 675 29 L 768 29 L 768 129 L 675 129 Z M 675 29 "/>
</clipPath>
<clipPath id="clip20">
  <path d="M 20.644531 -104.585938 L 799.683594 -6.015625 L 766.730469 254.410156 L -12.308594 155.835938 Z M 20.644531 -104.585938 "/>
</clipPath>
<clipPath id="clip21">
  <path d="M 20.71875 -105.191406 L 799.757812 -6.621094 L 766.621094 255.289062 L -12.417969 156.71875 Z M 20.71875 -105.191406 "/>
</clipPath>
<clipPath id="clip22">
  <path d="M 20.71875 -105.191406 L 799.609375 -6.640625 L 766.464844 255.292969 L -12.421875 156.742188 Z M 20.71875 -105.191406 "/>
</clipPath>
<clipPath id="clip23">
  <path d="M 21.410156 -105.105469 L 799.019531 -6.714844 L 765.8125 255.714844 L -11.792969 157.324219 Z M 21.410156 -105.105469 "/>
</clipPath>
<clipPath id="clip24">
  <path d="M 21.410156 -105.105469 L 798.917969 -6.726562 L 765.773438 255.207031 L -11.730469 156.828125 Z M 21.410156 -105.105469 "/>
</clipPath>
<clipPath id="clip25">
  <path d="M 143 30 L 219 30 L 219 130 L 143 130 Z M 143 30 "/>
</clipPath>
<clipPath id="clip26">
  <path d="M 20.644531 -104.585938 L 799.683594 -6.015625 L 766.730469 254.410156 L -12.308594 155.835938 Z M 20.644531 -104.585938 "/>
</clipPath>
<clipPath id="clip27">
  <path d="M 20.71875 -105.191406 L 799.757812 -6.621094 L 766.621094 255.289062 L -12.417969 156.71875 Z M 20.71875 -105.191406 "/>
</clipPath>
<clipPath id="clip28">
  <path d="M 20.71875 -105.191406 L 799.609375 -6.640625 L 766.464844 255.292969 L -12.421875 156.742188 Z M 20.71875 -105.191406 "/>
</clipPath>
<clipPath id="clip29">
  <path d="M 21.410156 -105.105469 L 799.019531 -6.714844 L 765.8125 255.714844 L -11.792969 157.324219 Z M 21.410156 -105.105469 "/>
</clipPath>
<clipPath id="clip30">
  <path d="M 21.410156 -105.105469 L 798.917969 -6.726562 L 765.773438 255.207031 L -11.730469 156.828125 Z M 21.410156 -105.105469 "/>
</clipPath>
<clipPath id="clip31">
  <path d="M 230 29 L 307 29 L 307 130 L 230 130 Z M 230 29 "/>
</clipPath>
<clipPath id="clip32">
  <path d="M 20.644531 -104.585938 L 799.683594 -6.015625 L 766.730469 254.410156 L -12.308594 155.835938 Z M 20.644531 -104.585938 "/>
</clipPath>
<clipPath id="clip33">
  <path d="M 20.71875 -105.191406 L 799.757812 -6.621094 L 766.621094 255.289062 L -12.417969 156.71875 Z M 20.71875 -105.191406 "/>
</clipPath>
<clipPath id="clip34">
  <path d="M 20.71875 -105.191406 L 799.609375 -6.640625 L 766.464844 255.292969 L -12.421875 156.742188 Z M 20.71875 -105.191406 "/>
</clipPath>
<clipPath id="clip35">
  <path d="M 21.410156 -105.105469 L 799.019531 -6.714844 L 765.8125 255.714844 L -11.792969 157.324219 Z M 21.410156 -105.105469 "/>
</clipPath>
<clipPath id="clip36">
  <path d="M 21.410156 -105.105469 L 798.917969 -6.726562 L 765.773438 255.207031 L -11.730469 156.828125 Z M 21.410156 -105.105469 "/>
</clipPath>
<clipPath id="clip37">
  <path d="M 479 30 L 564 30 L 564 130 L 479 130 Z M 479 30 "/>
</clipPath>
<clipPath id="clip38">
  <path d="M 20.644531 -104.585938 L 799.683594 -6.015625 L 766.730469 254.410156 L -12.308594 155.835938 Z M 20.644531 -104.585938 "/>
</clipPath>
<clipPath id="clip39">
  <path d="M 20.71875 -105.191406 L 799.757812 -6.621094 L 766.621094 255.289062 L -12.417969 156.71875 Z M 20.71875 -105.191406 "/>
</clipPath>
<clipPath id="clip40">
  <path d="M 20.71875 -105.191406 L 799.609375 -6.640625 L 766.464844 255.292969 L -12.421875 156.742188 Z M 20.71875 -105.191406 "/>
</clipPath>
<clipPath id="clip41">
  <path d="M 21.410156 -105.105469 L 799.019531 -6.714844 L 765.8125 255.714844 L -11.792969 157.324219 Z M 21.410156 -105.105469 "/>
</clipPath>
<clipPath id="clip42">
  <path d="M 21.410156 -105.105469 L 798.917969 -6.726562 L 765.773438 255.207031 L -11.730469 156.828125 Z M 21.410156 -105.105469 "/>
</clipPath>
<clipPath id="clip43">
  <path d="M 416 22 L 470 22 L 470 73 L 416 73 Z M 416 22 "/>
</clipPath>
<clipPath id="clip44">
  <path d="M 20.644531 -104.585938 L 799.683594 -6.015625 L 766.730469 254.410156 L -12.308594 155.835938 Z M 20.644531 -104.585938 "/>
</clipPath>
<clipPath id="clip45">
  <path d="M 20.71875 -105.191406 L 799.757812 -6.621094 L 766.621094 255.289062 L -12.417969 156.71875 Z M 20.71875 -105.191406 "/>
</clipPath>
<clipPath id="clip46">
  <path d="M 20.71875 -105.191406 L 799.609375 -6.640625 L 766.464844 255.292969 L -12.421875 156.742188 Z M 20.71875 -105.191406 "/>
</clipPath>
<clipPath id="clip47">
  <path d="M 21.410156 -105.105469 L 799.019531 -6.714844 L 765.8125 255.714844 L -11.792969 157.324219 Z M 21.410156 -105.105469 "/>
</clipPath>
<clipPath id="clip48">
  <path d="M 21.410156 -105.105469 L 798.917969 -6.726562 L 765.773438 255.207031 L -11.730469 156.828125 Z M 21.410156 -105.105469 "/>
</clipPath>
</defs>
<g id="surface1">
<g clip-path="url(#clip1)" clip-rule="nonzero">
<g clip-path="url(#clip2)" clip-rule="nonzero">
<g clip-path="url(#clip3)" clip-rule="nonzero">
<g clip-path="url(#clip4)" clip-rule="nonzero">
<g clip-path="url(#clip5)" clip-rule="nonzero">
<g clip-path="url(#clip6)" clip-rule="nonzero">
<path style=" stroke:none;fill-rule:nonzero;fill:rgb(69.018555%,82.348633%,20.779419%);fill-opacity:1;" d="M 116.9375 128.328125 C 113.710938 128.359375 110.683594 128.414062 107.65625 128.40625 C 106.144531 128.402344 104.582031 128.5 103.128906 128.171875 C 100.859375 127.664062 98.636719 126.894531 96.441406 126.109375 C 95.339844 125.714844 94.480469 124.917969 93.863281 123.847656 C 92.210938 120.992188 90.917969 117.976562 90.210938 114.773438 C 88.691406 107.9375 87.339844 101.0625 85.894531 94.207031 C 85.171875 90.777344 84.378906 87.367188 83.664062 83.9375 C 83.40625 82.683594 83.203125 81.410156 83.101562 80.140625 C 82.808594 76.3125 82.589844 72.476562 82.308594 68.648438 C 82.25 67.871094 82.027344 67.101562 81.820312 66.019531 C 80.828125 67.28125 80.042969 68.285156 79.320312 69.203125 C 79.066406 70.351562 78.894531 71.394531 78.601562 72.402344 C 78.023438 74.40625 78.042969 76.332031 79.277344 78.179688 C 79.125 79.34375 79.042969 80.511719 78.816406 81.652344 C 77.335938 89.109375 75.839844 96.566406 74.320312 104.015625 C 73.640625 107.34375 72.886719 110.65625 72.164062 113.976562 C 71.761719 115.808594 71.4375 117.660156 70.921875 119.457031 C 70.40625 121.25 69.699219 122.984375 69.027344 124.875 C 67.421875 125.953125 65.425781 126.242188 63.558594 126.832031 C 61.105469 127.605469 58.582031 128.140625 56.132812 128.917969 C 54.746094 129.359375 53.359375 129.351562 51.988281 129.207031 C 50.015625 129 48.0625 128.574219 46.132812 128.246094 C 44.230469 126.1875 42.917969 123.855469 41.753906 121.445312 C 40.335938 118.503906 39.082031 115.480469 37.609375 112.566406 C 36.804688 110.976562 36.265625 109.328125 35.957031 107.609375 C 35.542969 105.316406 35.203125 103.003906 34.941406 100.691406 C 34.753906 99.039062 34.324219 97.503906 33.609375 96.003906 C 32.507812 93.6875 31.519531 91.316406 30.484375 88.972656 C 30.816406 88.128906 31.109375 87.375 31.503906 86.355469 C 31.222656 85.347656 30.886719 84.117188 30.535156 82.890625 C 29.019531 77.625 27.453125 72.378906 26.011719 67.09375 C 25.429688 64.960938 25.175781 62.742188 24.691406 60.578125 C 23.644531 55.90625 22.640625 51.222656 21.417969 46.597656 C 20.90625 44.65625 20.480469 42.777344 20.558594 40.765625 C 20.605469 39.492188 20.417969 38.210938 20.328125 36.773438 C 22.144531 34.746094 24.269531 32.972656 26.460938 31.316406 C 30.851562 31.253906 35.152344 31.179688 39.453125 31.140625 C 40.273438 31.132812 41.011719 31.445312 41.757812 31.859375 C 44.152344 33.1875 46.054688 35.050781 48.015625 37.347656 C 48.195312 38.449219 48.414062 39.824219 48.640625 41.199219 C 48.738281 41.777344 48.769531 42.375 48.964844 42.917969 C 50.605469 47.554688 50.1875 52.367188 50.152344 57.132812 C 50.132812 59.839844 50.347656 62.460938 51.03125 65.09375 C 52.558594 70.960938 53.925781 76.871094 55.332031 82.652344 C 54.925781 85.753906 53.929688 88.625 53.566406 91.734375 C 55.796875 91.589844 57.050781 90.246094 58.550781 89.414062 C 59.285156 89.007812 59.953125 88.554688 60.253906 87.402344 C 59.886719 86.074219 59.472656 84.5 59.011719 82.933594 C 58.503906 81.210938 58.515625 79.53125 58.90625 77.753906 C 60.972656 68.371094 62.890625 58.957031 64.980469 49.582031 C 65.773438 46.023438 65.9375 42.417969 66.269531 38.816406 C 66.367188 37.777344 66.460938 36.738281 66.566406 35.59375 C 69.117188 33.527344 72.039062 32.488281 75.242188 32.402344 C 77.09375 32.351562 78.953125 32.699219 80.8125 32.863281 C 81.855469 32.953125 82.902344 33.066406 83.949219 33.117188 C 87.25 33.269531 90.328125 34.363281 93.457031 36.5625 C 95.226562 40.148438 96.378906 44.023438 97.03125 48.097656 C 97.902344 53.507812 99.007812 58.878906 99.984375 64.273438 C 100.960938 69.664062 101.902344 75.0625 102.871094 80.457031 C 103.054688 81.492188 103.1875 82.558594 103.523438 83.546875 C 104.042969 85.058594 103.730469 86.285156 102.628906 87.386719 C 102.476562 87.535156 102.4375 87.800781 102.304688 88.105469 C 102.914062 90.757812 104.617188 92.742188 106.726562 94.632812 C 108.902344 92.660156 109.246094 89.972656 109.890625 87.355469 C 109.425781 85.582031 108.910156 83.785156 108.492188 81.964844 C 107.992188 79.789062 108.019531 77.59375 108.210938 75.363281 C 108.671875 70.015625 109.648438 64.726562 109.855469 59.347656 C 109.949219 56.90625 110.585938 54.507812 110.71875 52.042969 C 110.875 49.132812 111.398438 46.246094 111.695312 43.339844 C 112 40.351562 113.023438 37.671875 114.84375 35.28125 C 115.476562 34.449219 116.042969 33.566406 116.554688 32.832031 C 119.191406 31.957031 123.105469 31.5 130.734375 31.15625 C 133.628906 32.457031 136.699219 33.839844 139.902344 35.28125 C 140.402344 36.105469 140.953125 36.996094 141.488281 37.894531 C 142.019531 38.789062 142.535156 39.695312 143.066406 40.609375 C 141.347656 43.445312 140.457031 46.4375 139.6875 49.511719 C 138.070312 55.976562 136.480469 62.460938 134.550781 68.835938 C 133.023438 73.886719 131.902344 79.027344 130.558594 84.113281 C 129.398438 88.519531 128.226562 92.929688 126.933594 97.300781 C 126.441406 98.964844 125.617188 100.53125 124.929688 102.132812 C 124.105469 104.058594 123.265625 105.976562 122.539062 107.65625 C 122.851562 110.035156 123.058594 112.128906 123.417969 114.191406 C 123.695312 115.777344 123.433594 117.3125 122.734375 118.628906 C 121.050781 121.816406 119.144531 124.890625 117.324219 128.007812 C 117.269531 128.097656 117.148438 128.15625 116.9375 128.328125 M 89.355469 53.097656 C 85.863281 51.148438 82.617188 49.558594 79.816406 47.246094 C 79.609375 47.070312 79.183594 47.15625 78.695312 47.101562 C 77.6875 50.089844 76.03125 52.765625 75.082031 55.828125 C 76.515625 57.214844 77.953125 58.246094 79.835938 58.535156 C 80.949219 57.359375 80.320312 55.609375 81.628906 54.523438 C 83.644531 54.886719 85.242188 56.464844 87.449219 56.976562 C 88.03125 55.785156 88.636719 54.558594 89.355469 53.097656 M 103.722656 110.5625 C 102.960938 112.203125 102.367188 113.441406 101.808594 114.695312 C 101.71875 114.890625 101.773438 115.148438 101.753906 115.535156 C 101.996094 115.886719 102.3125 116.34375 102.628906 116.796875 C 104.746094 116.230469 105.558594 114.457031 106.882812 113.339844 C 106.386719 111.738281 105.109375 111.421875 103.722656 110.5625 M 52.367188 100.972656 C 53.472656 103.351562 55.234375 104.640625 57.125 105.804688 C 57.636719 106.121094 58.132812 106.363281 58.726562 106.042969 C 58.5 104.710938 58.503906 104.707031 56.8125 103.042969 C 55.644531 101.894531 54.410156 100.859375 52.367188 100.972656 M 37.886719 72.570312 C 38.550781 70.335938 38.433594 68.507812 38.679688 66.738281 C 38.699219 66.585938 38.433594 66.390625 38.191406 66.074219 C 37.507812 66.222656 36.75 66.386719 36.046875 66.539062 C 35.675781 69.085938 35.804688 69.542969 37.886719 72.570312 M 119.15625 78.238281 C 119.597656 79.125 119.871094 80.175781 121.074219 80.527344 C 121.660156 79.984375 121.832031 79.34375 121.460938 78.671875 C 121.089844 77.992188 120.847656 77.15625 119.976562 76.910156 C 119.152344 77.023438 119.226562 77.664062 119.15625 78.238281 M 39.59375 50.285156 C 38.503906 48.566406 38.492188 48.578125 37.871094 48.53125 C 36.730469 49.519531 36.539062 50.113281 37.078125 51.027344 C 38.019531 51.46875 38.832031 51.382812 39.59375 50.285156 M 94.75 89.820312 C 95.039062 88.386719 95.160156 87.40625 93.757812 86.894531 C 93.4375 87.289062 93.128906 87.621094 92.871094 87.988281 C 92.683594 88.261719 92.554688 88.578125 92.371094 88.925781 C 92.660156 89.171875 92.878906 89.472656 93.167969 89.578125 C 93.570312 89.722656 94.03125 89.722656 94.75 89.820312 M 126.492188 59.339844 C 127.152344 58.5625 127.367188 57.746094 126.925781 56.832031 C 126.371094 56.613281 125.832031 56.316406 125.210938 57.082031 C 125.371094 57.703125 125.566406 58.453125 125.757812 59.179688 C 126.070312 59.246094 126.277344 59.292969 126.492188 59.339844 M 49.09375 92.441406 C 48.804688 93.207031 48.523438 93.851562 49.414062 94.234375 C 50.160156 94.195312 50.667969 93.847656 50.882812 93.121094 C 50.675781 92.21875 50.035156 92.253906 49.09375 92.441406 M 105.734375 101.550781 C 106.046875 100.238281 106.035156 100.246094 104.691406 99.433594 C 104.527344 99.6875 104.363281 99.945312 104.140625 100.292969 C 104.691406 100.730469 105.183594 101.117188 105.734375 101.550781 M 122.460938 66.050781 C 122.761719 66.289062 123.007812 66.480469 123.25 66.671875 C 123.90625 65.890625 123.90625 65.890625 123.039062 65.261719 C 122.855469 65.507812 122.675781 65.757812 122.460938 66.050781 M 42.105469 77.820312 C 42.40625 78.046875 42.648438 78.238281 42.894531 78.425781 C 43.539062 77.648438 43.539062 77.648438 42.671875 77.027344 C 42.496094 77.277344 42.316406 77.523438 42.105469 77.820312 "/>
</g>
</g>
</g>
</g>
</g>
</g>
<g clip-path="url(#clip7)" clip-rule="nonzero">
<g clip-path="url(#clip8)" clip-rule="nonzero">
<g clip-path="url(#clip9)" clip-rule="nonzero">
<g clip-path="url(#clip10)" clip-rule="nonzero">
<g clip-path="url(#clip11)" clip-rule="nonzero">
<g clip-path="url(#clip12)" clip-rule="nonzero">
<path style=" stroke:none;fill-rule:nonzero;fill:rgb(69.018555%,82.348633%,20.779419%);fill-opacity:1;" d="M 577.480469 62.210938 C 577.742188 60.09375 577.988281 57.890625 578.289062 55.695312 C 578.558594 53.714844 578.570312 51.75 578.261719 49.769531 C 577.921875 47.589844 577.6875 45.394531 577.40625 43.167969 C 577.742188 42.640625 578.058594 42.160156 578.367188 41.679688 C 579.242188 40.324219 579.496094 38.9375 578.941406 37.34375 C 578.449219 35.914062 578.171875 34.40625 577.855469 32.921875 C 577.738281 32.371094 577.785156 31.785156 577.75 31.089844 C 578.734375 30.410156 579.683594 29.753906 580.691406 29.054688 C 584.027344 29.257812 587.402344 29.402344 590.761719 29.679688 C 593.675781 29.921875 596.566406 30.105469 599.460938 29.480469 C 600.707031 29.210938 602 29.160156 603.238281 29.019531 C 604.992188 29.710938 606.71875 30.394531 608.625 31.152344 C 611.347656 30.828125 614.242188 30.503906 617.128906 30.125 C 618.320312 29.96875 619.46875 30.058594 620.582031 30.457031 C 622.167969 31.03125 623.78125 30.976562 625.425781 30.847656 C 628.21875 30.625 631.039062 30.640625 633.804688 30.242188 C 635.914062 29.933594 637.769531 30.453125 639.585938 31.238281 C 642.257812 32.394531 644.859375 33.699219 647.488281 34.953125 C 648.007812 35.203125 648.542969 35.457031 649.007812 35.796875 C 651.632812 37.738281 654.234375 39.710938 656.992188 41.777344 C 658.277344 45.15625 659.625 48.625 660.902344 52.121094 C 661.179688 52.871094 661.257812 53.710938 661.351562 54.519531 C 661.734375 57.882812 662.085938 61.25 662.433594 64.449219 C 660.617188 69.421875 658.855469 74.238281 657.089844 79.078125 C 653.367188 82.308594 651.566406 83.554688 647.492188 85.699219 C 646.90625 86.652344 646.238281 87.734375 645.6875 88.628906 C 645.519531 90.496094 647.296875 91.085938 647.609375 92.46875 C 649.953125 95.675781 652.378906 98.824219 654.605469 102.109375 C 655.972656 104.128906 657.15625 106.296875 658.210938 108.5 C 659.824219 111.859375 661.808594 115.066406 662.574219 118.792969 C 662.691406 119.359375 662.996094 119.890625 663.09375 120.460938 C 663.253906 121.367188 663.308594 122.292969 663.429688 123.371094 C 662.523438 124.03125 661.589844 124.710938 660.570312 125.453125 C 656.457031 125.808594 652.292969 126.167969 648.125 126.527344 C 646.601562 126.65625 645.101562 126.496094 643.597656 126.246094 C 641.527344 125.902344 639.441406 125.644531 637.371094 125.3125 C 635.964844 125.085938 634.609375 124.6875 633.707031 123.476562 C 630.921875 119.738281 627.671875 116.34375 625.441406 112.195312 C 624.332031 110.140625 623.132812 108.136719 622.046875 106.070312 C 621.617188 105.253906 621.375 104.335938 621.054688 103.460938 C 620.058594 100.722656 619.078125 97.980469 618.054688 95.253906 C 617.855469 94.71875 617.492188 94.242188 617.1875 93.707031 C 615.101562 93.246094 613.0625 92.796875 610.859375 92.308594 C 609.617188 93.078125 608.34375 93.863281 607.023438 94.679688 C 606.929688 95.601562 606.742188 96.402344 606.792969 97.191406 C 606.980469 100.089844 607.183594 102.996094 607.515625 105.882812 C 607.683594 107.308594 607.726562 108.691406 607.230469 110.027344 C 606.710938 111.421875 606.8125 112.765625 607.234375 114.144531 C 607.710938 115.707031 608.167969 117.273438 608.554688 118.859375 C 608.6875 119.398438 608.585938 120 608.589844 120.425781 C 606.671875 122.898438 604.390625 124.699219 602.125 126.535156 C 601.160156 127.316406 600.148438 127.753906 598.960938 127.867188 C 595.132812 128.226562 591.304688 128.566406 587.539062 128.90625 C 583.859375 126.914062 580.585938 124.519531 577.648438 121.347656 C 577.863281 119.160156 577.996094 116.835938 578.347656 114.546875 C 578.585938 113.003906 578.566406 111.570312 578.113281 110.058594 C 577.675781 108.621094 577.464844 107.097656 577.277344 105.597656 C 576.996094 103.398438 576.871094 101.175781 576.582031 98.976562 C 576.4375 97.890625 576.507812 96.902344 576.988281 95.914062 C 577.238281 95.398438 577.492188 94.839844 577.539062 94.28125 C 577.945312 89.515625 578.433594 84.75 578.636719 79.976562 C 578.792969 76.257812 578.574219 72.523438 578.53125 68.796875 C 578.519531 67.75 578.679688 66.683594 578.527344 65.660156 C 578.375 64.632812 577.933594 63.648438 577.480469 62.210938 M 634.269531 66.488281 C 633.339844 61.804688 631.675781 58.757812 628.195312 55.316406 C 622.351562 53.789062 616.390625 52.0625 610.140625 51.804688 C 609.25 51.769531 608.324219 51.183594 607.339844 51.960938 C 606.675781 55.433594 603.964844 58.242188 603.53125 61.851562 C 604.402344 63.902344 605.203125 65.84375 606.054688 67.761719 C 606.824219 69.5 607.847656 71.039062 609.953125 71.960938 C 613.742188 71.460938 617.769531 70.738281 621.832031 70.445312 C 626.257812 70.125 630.230469 68.660156 634.269531 66.488281 M 647.238281 71.429688 C 647.847656 70.382812 647.945312 69.222656 648.203125 68.117188 C 648.464844 66.988281 648.71875 65.851562 648.90625 64.707031 C 649.089844 63.601562 649.726562 62.519531 649.171875 61.257812 C 647.929688 61.015625 646.710938 60.617188 645.253906 61.109375 C 644.199219 62.421875 642.6875 63.574219 642.316406 65.460938 C 643.6875 67.9375 645.128906 69.691406 647.238281 71.429688 M 601.878906 82.773438 C 600.386719 81.027344 598.671875 80.347656 596.894531 79.5625 C 596.445312 79.898438 595.808594 80.144531 595.5625 80.605469 C 594.84375 81.921875 594.253906 83.316406 593.683594 84.710938 C 593.589844 84.933594 593.859375 85.304688 593.996094 85.722656 C 596.0625 85.039062 598.039062 84.398438 599.996094 83.714844 C 600.539062 83.523438 601.035156 83.199219 601.878906 82.773438 M 594.488281 46.417969 C 592.839844 44.257812 591.390625 42.996094 589.515625 42.273438 C 589.347656 42.207031 589.089844 42.378906 588.648438 42.507812 C 588.496094 42.902344 588.226562 43.414062 588.113281 43.957031 C 587.976562 44.605469 587.03125 44.96875 587.523438 45.902344 C 587.75 46.007812 588.050781 46.25 588.359375 46.261719 C 590.175781 46.339844 591.992188 46.363281 594.488281 46.417969 M 595.6875 61.628906 C 594.882812 59.476562 592.914062 59.042969 591.457031 58.003906 C 591.351562 57.925781 591.054688 58.121094 590.847656 58.1875 C 590.8125 58.300781 590.726562 58.421875 590.753906 58.515625 C 591.335938 60.671875 593.109375 61.460938 594.976562 62.105469 C 595.09375 62.148438 595.320312 61.882812 595.6875 61.628906 M 638.054688 50.6875 C 638.816406 49.582031 638.863281 48.335938 639.039062 47.242188 C 638.277344 46.402344 637.578125 46.148438 636.722656 46.558594 C 636.257812 48.746094 636.539062 49.648438 638.054688 50.6875 M 591.605469 75.765625 C 592.121094 75.875 592.5 75.773438 592.621094 75.09375 C 592.136719 73.910156 591.492188 72.773438 590.320312 72.023438 C 590.050781 72.296875 589.902344 72.449219 589.625 72.726562 C 590.113281 73.808594 590.703125 74.882812 591.605469 75.765625 M 644.597656 51.445312 C 643.691406 51.457031 643.175781 51.464844 642.738281 51.46875 C 642.328125 52.359375 641.878906 53.050781 642.601562 53.960938 C 643.011719 53.960938 643.527344 53.964844 644.039062 53.96875 C 644.21875 53.160156 644.355469 52.535156 644.597656 51.445312 M 605.992188 39.273438 C 605.285156 38.5625 604.898438 38.007812 604.371094 37.695312 C 603.847656 37.386719 603.285156 37.535156 603.113281 38.269531 C 604.136719 39.957031 604.136719 39.957031 605.992188 39.273438 M 596.910156 95.730469 C 597.347656 95.496094 597.738281 95.277344 597.316406 94.558594 C 596.554688 94.164062 595.621094 93.925781 594.589844 93.992188 C 594.605469 94.226562 594.554688 94.457031 594.644531 94.605469 C 594.816406 94.886719 595.0625 95.121094 595.269531 95.367188 C 595.84375 95.492188 596.390625 95.613281 596.910156 95.730469 M 636.492188 78.875 C 637.480469 80.613281 638.84375 80.605469 640.371094 80.753906 C 639.371094 79.460938 638.394531 78.597656 636.492188 78.875 M 592.257812 103.296875 C 591.9375 102.484375 591.753906 101.808594 590.855469 101.726562 C 590.683594 101.945312 590.492188 102.191406 590.320312 102.410156 C 591.058594 103.75 591.058594 103.75 591.625 103.851562 C 591.785156 103.710938 591.945312 103.570312 592.257812 103.296875 "/>
</g>
</g>
</g>
</g>
</g>
</g>
<g clip-path="url(#clip13)" clip-rule="nonzero">
<g clip-path="url(#clip14)" clip-rule="nonzero">
<g clip-path="url(#clip15)" clip-rule="nonzero">
<g clip-path="url(#clip16)" clip-rule="nonzero">
<g clip-path="url(#clip17)" clip-rule="nonzero">
<g clip-path="url(#clip18)" clip-rule="nonzero">
<path style=" stroke:none;fill-rule:nonzero;fill:rgb(69.018555%,82.348633%,20.779419%);fill-opacity:1;" d="M 326.433594 32.671875 C 327.183594 32.601562 328.21875 32.476562 329.257812 32.40625 C 335.761719 31.96875 342.265625 31.519531 348.773438 31.121094 C 354.113281 30.796875 359.457031 30.535156 364.800781 30.265625 C 365.496094 30.230469 366.222656 30.238281 366.894531 30.398438 C 370.40625 31.234375 373.972656 31.832031 377.320312 33.351562 C 379.4375 34.308594 381.5625 35.257812 383.6875 36.1875 C 387.441406 37.824219 390.386719 40.386719 393.078125 43.328125 C 395.121094 45.558594 397.136719 47.816406 399.054688 50.152344 C 399.855469 51.125 400.503906 52.277344 401.003906 53.441406 C 403.644531 59.589844 405.179688 66.035156 406.058594 72.65625 C 406.132812 73.230469 406.25 73.800781 406.355469 74.371094 C 406.664062 76 406.6875 77.566406 406.113281 79.199219 C 405.742188 80.253906 405.714844 81.496094 405.792969 82.636719 C 406.011719 85.964844 405.277344 89.128906 404.359375 92.273438 C 404 93.503906 403.496094 94.699219 403.230469 95.949219 C 402.371094 99.980469 400.667969 103.691406 398.953125 107.398438 C 398.421875 108.546875 397.640625 109.597656 396.863281 110.609375 C 394.578125 113.59375 391.828125 116.117188 388.859375 118.40625 C 385.582031 120.9375 381.847656 122.550781 377.921875 123.753906 C 372.886719 125.300781 367.75 126.207031 362.476562 126.441406 C 352.824219 126.871094 343.179688 127.398438 333.527344 127.875 C 332.953125 127.902344 332.355469 127.953125 331.800781 127.839844 C 327.355469 126.949219 323.121094 125.332031 318.660156 124.273438 C 318.628906 123.378906 318.585938 122.699219 318.582031 122.023438 C 318.578125 121.441406 318.597656 120.855469 318.636719 120.277344 C 318.71875 118.996094 318.789062 117.714844 318.917969 116.441406 C 319.214844 113.542969 319.550781 110.644531 319.855469 107.746094 C 320.0625 105.773438 320.316406 103.800781 320.398438 101.824219 C 320.4375 100.796875 320.390625 99.636719 319.949219 98.75 C 319.332031 97.507812 319.421875 96.234375 319.335938 94.988281 C 319.195312 93.015625 319.433594 91.019531 319.277344 89.050781 C 319.121094 87.085938 318.679688 85.140625 318.335938 83.03125 C 318.925781 81.785156 319.574219 80.425781 320.265625 78.976562 C 320.210938 76.480469 319.363281 74.042969 318.808594 71.550781 C 318.527344 70.285156 318.351562 69.046875 318.410156 67.742188 C 318.53125 65.179688 318.492188 62.617188 318.832031 60.058594 C 319.042969 58.449219 318.960938 56.804688 319.015625 55.175781 C 319.03125 54.59375 318.984375 54 319.097656 53.4375 C 319.523438 51.296875 319.3125 49.25 318.328125 47.492188 C 318.511719 41.28125 321.074219 35.957031 326.433594 32.671875 M 348.496094 67.199219 C 349.367188 68.78125 349.605469 70.570312 349.425781 72.5 C 349.179688 75.167969 349.152344 77.855469 349.03125 80.535156 C 348.910156 83.214844 348.769531 85.890625 348.667969 88.566406 C 348.601562 90.429688 348.339844 92.332031 348.597656 94.152344 C 349.261719 98.863281 351.941406 102.238281 356.175781 104.644531 C 360.617188 103.3125 365.003906 101.773438 369.175781 100.257812 C 371.007812 97.152344 372.59375 94.160156 374.480469 91.363281 C 376.339844 88.605469 376.835938 85.539062 377.097656 82.386719 C 377.335938 79.488281 377.390625 76.574219 377.542969 73.351562 C 376.703125 69.019531 374.261719 65.273438 370.855469 62.082031 C 369.378906 60.699219 367.707031 59.613281 365.78125 59.09375 C 360.554688 57.683594 355.238281 57.398438 349.765625 58.066406 C 349.191406 59.417969 349.082031 60.804688 348.960938 62.191406 C 348.828125 63.703125 348.683594 65.210938 348.496094 67.199219 M 390.207031 83.96875 C 389.835938 84.191406 389.453125 84.425781 389.324219 84.503906 C 388.960938 86.140625 388.609375 87.363281 388.453125 88.609375 C 388.367188 89.253906 388.484375 90.035156 389.546875 90.203125 C 391.253906 89.164062 392.214844 87.609375 392.421875 85.371094 C 391.730469 84.933594 391.070312 84.511719 390.207031 83.96875 M 329.144531 112.441406 C 328.664062 114.777344 328.679688 115.171875 329.335938 117.246094 C 331.386719 116.703125 332.34375 115.054688 333.5625 113.238281 C 332.042969 112.90625 330.800781 112.339844 329.144531 112.441406 M 337.445312 45.34375 C 339.1875 43.65625 339.191406 43.660156 339.667969 42.039062 C 338.6875 41.4375 337.601562 41.207031 336.503906 41.191406 C 335.578125 41.621094 334.871094 42.132812 334.890625 43.222656 C 335.460938 44.289062 336.449219 44.824219 337.445312 45.34375 M 389.121094 66.976562 C 389.644531 64.796875 388.78125 61.445312 386.925781 58.144531 C 386.101562 58.191406 386.011719 58.882812 386.109375 59.386719 C 386.417969 60.976562 386.78125 62.5625 387.273438 64.101562 C 387.613281 65.160156 388.183594 66.148438 389.121094 66.976562 M 351.757812 41.949219 C 351.339844 43.203125 350.804688 44.335938 351.132812 45.667969 C 352.621094 45.285156 352.621094 45.285156 354.785156 43.105469 C 353.792969 42.726562 352.855469 42.371094 351.757812 41.949219 M 370.695312 49.078125 C 370.234375 48.203125 370.128906 47.675781 369.808594 47.449219 C 368.882812 46.789062 367.898438 46.199219 366.882812 45.691406 C 366.367188 45.433594 366.050781 45.820312 365.980469 46.53125 C 367.285156 47.367188 368.101562 49.128906 370.695312 49.078125 M 338.1875 86.191406 C 337.332031 85.988281 336.632812 85.210938 335.613281 85.96875 C 335.300781 87.003906 334.910156 88.078125 335.957031 89.101562 C 337.050781 88.464844 338.210938 87.941406 338.1875 86.191406 M 378.625 50.710938 C 379.242188 53.066406 379.511719 53.519531 381.082031 54.917969 C 381.191406 54.730469 381.34375 54.558594 381.402344 54.355469 C 381.46875 54.144531 381.527344 53.871094 381.445312 53.683594 C 380.996094 52.660156 380.503906 51.660156 379.988281 50.566406 C 379.46875 50.621094 379.058594 50.664062 378.625 50.710938 M 387.273438 92.539062 C 388.839844 93.78125 389.421875 95.019531 391.175781 94.621094 C 390.566406 93.769531 390.046875 93.046875 389.507812 92.296875 C 388.949219 92.359375 388.523438 92.402344 387.273438 92.539062 M 339.722656 61.214844 C 340.507812 60.703125 340.578125 60.113281 340.242188 59.421875 C 339.664062 59.03125 339.089844 58.707031 338.566406 59.5 C 338.523438 60.238281 338.820312 60.777344 339.722656 61.214844 M 387.984375 72.027344 C 386.960938 73.324219 386.9375 73.332031 388.230469 74.457031 C 388.707031 73.792969 388.933594 73.097656 388.554688 72.308594 C 388.359375 72.214844 388.171875 72.121094 387.984375 72.027344 M 329.390625 52.136719 C 329.359375 51.425781 329.339844 50.910156 329.316406 50.394531 C 328.644531 50.300781 328.203125 50.378906 328.117188 50.929688 C 328.054688 51.324219 328.15625 51.742188 328.183594 52.140625 C 328.570312 52.136719 328.78125 52.136719 329.390625 52.136719 M 336.792969 77.855469 C 336.449219 77.953125 336.148438 78.039062 335.851562 78.121094 C 336.222656 79.441406 336.222656 79.441406 337.574219 79 C 337.3125 78.617188 337.066406 78.257812 336.792969 77.855469 "/>
</g>
</g>
</g>
</g>
</g>
</g>
<g clip-path="url(#clip19)" clip-rule="nonzero">
<g clip-path="url(#clip20)" clip-rule="nonzero">
<g clip-path="url(#clip21)" clip-rule="nonzero">
<g clip-path="url(#clip22)" clip-rule="nonzero">
<g clip-path="url(#clip23)" clip-rule="nonzero">
<g clip-path="url(#clip24)" clip-rule="nonzero">
<path style=" stroke:none;fill-rule:nonzero;fill:rgb(69.018555%,82.348633%,20.779419%);fill-opacity:1;" d="M 708.800781 29.996094 C 713.828125 29.945312 718.945312 29.816406 724.0625 29.882812 C 725.546875 29.898438 727.101562 30.269531 728.484375 30.828125 C 729.90625 31.40625 731.347656 31.820312 732.820312 32.164062 C 736.703125 33.058594 740.375 34.535156 743.988281 36.171875 C 749.394531 38.613281 753.921875 42.1875 757.542969 46.898438 C 757.828125 47.265625 758.152344 47.601562 758.449219 47.964844 C 760.078125 49.964844 761.472656 52.085938 762.316406 54.570312 C 763.816406 58.984375 765.433594 63.359375 766.988281 67.757812 C 767.179688 68.300781 767.28125 68.882812 767.449219 69.558594 C 767.089844 71.1875 766.691406 72.894531 766.339844 74.613281 C 765.75 77.484375 765.417969 80.339844 766.273438 83.25 C 766.628906 84.46875 766.582031 85.777344 766.277344 87.066406 C 765.394531 90.824219 764.625 94.613281 763.695312 98.359375 C 763.246094 100.160156 762.621094 101.933594 761.90625 103.648438 C 761.511719 104.589844 760.84375 105.460938 760.152344 106.230469 C 756.949219 109.78125 753.757812 113.347656 750.417969 116.773438 C 749.046875 118.179688 747.402344 119.371094 745.734375 120.421875 C 742.582031 122.40625 739.316406 124.207031 736.105469 126.105469 C 734.871094 126.835938 733.566406 127.125 732.113281 127.183594 C 725.492188 127.453125 718.867188 127.828125 712.171875 128.171875 C 711.703125 127.972656 711.1875 127.667969 710.628906 127.535156 C 705.324219 126.300781 700.726562 123.488281 696.039062 120.917969 C 694.414062 120.027344 692.921875 118.855469 691.488281 117.667969 C 688.792969 115.441406 686.222656 113.054688 683.515625 110.839844 C 682.285156 109.832031 681.4375 108.691406 680.984375 107.171875 C 680.21875 104.601562 679.367188 102.054688 678.546875 99.5 C 677.6875 96.835938 676.828125 94.171875 675.960938 91.511719 C 675.597656 90.390625 675.445312 89.28125 675.527344 88.078125 C 675.847656 83.308594 675.996094 78.53125 676.324219 73.765625 C 676.632812 69.238281 676.875 64.707031 678.613281 60.390625 C 679.484375 58.238281 679.992188 55.9375 680.863281 53.761719 C 681.320312 52.628906 681.960938 51.699219 682.730469 50.847656 C 685.710938 47.566406 688.753906 44.34375 691.753906 41.082031 C 693.105469 39.609375 694.613281 38.359375 696.351562 37.347656 C 700.488281 34.945312 704.59375 32.484375 708.800781 29.996094 M 705.050781 65.257812 C 703.800781 69.605469 703.589844 73.9375 702.886719 78.191406 C 702.8125 78.636719 702.9375 79.117188 702.96875 79.582031 C 703.289062 84.355469 705.175781 88.613281 707.328125 92.777344 C 707.875 93.835938 708.773438 94.601562 709.726562 95.292969 C 713.773438 98.214844 718.214844 100.132812 723.222656 100.601562 C 727.6875 99.171875 731.128906 96.617188 735.160156 91.660156 C 736.234375 87.804688 737.074219 83.800781 737.695312 79.75 C 738.28125 75.894531 738.21875 72.085938 736.757812 68.402344 C 735.765625 65.914062 734.691406 63.457031 733.023438 61.277344 C 728.125 58.894531 723.238281 56.449219 717.628906 55.476562 C 713.414062 58.753906 709.1875 62.042969 705.050781 65.257812 M 728.296875 110.984375 C 724.355469 114.054688 723.828125 115.027344 724.046875 118.5625 C 724.980469 119.28125 725.917969 118.660156 726.65625 118.328125 C 728.296875 117.585938 730.0625 116.9375 731.261719 115.472656 C 730.738281 113.613281 729.828125 112.210938 728.296875 110.984375 M 755.207031 83.164062 C 753.320312 83.535156 752.101562 83.023438 751.050781 83.730469 C 749.332031 84.886719 747.480469 85.902344 746.300781 87.695312 C 746.757812 90.453125 748.429688 92.53125 749.667969 94.851562 C 749.925781 94.675781 750.078125 94.628906 750.101562 94.546875 C 750.773438 92.238281 749.496094 90.035156 749.632812 87.808594 C 751.117188 86.0625 753.484375 85.550781 755.207031 83.164062 M 737.527344 45.113281 C 737.648438 49.691406 740.675781 51.09375 743.183594 53.140625 C 744.105469 53.035156 745.03125 54.105469 746.398438 53.367188 C 743.832031 50.445312 740.664062 48.347656 737.527344 45.113281 M 687.472656 73.257812 C 688.542969 74.671875 689.746094 75.445312 691.507812 75.460938 C 691.929688 74.996094 692.375 74.507812 692.71875 74.128906 C 692.4375 72.097656 691.453125 70.652344 690.394531 69.25 C 690.230469 69.035156 689.835938 68.992188 689.410156 68.8125 C 688.734375 70.367188 688.097656 71.824219 687.472656 73.257812 M 713.882812 111.1875 C 713.171875 112.65625 712.050781 113.984375 712.105469 115.945312 C 713.164062 116.542969 714.210938 116.847656 715.519531 116.71875 C 715.992188 116.1875 716.507812 115.601562 717.089844 114.941406 C 716.089844 113.566406 715.5625 111.992188 713.882812 111.1875 M 698.777344 59.410156 C 699.425781 58.359375 699.886719 57.695312 700.253906 56.980469 C 700.511719 56.46875 700.710938 55.890625 700.199219 55.332031 C 699.089844 54.890625 697.984375 54.71875 697.019531 55.78125 C 696.644531 57.261719 697.558594 58.140625 698.777344 59.410156 M 686.164062 60.390625 C 685.734375 62.296875 686.121094 62.863281 687.902344 62.921875 C 688.453125 62.28125 688.730469 61.582031 688.351562 60.742188 C 687.695312 60.140625 686.972656 60.003906 686.164062 60.390625 M 693.398438 98.128906 C 692.832031 97.316406 692.832031 97.316406 691.960938 96.835938 C 691.109375 97.472656 691.203125 98.46875 691.03125 99.359375 C 691.003906 99.511719 691.167969 99.707031 691.292969 99.992188 C 692.167969 99.421875 693.113281 99.179688 693.398438 98.128906 M 696.65625 90.699219 C 696.367188 91.816406 696.824219 92.347656 697.710938 92.734375 C 697.910156 92.539062 698.238281 92.355469 698.304688 92.105469 C 698.402344 91.71875 698.320312 91.28125 698.3125 90.75 C 697.640625 90.730469 697.132812 90.714844 696.65625 90.699219 M 689.195312 84.429688 C 688.097656 85.253906 687.890625 86.085938 688.378906 87.191406 C 688.753906 87.082031 689.058594 86.996094 689.324219 86.917969 C 689.746094 86.140625 690.011719 85.425781 689.195312 84.429688 M 748.433594 73.902344 C 748.761719 74.71875 749.007812 75.34375 749.878906 75.4375 C 750.046875 75.214844 750.230469 74.96875 750.394531 74.753906 C 750.113281 74.058594 749.875 73.421875 749.074219 73.339844 C 748.90625 73.488281 748.746094 73.625 748.433594 73.902344 M 752.828125 70.851562 C 752.597656 71.777344 753.15625 72.0625 753.90625 72.144531 C 754.421875 72.199219 754.71875 71.925781 754.765625 71.394531 C 754.324219 70.480469 753.65625 70.378906 752.828125 70.851562 M 746.40625 95.421875 C 746.101562 94.191406 745.402344 93.734375 744.203125 94.003906 C 744.5 95.234375 745.203125 95.683594 746.40625 95.421875 "/>
</g>
</g>
</g>
</g>
</g>
</g>
<g clip-path="url(#clip25)" clip-rule="nonzero">
<g clip-path="url(#clip26)" clip-rule="nonzero">
<g clip-path="url(#clip27)" clip-rule="nonzero">
<g clip-path="url(#clip28)" clip-rule="nonzero">
<g clip-path="url(#clip29)" clip-rule="nonzero">
<g clip-path="url(#clip30)" clip-rule="nonzero">
<path style=" stroke:none;fill-rule:nonzero;fill:rgb(69.018555%,82.348633%,20.779419%);fill-opacity:1;" d="M 145.15625 38.226562 C 147.851562 34.585938 149.808594 32.640625 153.261719 30.140625 C 153.878906 30.097656 154.589844 29.945312 155.273438 30.023438 C 158.285156 30.378906 161.296875 30.75 164.296875 31.21875 C 167.882812 31.777344 171.453125 32.03125 175.085938 31.613281 C 178.203125 31.253906 181.347656 31.101562 184.484375 30.945312 C 185.992188 30.867188 187.511719 30.941406 189.019531 31.035156 C 191.230469 31.175781 193.4375 31.367188 195.640625 31.585938 C 198.09375 31.832031 200.523438 31.953125 202.765625 31.023438 C 207.179688 31.535156 210.945312 33.273438 214.472656 36 C 214.613281 36.6875 214.847656 37.46875 214.929688 38.265625 C 215.191406 40.808594 215.273438 43.378906 215.671875 45.898438 C 215.945312 47.632812 215.601562 49.222656 214.890625 50.660156 C 213.921875 52.628906 212.949219 54.644531 211.382812 56.316406 C 209.183594 56.640625 206.996094 56.960938 204.578125 57.316406 C 201.46875 55.753906 197.886719 56.183594 194.421875 55.984375 C 189.195312 55.6875 183.945312 55.796875 178.707031 55.679688 C 176.613281 55.628906 174.519531 55.425781 172.425781 55.3125 C 171.839844 55.28125 171.25 55.339844 170.746094 56.105469 C 171.664062 59.164062 172.464844 62.417969 173.792969 65.617188 C 174.285156 65.691406 174.738281 65.851562 175.175781 65.820312 C 182.953125 65.242188 190.726562 64.632812 198.507812 64.042969 C 200.019531 63.929688 201.535156 63.886719 203.050781 63.777344 C 205.609375 63.597656 207.90625 64.222656 209.902344 65.875 C 211.152344 66.910156 212.417969 67.929688 213.785156 69.046875 C 213.125 72.503906 213.507812 76.09375 212.167969 79.390625 C 210.804688 82.730469 209.464844 86.105469 207.191406 89.128906 C 201.90625 89.472656 196.566406 89.816406 191.773438 90.128906 C 186.542969 88.71875 181.824219 87.445312 176.933594 86.125 C 173.628906 89.304688 172.21875 93.382812 171.679688 97.917969 C 172.289062 98.863281 173.195312 99.371094 174.226562 99.609375 C 177.304688 100.320312 180.367188 101.207031 183.488281 101.582031 C 185.765625 101.851562 188.128906 101.457031 190.449219 101.289062 C 198.113281 100.742188 205.777344 100.164062 213.5625 99.589844 C 214.605469 100.199219 215.699219 100.839844 216.855469 101.519531 C 217.007812 102.089844 217.203125 102.636719 217.304688 103.199219 C 217.8125 106.066406 218.289062 108.941406 218.796875 111.808594 C 219.019531 113.089844 218.992188 114.34375 218.734375 115.628906 C 217.949219 119.546875 216.9375 123.371094 214.734375 126.949219 C 210.925781 127.605469 206.980469 127.808594 202.847656 128.152344 C 201.46875 127.316406 199.820312 127.015625 198.027344 126.871094 C 194.308594 126.574219 190.609375 125.976562 186.921875 125.386719 C 185.382812 125.144531 183.941406 125.199219 182.421875 125.542969 C 178.664062 126.386719 174.855469 126.925781 170.988281 127.050781 C 169.25 127.105469 167.527344 127.523438 165.796875 127.777344 C 162.800781 128.210938 159.792969 128.585938 156.816406 129.105469 C 155.335938 129.363281 154.039062 129.113281 152.785156 128.371094 C 149.847656 126.632812 147.25 124.488281 144.929688 121.984375 C 144.246094 121.246094 143.964844 120.398438 143.875 119.457031 C 143.601562 116.675781 143.335938 113.894531 143.105469 111.109375 C 143.046875 110.417969 143.011719 109.675781 143.199219 109.023438 C 144.035156 106.085938 144.546875 103.105469 144.652344 100.054688 C 144.671875 99.472656 144.824219 98.898438 144.957031 98.0625 C 143.363281 94.363281 143.996094 90.242188 144.09375 86.191406 C 144.210938 81.414062 144.675781 76.644531 144.917969 71.867188 C 144.988281 70.480469 144.835938 69.078125 144.738281 67.6875 C 144.519531 64.550781 144.15625 61.417969 144.066406 58.277344 C 143.980469 55.371094 144.128906 52.453125 144.253906 49.539062 C 144.371094 46.742188 144.570312 43.949219 144.773438 41.15625 C 144.851562 40.113281 145.042969 39.074219 145.15625 38.226562 M 169.136719 108.414062 C 167.5 110.273438 165.992188 111.671875 165.210938 113.640625 C 165.613281 114.308594 165.925781 114.929688 166.332031 115.480469 C 166.804688 116.125 167.40625 116.316406 168.074219 115.710938 C 169.460938 111.652344 169.628906 110.65625 169.136719 108.414062 M 182.558594 116.710938 C 183.679688 116.050781 184.59375 115.550781 185.453125 114.972656 C 185.671875 114.828125 185.714844 114.421875 185.914062 113.96875 C 185.160156 113.707031 184.511719 113.503906 183.882812 113.257812 C 183.160156 112.96875 182.453125 112.640625 181.738281 112.328125 C 180.953125 114.164062 180.953125 114.164062 182.558594 116.710938 M 190.96875 40.089844 C 190.90625 40.492188 190.78125 40.746094 190.851562 40.917969 C 191.46875 42.355469 192.789062 43.140625 193.761719 44.195312 C 194.238281 44.117188 194.566406 44.0625 194.976562 43.996094 C 194.941406 43.625 195.027344 43.199219 194.855469 43 C 194.023438 42.046875 193.160156 41.109375 192.222656 40.269531 C 191.960938 40.035156 191.390625 40.140625 190.96875 40.089844 M 152.492188 99.945312 C 152.898438 101.210938 153.539062 102.039062 154.25 102.808594 C 154.46875 103.046875 154.839844 103.144531 155.152344 103.289062 C 155.5625 103.488281 156.015625 103.195312 156.1875 102.484375 C 155.746094 101.828125 155.234375 101.070312 154.730469 100.324219 C 153.980469 100.195312 153.324219 100.085938 152.492188 99.945312 M 161.496094 53.703125 C 160.597656 55.210938 159.734375 56.652344 158.835938 58.160156 C 159.054688 58.386719 159.265625 58.609375 159.457031 58.8125 C 161.234375 57.878906 161.304688 55.996094 162.1875 54.574219 C 161.957031 54.28125 161.75 54.019531 161.496094 53.703125 M 159.863281 69.738281 C 159.226562 68.066406 158.21875 67.667969 156.816406 68.027344 C 157.035156 69.996094 157.683594 70.398438 159.863281 69.738281 M 160.699219 75.484375 C 160.960938 76.375 161.207031 77.207031 161.488281 78.167969 C 162.085938 78.074219 162.507812 78.003906 162.902344 77.941406 C 163.027344 77.488281 163.121094 77.152344 163.210938 76.835938 C 162.78125 75.761719 162.222656 74.96875 160.699219 75.484375 M 156.542969 89.96875 C 155.648438 90.320312 155.71875 91.019531 155.96875 91.660156 C 156.324219 92.5625 156.90625 93.21875 158.046875 92.789062 C 157.753906 91.710938 157.824219 90.46875 156.542969 89.96875 M 192.5625 114.976562 C 193.964844 114.851562 194.042969 113.40625 195.035156 112.785156 C 194.699219 112.40625 194.5 112.183594 194.300781 111.960938 C 192.527344 113.566406 192.542969 113.578125 192.5625 114.976562 M 156.191406 114.804688 C 157.25 117.023438 157.25 117.023438 158.664062 116.472656 C 158.179688 115.804688 157.714844 115.167969 157.054688 114.261719 C 156.675781 114.5 156.414062 114.664062 156.191406 114.804688 M 159.425781 92.804688 C 158.902344 93.289062 158.582031 93.808594 159.011719 94.539062 C 159.210938 94.625 159.402344 94.710938 159.597656 94.796875 C 160.511719 93.535156 160.53125 93.535156 159.425781 92.804688 M 165.710938 103.324219 C 165.21875 103.445312 164.914062 103.519531 164.609375 103.59375 C 164.917969 104.898438 164.917969 104.898438 166.511719 104.5 C 166.214844 104.0625 165.964844 103.691406 165.710938 103.324219 "/>
</g>
</g>
</g>
</g>
</g>
</g>
<g clip-path="url(#clip31)" clip-rule="nonzero">
<g clip-path="url(#clip32)" clip-rule="nonzero">
<g clip-path="url(#clip33)" clip-rule="nonzero">
<g clip-path="url(#clip34)" clip-rule="nonzero">
<g clip-path="url(#clip35)" clip-rule="nonzero">
<g clip-path="url(#clip36)" clip-rule="nonzero">
<path style=" stroke:none;fill-rule:nonzero;fill:rgb(69.018555%,82.348633%,20.779419%);fill-opacity:1;" d="M 304.539062 101.980469 C 305.105469 105.019531 305.894531 108.433594 306.332031 111.886719 C 306.605469 114.058594 306.523438 116.3125 305.621094 118.417969 C 305.390625 118.953125 305.183594 119.5 305.027344 120.0625 C 304.410156 122.320312 303.699219 124.539062 302.375 126.722656 C 300.617188 127.21875 298.632812 127.238281 296.679688 127.449219 C 295.289062 127.601562 293.886719 127.683594 292.507812 127.902344 C 291.191406 128.109375 289.964844 128.0625 288.792969 127.351562 C 288.40625 127.117188 287.925781 126.980469 287.472656 126.921875 C 282.847656 126.324219 278.222656 125.714844 273.585938 125.195312 C 272.449219 125.070312 271.230469 125.089844 270.121094 125.351562 C 266.136719 126.304688 262.074219 126.59375 258.019531 127.015625 C 253.390625 127.5 248.78125 128.195312 244.183594 128.921875 C 242.828125 129.132812 241.578125 129.066406 240.460938 128.386719 C 237.050781 126.320312 233.914062 123.921875 231.457031 120.523438 C 231.144531 116.902344 230.808594 113.1875 230.523438 109.472656 C 230.480469 108.910156 230.5625 108.269531 230.804688 107.773438 C 231.476562 106.375 231.519531 104.871094 231.734375 103.390625 C 231.9375 102 232.226562 100.621094 232.382812 99.226562 C 232.460938 98.546875 232.539062 97.71875 232.238281 97.167969 C 231.226562 95.308594 231.402344 93.3125 231.453125 91.375 C 231.609375 85.195312 231.902344 79.019531 232.46875 72.859375 C 232.582031 71.59375 232.4375 70.296875 232.351562 69.019531 C 232.097656 65.183594 231.824219 61.351562 231.539062 57.519531 C 231.363281 55.183594 231.582031 52.867188 231.730469 50.539062 C 231.984375 46.582031 232.191406 42.625 232.429688 38.441406 C 234.265625 35.207031 237.210938 32.726562 240.320312 30.21875 C 241.058594 29.867188 241.933594 29.773438 242.90625 29.914062 C 246.484375 30.441406 250.070312 30.9375 253.664062 31.347656 C 256.207031 31.636719 258.761719 31.820312 261.328125 31.621094 C 265.046875 31.328125 268.761719 31.03125 272.484375 30.832031 C 273.988281 30.75 275.507812 30.875 277.015625 30.972656 C 280.617188 31.207031 284.21875 31.476562 287.796875 31.730469 C 288.597656 31.433594 289.355469 31.148438 289.992188 30.910156 C 294.605469 31.289062 298.398438 33.230469 301.796875 35.835938 C 302.972656 37.757812 302.390625 39.835938 302.730469 41.777344 C 303.078125 43.71875 303.171875 45.703125 303.3125 47.035156 C 302.59375 50.699219 300.902344 53.21875 299.242188 55.878906 C 297.019531 56.847656 294.507812 56.601562 292.019531 57.179688 C 288.910156 55.746094 285.460938 56.109375 282.101562 55.90625 C 277.339844 55.621094 272.566406 55.574219 267.796875 55.445312 C 264.785156 55.363281 261.773438 55.316406 258.617188 55.246094 C 258.542969 55.921875 258.304688 56.535156 258.449219 57.03125 C 259.277344 59.824219 260.195312 62.582031 261.082031 65.339844 C 261.523438 65.472656 261.855469 65.671875 262.167969 65.648438 C 271 65.027344 279.832031 64.425781 288.65625 63.71875 C 291.152344 63.519531 293.550781 63.582031 296.265625 64.878906 C 297.535156 65.871094 299.183594 67.15625 300.671875 68.316406 C 301.191406 69.40625 301.21875 70.328125 301.066406 71.269531 C 300.53125 74.621094 300.269531 78.078125 298.847656 81.179688 C 297.648438 83.792969 296.816406 86.664062 294.601562 88.960938 C 291.800781 89.175781 288.910156 89.402344 286.015625 89.617188 C 285.785156 89.632812 285.539062 89.535156 285.320312 89.582031 C 281.28125 90.40625 277.429688 89.484375 273.570312 88.429688 C 270.640625 87.628906 267.683594 86.921875 264.90625 86.214844 C 263.839844 86.417969 263.359375 87.054688 262.855469 87.726562 C 260.535156 90.84375 259.746094 94.4375 259.296875 98.257812 C 259.910156 98.632812 260.355469 99.066406 260.875 99.195312 C 264.054688 99.972656 267.246094 100.71875 270.449219 101.394531 C 271.21875 101.558594 272.0625 101.46875 272.863281 101.414062 C 281.347656 100.839844 289.832031 100.335938 298.300781 99.605469 C 300.730469 99.394531 302.667969 99.824219 304.539062 101.980469 M 252.59375 113.222656 C 253 113.964844 253.351562 114.667969 253.761719 115.328125 C 254.101562 115.878906 254.585938 116.085938 255.183594 115.71875 C 256.441406 112.542969 256.648438 111.605469 256.738281 108.328125 C 255.015625 109.925781 253.882812 111.617188 252.59375 113.222656 M 273.242188 113.761719 C 272.25 113.445312 271.617188 113.132812 270.953125 113.058594 C 270.160156 112.964844 269.761719 111.835938 268.355469 112.5 C 268.78125 113.804688 268.4375 115.414062 270.097656 116.554688 C 271.273438 115.921875 272.773438 115.796875 273.242188 113.761719 M 246.820312 58.613281 C 248.210938 58.941406 248.199219 57.546875 248.941406 57.125 C 249.167969 56.039062 249.648438 54.984375 249.507812 53.878906 C 249.195312 53.730469 249.003906 53.640625 248.664062 53.480469 C 247.851562 55.117188 246.347656 56.484375 246.820312 58.613281 M 278.429688 40.484375 C 279.296875 42.335938 280.394531 43.589844 282.15625 44.136719 C 282.25 44.164062 282.433594 43.917969 282.59375 43.785156 C 281.96875 42.0625 280.710938 40.9375 279.234375 40.015625 C 279.03125 40.132812 278.84375 40.242188 278.429688 40.484375 M 240.1875 100.1875 C 240.273438 101.828125 241.574219 102.457031 242.695312 103.183594 C 243.085938 103.433594 243.574219 103.375 243.851562 102.867188 C 243.078125 100.769531 242.046875 99.984375 240.1875 100.1875 M 243.265625 88.9375 C 243.019531 89.175781 242.867188 89.324219 242.605469 89.574219 C 243.011719 90.539062 243.4375 91.558594 243.847656 92.535156 C 244.4375 92.730469 244.976562 93.097656 245.480469 92.246094 C 245.308594 91.613281 245.105469 90.867188 244.933594 90.234375 C 244.300781 89.742188 243.777344 89.335938 243.265625 88.9375 M 250.269531 75.421875 C 249.742188 75.34375 249.304688 75.277344 248.902344 75.214844 C 248.238281 76.988281 248.238281 76.988281 249.765625 77.96875 C 250.496094 77.382812 250.585938 76.625 250.269531 75.421875 M 281.488281 111.464844 C 280.753906 112.378906 280.203125 112.945312 279.804688 113.605469 C 279.519531 114.078125 279.414062 114.683594 280.167969 114.957031 C 282.175781 113.210938 282.175781 113.210938 281.488281 111.464844 M 244.277344 68.210938 C 244.757812 69.542969 245.320312 70.316406 246.550781 69.945312 C 247.105469 69.449219 247.261719 68.96875 246.871094 68.328125 C 246.140625 67.882812 245.363281 67.523438 244.277344 68.210938 M 242.664062 71.015625 C 241.707031 71.832031 242.136719 72.636719 242.707031 73.410156 C 242.820312 73.5625 243.082031 73.601562 243.277344 73.691406 C 244.183594 73.457031 244.167969 72.796875 244 71.96875 C 243.609375 71.6875 243.144531 71.359375 242.664062 71.015625 M 246.066406 115.898438 C 245.429688 115.347656 244.84375 114.84375 244.214844 114.300781 C 243.910156 114.550781 243.679688 114.738281 243.304688 115.046875 C 244.050781 115.695312 244.695312 116.257812 245.40625 116.878906 C 245.683594 116.46875 245.859375 116.207031 246.066406 115.898438 M 247.34375 92.820312 C 246.421875 93.335938 246.421875 93.335938 246.019531 94.136719 C 246.574219 94.863281 247.171875 95.097656 248.027344 94.203125 C 247.804688 93.753906 247.574219 93.289062 247.34375 92.820312 M 253.210938 104.695312 C 253.359375 104.457031 253.523438 104.195312 253.664062 103.964844 C 253.230469 103.203125 252.675781 103.011719 251.941406 103.34375 C 252.035156 104.066406 252.332031 104.605469 253.210938 104.695312 "/>
</g>
</g>
</g>
</g>
</g>
</g>
<g clip-path="url(#clip37)" clip-rule="nonzero">
<g clip-path="url(#clip38)" clip-rule="nonzero">
<g clip-path="url(#clip39)" clip-rule="nonzero">
<g clip-path="url(#clip40)" clip-rule="nonzero">
<g clip-path="url(#clip41)" clip-rule="nonzero">
<g clip-path="url(#clip42)" clip-rule="nonzero">
<path style=" stroke:none;fill-rule:nonzero;fill:rgb(69.018555%,82.348633%,20.779419%);fill-opacity:1;" d="M 505.277344 33.042969 C 506.75 31.910156 508.21875 31.863281 509.78125 31.871094 C 516.761719 31.917969 523.746094 31.863281 530.949219 31.847656 C 536.660156 33.515625 542.597656 35.25 548.683594 37.027344 C 553.414062 40.441406 557.578125 44.644531 561.136719 49.523438 C 561.789062 55.644531 562.449219 61.769531 563.09375 67.898438 C 563.347656 70.316406 562.523438 72.570312 561.664062 74.714844 C 560.195312 78.382812 558.6875 82.058594 556.613281 85.449219 C 556.132812 86.234375 555.664062 87.09375 554.984375 87.683594 C 550.921875 91.199219 546.792969 94.640625 542.332031 97.652344 C 542.042969 97.847656 541.726562 98 541.421875 98.171875 C 535.253906 98.53125 529.097656 98.921875 522.933594 99.210938 C 521.671875 99.269531 520.378906 99.023438 519.125 98.78125 C 516.726562 98.3125 514.347656 97.742188 512.019531 97.226562 C 510.976562 98.984375 509.46875 103.445312 508.597656 107.242188 C 509.035156 109.34375 510.824219 110.773438 511.507812 112.910156 C 510.777344 116.976562 509.167969 120.84375 507.570312 124.628906 C 506.140625 125.902344 504.472656 126.484375 502.867188 127.183594 C 501.371094 127.832031 499.890625 128.523438 498.265625 129.257812 C 495.132812 129.007812 491.859375 128.914062 488.644531 128.425781 C 486.839844 128.148438 485.117188 127.269531 483.386719 126.578125 C 482.421875 126.195312 481.527344 125.644531 480.574219 125.15625 C 479.457031 122.753906 479.3125 120.238281 479.785156 117.667969 C 480.339844 114.667969 480.535156 111.65625 480.363281 108.605469 C 480.246094 106.511719 480.277344 104.40625 480.367188 102.3125 C 480.488281 99.378906 480.386719 96.484375 479.363281 93.757812 C 480.304688 90.722656 480.554688 87.707031 480.460938 84.652344 C 480.40625 82.90625 480.425781 81.15625 480.414062 79.421875 C 481.046875 78.140625 481.601562 76.917969 481.269531 75.402344 C 480.378906 71.394531 480.308594 67.304688 480.316406 63.21875 C 480.328125 58.433594 480.445312 53.648438 480.378906 48.867188 C 480.363281 47.503906 479.882812 46.148438 479.34375 44.808594 C 479.675781 41.683594 480.003906 38.554688 480.3125 35.65625 C 481.824219 33.566406 483.886719 32.628906 485.742188 31.4375 C 486.640625 30.859375 487.695312 30.835938 488.789062 30.898438 C 492.53125 31.121094 496.210938 31.695312 499.886719 32.414062 C 501.59375 32.75 503.351562 32.828125 505.277344 33.042969 M 539.667969 83.84375 C 539.757812 84.054688 539.570312 84.605469 540.136719 84.21875 C 539.988281 84.089844 539.84375 83.957031 539.695312 83.824219 C 540.226562 82.609375 539.960938 81.582031 538.875 80.847656 C 538.410156 80.535156 537.828125 80.363281 537.414062 81.292969 C 537.953125 82.238281 538.171875 83.550781 539.667969 83.84375 M 534.03125 60.113281 C 532.261719 58.449219 530.3125 57.761719 528.171875 57.566406 C 526.78125 57.4375 525.382812 57.40625 523.996094 57.265625 C 519.363281 56.792969 514.734375 56.289062 510.101562 55.796875 C 509.351562 55.714844 508.714844 55.882812 508.191406 56.757812 C 507.886719 61.792969 507.570312 67.015625 507.257812 72.132812 C 508.085938 73.449219 508.664062 74.742188 509.796875 75.609375 C 510.75 75.820312 511.652344 76.078125 512.578125 76.207031 C 513.257812 76.300781 514.097656 76.476562 514.628906 76.183594 C 516.238281 75.292969 518.066406 75.65625 519.6875 75.097656 C 522.144531 74.257812 524.6875 74.113281 527.214844 73.769531 C 528.21875 73.628906 529.351562 73.78125 530.230469 72.90625 C 532.027344 68.894531 533.347656 64.683594 534.03125 60.113281 M 492.816406 74.46875 C 495.316406 77.980469 496.976562 81.988281 500.40625 84.949219 C 500.539062 84.5 500.757812 84.167969 500.703125 83.886719 C 500.394531 82.179688 500.023438 80.480469 499.667969 78.78125 C 499.285156 76.953125 499.113281 75.121094 499.878906 73.351562 C 500.246094 72.511719 499.96875 71.78125 499.71875 70.945312 C 498.84375 70.300781 498.054688 69.398438 496.636719 69.46875 C 495.417969 71.0625 494.167969 72.703125 492.816406 74.46875 M 547.8125 68.316406 C 549.261719 67.089844 550.484375 66.054688 551.691406 65.035156 C 550.636719 62.175781 549.589844 59.476562 548.652344 56.738281 C 548.117188 55.167969 547.269531 53.808594 546.300781 52.425781 C 545.53125 54.0625 545.53125 54.0625 547.289062 62.195312 C 546.71875 63.921875 544.941406 65.109375 544.964844 67.320312 C 545.824219 67.621094 546.675781 67.917969 547.8125 68.316406 M 495.648438 52.972656 C 496.378906 53.152344 497.039062 53.359375 497.710938 53.46875 C 498.484375 53.597656 499.273438 53.640625 500.074219 53.722656 C 500.601562 52.238281 500.992188 50.917969 500.972656 49.464844 C 500.613281 49.136719 500.292969 48.84375 499.855469 48.445312 C 498.441406 49.632812 497.109375 50.722656 495.828125 51.867188 C 495.648438 52.03125 495.722656 52.476562 495.648438 52.972656 M 496.1875 97.816406 C 495.445312 98.371094 495.03125 98.515625 494.925781 98.785156 C 494.207031 100.601562 493.550781 102.441406 492.875 104.277344 C 492.53125 105.21875 492.886719 106.097656 493.160156 107.089844 C 495.492188 104.585938 495.472656 101.40625 496.1875 97.816406 M 505.488281 90.621094 C 507.382812 90.375 508.253906 89.046875 509.347656 87.691406 C 508.773438 87.222656 508.289062 86.78125 507.757812 86.40625 C 507.296875 86.085938 506.78125 85.800781 506.070312 86.382812 C 505.785156 87.640625 505.210938 88.992188 505.488281 90.621094 M 541.996094 75.109375 C 543.847656 75.191406 545.425781 74.769531 546.988281 73.308594 C 545.386719 72.828125 544.023438 72.382812 542.703125 72.371094 C 541.925781 73.15625 541.648438 73.855469 541.996094 75.109375 M 536.59375 48.867188 C 537.691406 49.753906 538.734375 50.59375 539.722656 51.394531 C 540.609375 50.910156 540.464844 50.308594 540.050781 49.898438 C 539.179688 49.039062 538.203125 48.28125 537.082031 47.324219 C 536.878906 47.96875 536.75 48.375 536.59375 48.867188 M 492.761719 49.054688 C 493.433594 48.960938 493.738281 48.917969 494.167969 48.855469 C 494.1875 48.285156 494.207031 47.765625 494.226562 47.136719 C 493.722656 47.21875 493.417969 47.269531 493.039062 47.328125 C 492.964844 47.789062 492.894531 48.207031 492.761719 49.054688 M 515.238281 44.734375 C 513.773438 44.3125 513.773438 44.3125 513.105469 45.003906 C 513.824219 45.585938 513.824219 45.585938 515.238281 44.734375 M 515.730469 43.871094 C 515.824219 43.820312 515.96875 43.785156 515.992188 43.714844 C 516.015625 43.644531 515.910156 43.53125 515.863281 43.4375 C 515.769531 43.488281 515.628906 43.527344 515.605469 43.597656 C 515.582031 43.667969 515.683594 43.78125 515.730469 43.871094 "/>
</g>
</g>
</g>
</g>
</g>
</g>
<g clip-path="url(#clip43)" clip-rule="nonzero">
<g clip-path="url(#clip44)" clip-rule="nonzero">
<g clip-path="url(#clip45)" clip-rule="nonzero">
<g clip-path="url(#clip46)" clip-rule="nonzero">
<g clip-path="url(#clip47)" clip-rule="nonzero">
<g clip-path="url(#clip48)" clip-rule="nonzero">
<path style=" stroke:none;fill-rule:nonzero;fill:rgb(69.018555%,82.348633%,20.779419%);fill-opacity:1;" d="M 455.789062 35.925781 C 459.058594 35.96875 461.902344 34.84375 464.988281 35.496094 C 467.820312 37.792969 468.386719 41.40625 469.894531 44.492188 C 469.40625 46.621094 468.058594 48.105469 466.476562 49.296875 C 464.472656 50.800781 463.019531 52.726562 461.589844 54.722656 C 460.558594 56.160156 460.285156 57.621094 460.8125 59.347656 C 461.425781 61.347656 461.84375 63.40625 462.339844 65.421875 C 460.984375 66.90625 459.433594 67.882812 457.683594 68.585938 C 455.738281 69.367188 453.816406 70.191406 451.894531 70.992188 C 450.066406 70.535156 448.695312 69.441406 447.347656 68.355469 C 445.472656 66.847656 443.417969 65.871094 440.710938 65.804688 C 437.800781 68 434.835938 70.476562 431.164062 72.136719 C 430.59375 71.832031 429.882812 71.632812 429.425781 71.179688 C 427.253906 69.023438 425.546875 66.523438 424.1875 63.546875 C 425.828125 60.503906 427.527344 57.347656 429.289062 54.074219 C 428.675781 53.527344 428.242188 52.976562 427.675781 52.652344 C 425.460938 51.371094 423.199219 50.171875 420.972656 48.917969 C 419.21875 47.925781 417.789062 46.578125 416.578125 44.753906 C 417.191406 41.976562 417.871094 39.15625 418.527344 36.457031 C 421.480469 34.933594 424.476562 34.53125 427.488281 34.078125 C 430.003906 35.761719 432.601562 37.285156 435.789062 37.90625 C 436.015625 37.355469 436.308594 36.859375 436.429688 36.324219 C 436.941406 34.039062 437.382812 31.738281 437.882812 29.453125 C 438.390625 27.140625 439.503906 25.097656 440.796875 23.152344 C 441.042969 22.78125 441.425781 22.503906 441.769531 22.15625 C 444.980469 23.078125 447.378906 25.054688 449.535156 27.347656 C 450.726562 28.613281 451.695312 30.070312 452.230469 31.761719 C 452.832031 33.652344 454.226562 34.835938 455.789062 35.925781 M 449.988281 50.039062 C 450.046875 50.351562 450.105469 50.664062 450.183594 51.101562 C 450.738281 51.132812 451.261719 51.160156 451.832031 51.191406 C 451.546875 49.800781 451.546875 49.800781 449.988281 50.039062 "/>
</g>
</g>
</g>
</g>
</g>
</g>
</g>
</svg>
