<?xml version="1.0" encoding="UTF-8"?>
<svg xmlns="http://www.w3.org/2000/svg" xmlns:xlink="http://www.w3.org/1999/xlink" width="96pt" height="95.999999pt" viewBox="0 0 96 95.999999" version="1.2">
<defs>
<clipPath id="clip1">
  <path d="M 7 31 L 52 31 L 52 67 L 7 67 Z M 7 31 "/>
</clipPath>
<clipPath id="clip2">
  <path d="M 7.691406 24.679688 L 51.59375 30.234375 L 46.414062 71.15625 L 2.515625 65.605469 Z M 7.691406 24.679688 "/>
</clipPath>
<clipPath id="clip3">
  <path d="M 7.246094 -17.648438 L 287.011719 17.75 L 275.152344 111.503906 L -4.617188 76.105469 Z M 7.246094 -17.648438 "/>
</clipPath>
<clipPath id="clip4">
  <path d="M 7.246094 -17.648438 L 287.035156 17.753906 L 275.207031 111.238281 L -4.585938 75.839844 Z M 7.246094 -17.648438 "/>
</clipPath>
<clipPath id="clip5">
  <path d="M 7.496094 -17.617188 L 286.820312 17.726562 L 274.96875 111.390625 L -4.351562 76.046875 Z M 7.496094 -17.617188 "/>
</clipPath>
<clipPath id="clip6">
  <path d="M 7.496094 -17.617188 L 286.78125 17.722656 L 274.953125 111.207031 L -4.332031 75.871094 Z M 7.496094 -17.617188 "/>
</clipPath>
<clipPath id="clip7">
  <path d="M 51 30 L 52 30 L 52 67 L 51 67 Z M 51 30 "/>
</clipPath>
<clipPath id="clip8">
  <path d="M 7.691406 24.679688 L 51.59375 30.234375 L 46.414062 71.15625 L 2.515625 65.605469 Z M 7.691406 24.679688 "/>
</clipPath>
<clipPath id="clip9">
  <path d="M 7.246094 -17.648438 L 287.011719 17.75 L 275.152344 111.503906 L -4.617188 76.105469 Z M 7.246094 -17.648438 "/>
</clipPath>
<clipPath id="clip10">
  <path d="M 7.246094 -17.648438 L 287.035156 17.753906 L 275.207031 111.238281 L -4.585938 75.839844 Z M 7.246094 -17.648438 "/>
</clipPath>
<clipPath id="clip11">
  <path d="M 7.496094 -17.617188 L 286.820312 17.726562 L 274.96875 111.390625 L -4.351562 76.046875 Z M 7.496094 -17.617188 "/>
</clipPath>
<clipPath id="clip12">
  <path d="M 7.496094 -17.617188 L 286.78125 17.722656 L 274.953125 111.207031 L -4.332031 75.871094 Z M 7.496094 -17.617188 "/>
</clipPath>
<clipPath id="clip13">
  <path d="M 57 30 L 89 30 L 89 68 L 57 68 Z M 57 30 "/>
</clipPath>
<clipPath id="clip14">
  <path d="M 57.410156 27.535156 L 92.382812 31.957031 L 87.390625 71.394531 L 52.421875 66.96875 Z M 57.410156 27.535156 "/>
</clipPath>
<clipPath id="clip15">
  <path d="M -113.414062 -20.03125 L 176.773438 16.6875 L 164.441406 114.160156 L -125.746094 77.441406 Z M -113.414062 -20.03125 "/>
</clipPath>
<clipPath id="clip16">
  <path d="M -113.414062 -20.03125 L 176.65625 16.671875 L 164.335938 114.050781 L -125.734375 77.347656 Z M -113.414062 -20.03125 "/>
</clipPath>
<clipPath id="clip17">
  <path d="M -113.148438 -19.996094 L 176.429688 16.640625 L 164.085938 114.207031 L -125.492188 77.566406 Z M -113.148438 -19.996094 "/>
</clipPath>
<clipPath id="clip18">
  <path d="M -113.148438 -19.996094 L 176.390625 16.636719 L 164.070312 114.015625 L -125.46875 77.382812 Z M -113.148438 -19.996094 "/>
</clipPath>
<clipPath id="clip19">
  <path d="M 52 27 L 54 27 L 54 46 L 52 46 Z M 52 27 "/>
</clipPath>
<clipPath id="clip20">
  <path d="M 57.410156 27.535156 L 92.382812 31.957031 L 87.390625 71.394531 L 52.421875 66.96875 Z M 57.410156 27.535156 "/>
</clipPath>
<clipPath id="clip21">
  <path d="M -113.414062 -20.03125 L 176.773438 16.6875 L 164.441406 114.160156 L -125.746094 77.441406 Z M -113.414062 -20.03125 "/>
</clipPath>
<clipPath id="clip22">
  <path d="M -113.414062 -20.03125 L 176.65625 16.671875 L 164.335938 114.050781 L -125.734375 77.347656 Z M -113.414062 -20.03125 "/>
</clipPath>
<clipPath id="clip23">
  <path d="M -113.148438 -19.996094 L 176.429688 16.640625 L 164.085938 114.207031 L -125.492188 77.566406 Z M -113.148438 -19.996094 "/>
</clipPath>
<clipPath id="clip24">
  <path d="M -113.148438 -19.996094 L 176.390625 16.636719 L 164.070312 114.015625 L -125.46875 77.382812 Z M -113.148438 -19.996094 "/>
</clipPath>
</defs>
<g id="surface1">
<path style=" stroke:none;fill-rule:nonzero;fill:rgb(27.449036%,29.798889%,50.19989%);fill-opacity:1;" d="M 48 0 C 46.429688 0 44.859375 0.078125 43.296875 0.230469 C 41.730469 0.386719 40.175781 0.617188 38.636719 0.921875 C 37.09375 1.230469 35.570312 1.609375 34.066406 2.066406 C 32.5625 2.523438 31.082031 3.050781 29.632812 3.652344 C 28.179688 4.253906 26.757812 4.925781 25.371094 5.667969 C 23.988281 6.410156 22.640625 7.214844 21.332031 8.089844 C 20.027344 8.960938 18.765625 9.898438 17.550781 10.894531 C 16.332031 11.894531 15.171875 12.945312 14.058594 14.058594 C 12.945312 15.171875 11.894531 16.332031 10.894531 17.550781 C 9.898438 18.765625 8.960938 20.027344 8.089844 21.332031 C 7.214844 22.640625 6.410156 23.988281 5.667969 25.371094 C 4.925781 26.757812 4.253906 28.179688 3.652344 29.632812 C 3.050781 31.082031 2.523438 32.5625 2.066406 34.066406 C 1.609375 35.570312 1.230469 37.09375 0.921875 38.636719 C 0.617188 40.175781 0.386719 41.730469 0.230469 43.296875 C 0.078125 44.859375 0 46.429688 0 48 C 0 49.570312 0.078125 51.140625 0.230469 52.703125 C 0.386719 54.269531 0.617188 55.824219 0.921875 57.363281 C 1.230469 58.90625 1.609375 60.429688 2.066406 61.933594 C 2.523438 63.4375 3.050781 64.917969 3.652344 66.367188 C 4.253906 67.820312 4.925781 69.242188 5.667969 70.628906 C 6.410156 72.011719 7.214844 73.359375 8.089844 74.667969 C 8.960938 75.972656 9.898438 77.234375 10.894531 78.449219 C 11.894531 79.667969 12.945312 80.828125 14.058594 81.941406 C 15.171875 83.050781 16.332031 84.105469 17.550781 85.105469 C 18.765625 86.101562 20.027344 87.039062 21.332031 87.910156 C 22.640625 88.785156 23.988281 89.589844 25.371094 90.332031 C 26.757812 91.074219 28.179688 91.746094 29.632812 92.347656 C 31.082031 92.949219 32.5625 93.476562 34.066406 93.933594 C 35.570312 94.390625 37.09375 94.769531 38.636719 95.078125 C 40.175781 95.382812 41.730469 95.613281 43.296875 95.769531 C 44.859375 95.921875 46.429688 96 48 96 C 49.570312 96 51.140625 95.921875 52.703125 95.769531 C 54.269531 95.613281 55.824219 95.382812 57.363281 95.078125 C 58.90625 94.769531 60.429688 94.390625 61.933594 93.933594 C 63.4375 93.476562 64.917969 92.949219 66.367188 92.347656 C 67.820312 91.746094 69.242188 91.074219 70.628906 90.332031 C 72.011719 89.589844 73.359375 88.785156 74.667969 87.910156 C 75.972656 87.039062 77.234375 86.101562 78.449219 85.105469 C 79.667969 84.105469 80.828125 83.050781 81.941406 81.941406 C 83.050781 80.828125 84.105469 79.667969 85.105469 78.449219 C 86.101562 77.234375 87.039062 75.972656 87.910156 74.667969 C 88.785156 73.359375 89.589844 72.011719 90.332031 70.628906 C 91.074219 69.242188 91.746094 67.820312 92.347656 66.367188 C 92.949219 64.917969 93.476562 63.4375 93.933594 61.933594 C 94.390625 60.429688 94.769531 58.90625 95.078125 57.363281 C 95.382812 55.824219 95.613281 54.269531 95.769531 52.703125 C 95.921875 51.140625 96 49.570312 96 48 C 96 46.429688 95.921875 44.859375 95.769531 43.296875 C 95.613281 41.730469 95.382812 40.175781 95.078125 38.636719 C 94.769531 37.09375 94.390625 35.570312 93.933594 34.066406 C 93.476562 32.5625 92.949219 31.082031 92.347656 29.632812 C 91.746094 28.179688 91.074219 26.757812 90.332031 25.371094 C 89.589844 23.988281 88.785156 22.640625 87.910156 21.332031 C 87.039062 20.027344 86.101562 18.765625 85.105469 17.550781 C 84.105469 16.332031 83.050781 15.171875 81.941406 14.058594 C 80.828125 12.945312 79.667969 11.894531 78.449219 10.894531 C 77.234375 9.898438 75.972656 8.960938 74.667969 8.089844 C 73.359375 7.214844 72.011719 6.410156 70.628906 5.667969 C 69.242188 4.925781 67.820312 4.253906 66.367188 3.652344 C 64.917969 3.050781 63.4375 2.523438 61.933594 2.066406 C 60.429688 1.609375 58.90625 1.230469 57.363281 0.921875 C 55.824219 0.617188 54.269531 0.386719 52.703125 0.230469 C 51.140625 0.078125 49.570312 0 48 0 Z M 48 0 "/>
<g clip-path="url(#clip1)" clip-rule="nonzero">
<g clip-path="url(#clip2)" clip-rule="nonzero">
<g clip-path="url(#clip3)" clip-rule="nonzero">
<g clip-path="url(#clip4)" clip-rule="nonzero">
<g clip-path="url(#clip5)" clip-rule="nonzero">
<g clip-path="url(#clip6)" clip-rule="nonzero">
<path style=" stroke:none;fill-rule:nonzero;fill:rgb(69.018555%,82.348633%,20.779419%);fill-opacity:1;" d="M 41.875 65.734375 C 40.714844 65.742188 39.628906 65.761719 38.542969 65.757812 C 38 65.757812 37.4375 65.792969 36.914062 65.675781 C 36.101562 65.492188 35.300781 65.21875 34.511719 64.9375 C 34.117188 64.796875 33.808594 64.507812 33.585938 64.128906 C 32.992188 63.109375 32.527344 62.03125 32.273438 60.886719 C 31.726562 58.445312 31.234375 55.992188 30.714844 53.546875 C 30.457031 52.320312 30.167969 51.101562 29.910156 49.878906 C 29.816406 49.433594 29.746094 48.976562 29.710938 48.523438 C 29.601562 47.15625 29.523438 45.789062 29.417969 44.421875 C 29.398438 44.144531 29.320312 43.871094 29.246094 43.484375 C 28.890625 43.933594 28.605469 44.289062 28.347656 44.617188 C 28.257812 45.027344 28.195312 45.402344 28.089844 45.761719 C 27.882812 46.476562 27.890625 47.164062 28.335938 47.824219 C 28.28125 48.238281 28.25 48.65625 28.167969 49.0625 C 27.640625 51.722656 27.105469 54.382812 26.5625 57.042969 C 26.316406 58.230469 26.046875 59.414062 25.789062 60.597656 C 25.644531 61.25 25.53125 61.914062 25.34375 62.554688 C 25.160156 63.195312 24.90625 63.8125 24.667969 64.488281 C 24.089844 64.871094 23.371094 64.976562 22.703125 65.183594 C 21.820312 65.460938 20.914062 65.648438 20.035156 65.925781 C 19.539062 66.082031 19.039062 66.082031 18.546875 66.027344 C 17.839844 65.953125 17.136719 65.800781 16.445312 65.683594 C 15.761719 64.949219 15.289062 64.117188 14.871094 63.253906 C 14.359375 62.203125 13.910156 61.125 13.378906 60.085938 C 13.089844 59.515625 12.894531 58.929688 12.785156 58.316406 C 12.636719 57.496094 12.511719 56.671875 12.417969 55.84375 C 12.347656 55.257812 12.195312 54.707031 11.9375 54.171875 C 11.539062 53.34375 11.183594 52.496094 10.8125 51.660156 C 10.929688 51.359375 11.035156 51.089844 11.179688 50.726562 C 11.078125 50.367188 10.957031 49.929688 10.828125 49.492188 C 10.285156 47.609375 9.71875 45.738281 9.199219 43.851562 C 8.992188 43.089844 8.898438 42.296875 8.722656 41.523438 C 8.347656 39.855469 7.984375 38.183594 7.542969 36.53125 C 7.359375 35.839844 7.207031 35.167969 7.234375 34.449219 C 7.25 33.996094 7.183594 33.539062 7.148438 33.027344 C 7.800781 32.304688 8.566406 31.671875 9.351562 31.082031 C 10.925781 31.058594 12.472656 31.035156 14.015625 31.023438 C 14.3125 31.019531 14.578125 31.128906 14.84375 31.277344 C 15.707031 31.753906 16.390625 32.417969 17.09375 33.238281 C 17.160156 33.632812 17.238281 34.125 17.320312 34.613281 C 17.355469 34.820312 17.367188 35.035156 17.4375 35.226562 C 18.027344 36.882812 17.878906 38.601562 17.867188 40.300781 C 17.859375 41.269531 17.9375 42.203125 18.183594 43.144531 C 18.734375 45.238281 19.230469 47.347656 19.734375 49.410156 C 19.589844 50.519531 19.234375 51.542969 19.105469 52.652344 C 19.90625 52.601562 20.355469 52.125 20.894531 51.828125 C 21.15625 51.679688 21.394531 51.519531 21.503906 51.109375 C 21.371094 50.636719 21.222656 50.074219 21.058594 49.515625 C 20.875 48.898438 20.878906 48.300781 21.015625 47.664062 C 21.757812 44.316406 22.445312 40.957031 23.191406 37.613281 C 23.476562 36.339844 23.53125 35.054688 23.652344 33.769531 C 23.6875 33.398438 23.71875 33.027344 23.757812 32.617188 C 24.671875 31.882812 25.722656 31.511719 26.871094 31.480469 C 27.535156 31.464844 28.207031 31.589844 28.871094 31.648438 C 29.246094 31.679688 29.621094 31.722656 30 31.738281 C 31.183594 31.796875 32.289062 32.1875 33.414062 32.972656 C 34.050781 34.253906 34.464844 35.636719 34.703125 37.089844 C 35.015625 39.023438 35.414062 40.941406 35.769531 42.863281 C 36.121094 44.789062 36.460938 46.71875 36.808594 48.644531 C 36.875 49.011719 36.921875 49.390625 37.042969 49.746094 C 37.230469 50.285156 37.121094 50.722656 36.722656 51.117188 C 36.667969 51.167969 36.65625 51.265625 36.609375 51.371094 C 36.828125 52.320312 37.441406 53.027344 38.199219 53.703125 C 38.980469 53 39.101562 52.039062 39.332031 51.105469 C 39.164062 50.472656 38.980469 49.832031 38.828125 49.183594 C 38.648438 48.40625 38.65625 47.621094 38.726562 46.828125 C 38.890625 44.917969 39.238281 43.03125 39.3125 41.109375 C 39.34375 40.238281 39.570312 39.382812 39.621094 38.503906 C 39.675781 37.464844 39.863281 36.433594 39.96875 35.398438 C 40.078125 34.332031 40.441406 33.375 41.097656 32.519531 C 41.324219 32.222656 41.527344 31.910156 41.710938 31.648438 C 42.65625 31.335938 44.0625 31.175781 46.800781 31.050781 C 47.84375 31.519531 48.945312 32.011719 50.097656 32.527344 C 50.277344 32.824219 50.476562 33.140625 50.667969 33.460938 C 50.859375 33.78125 51.042969 34.105469 51.234375 34.429688 C 50.617188 35.441406 50.300781 36.511719 50.023438 37.605469 C 49.445312 39.914062 48.875 42.226562 48.183594 44.503906 C 47.636719 46.304688 47.234375 48.140625 46.753906 49.957031 C 46.339844 51.527344 45.917969 53.101562 45.457031 54.660156 C 45.28125 55.253906 44.984375 55.8125 44.738281 56.386719 C 44.441406 57.074219 44.140625 57.757812 43.882812 58.355469 C 43.996094 59.207031 44.070312 59.953125 44.199219 60.691406 C 44.296875 61.253906 44.203125 61.804688 43.957031 62.273438 C 43.351562 63.410156 42.667969 64.507812 42.011719 65.617188 C 41.992188 65.652344 41.953125 65.671875 41.875 65.734375 M 31.945312 38.871094 C 30.691406 38.175781 29.527344 37.609375 28.519531 36.78125 C 28.445312 36.71875 28.292969 36.75 28.117188 36.730469 C 27.753906 37.796875 27.160156 38.75 26.820312 39.84375 C 27.335938 40.339844 27.855469 40.707031 28.53125 40.8125 C 28.929688 40.390625 28.703125 39.765625 29.171875 39.378906 C 29.898438 39.511719 30.46875 40.074219 31.261719 40.257812 C 31.472656 39.832031 31.6875 39.394531 31.945312 38.871094 M 37.125 59.390625 C 36.851562 59.972656 36.636719 60.414062 36.4375 60.863281 C 36.40625 60.933594 36.425781 61.023438 36.417969 61.164062 C 36.503906 61.289062 36.617188 61.453125 36.734375 61.613281 C 37.492188 61.410156 37.785156 60.78125 38.257812 60.378906 C 38.082031 59.808594 37.621094 59.695312 37.125 59.390625 M 18.675781 55.953125 C 19.074219 56.800781 19.707031 57.261719 20.386719 57.675781 C 20.570312 57.789062 20.75 57.875 20.960938 57.761719 C 20.878906 57.289062 20.882812 57.285156 20.273438 56.691406 C 19.851562 56.28125 19.410156 55.910156 18.675781 55.953125 M 13.46875 45.808594 C 13.707031 45.011719 13.664062 44.359375 13.75 43.726562 C 13.757812 43.671875 13.660156 43.605469 13.574219 43.488281 C 13.328125 43.542969 13.058594 43.601562 12.804688 43.65625 C 12.671875 44.5625 12.71875 44.726562 13.46875 45.808594 M 42.65625 47.855469 C 42.816406 48.171875 42.914062 48.546875 43.347656 48.671875 C 43.558594 48.480469 43.617188 48.25 43.484375 48.011719 C 43.351562 47.765625 43.265625 47.46875 42.953125 47.382812 C 42.65625 47.421875 42.683594 47.648438 42.65625 47.855469 M 14.074219 37.855469 C 13.679688 37.242188 13.675781 37.246094 13.453125 37.230469 C 13.042969 37.582031 12.976562 37.792969 13.171875 38.121094 C 13.507812 38.277344 13.800781 38.246094 14.074219 37.855469 M 33.894531 51.984375 C 34 51.472656 34.042969 51.121094 33.539062 50.9375 C 33.421875 51.078125 33.3125 51.195312 33.21875 51.328125 C 33.152344 51.425781 33.105469 51.539062 33.039062 51.664062 C 33.144531 51.75 33.222656 51.859375 33.328125 51.894531 C 33.472656 51.949219 33.636719 51.945312 33.894531 51.984375 M 45.285156 41.113281 C 45.523438 40.835938 45.601562 40.542969 45.441406 40.214844 C 45.242188 40.140625 45.050781 40.03125 44.828125 40.304688 C 44.882812 40.527344 44.957031 40.796875 45.023438 41.054688 C 45.136719 41.078125 45.210938 41.09375 45.285156 41.113281 M 17.496094 52.90625 C 17.394531 53.179688 17.292969 53.410156 17.613281 53.546875 C 17.882812 53.53125 18.0625 53.40625 18.140625 53.148438 C 18.066406 52.828125 17.835938 52.835938 17.496094 52.90625 M 37.84375 56.171875 C 37.957031 55.703125 37.949219 55.707031 37.46875 55.417969 C 37.410156 55.507812 37.351562 55.597656 37.269531 55.722656 C 37.46875 55.878906 37.644531 56.015625 37.84375 56.171875 M 43.839844 43.507812 C 43.949219 43.589844 44.039062 43.660156 44.125 43.726562 C 44.359375 43.449219 44.359375 43.449219 44.046875 43.222656 C 43.984375 43.3125 43.917969 43.402344 43.839844 43.507812 M 14.984375 47.683594 C 15.089844 47.765625 15.179688 47.832031 15.265625 47.898438 C 15.496094 47.621094 15.496094 47.621094 15.1875 47.402344 C 15.125 47.488281 15.058594 47.578125 14.984375 47.683594 "/>
</g>
</g>
</g>
</g>
</g>
</g>
<g clip-path="url(#clip7)" clip-rule="nonzero">
<g clip-path="url(#clip8)" clip-rule="nonzero">
<g clip-path="url(#clip9)" clip-rule="nonzero">
<g clip-path="url(#clip10)" clip-rule="nonzero">
<g clip-path="url(#clip11)" clip-rule="nonzero">
<g clip-path="url(#clip12)" clip-rule="nonzero">
<path style=" stroke:none;fill-rule:nonzero;fill:rgb(69.018555%,82.348633%,20.779419%);fill-opacity:1;" d="M 51.984375 33.582031 C 52.953125 32.28125 53.65625 31.589844 54.894531 30.695312 C 55.117188 30.683594 55.371094 30.628906 55.617188 30.65625 C 56.699219 30.785156 57.78125 30.917969 58.855469 31.085938 C 60.144531 31.285156 61.429688 31.378906 62.734375 31.230469 C 63.851562 31.101562 64.980469 31.046875 66.109375 30.992188 C 66.648438 30.964844 67.195312 30.992188 67.738281 31.027344 C 68.53125 31.078125 69.324219 31.144531 70.117188 31.226562 C 70.996094 31.3125 71.867188 31.359375 72.675781 31.027344 C 74.257812 31.210938 75.613281 31.832031 76.878906 32.804688 C 76.933594 33.050781 77.015625 33.332031 77.042969 33.613281 C 77.140625 34.523438 77.171875 35.441406 77.3125 36.339844 C 77.414062 36.957031 77.289062 37.527344 77.035156 38.039062 C 76.6875 38.742188 76.339844 39.460938 75.777344 40.058594 C 74.988281 40.171875 74.199219 40.285156 73.332031 40.410156 C 72.214844 39.851562 70.929688 40.003906 69.683594 39.933594 C 67.808594 39.828125 65.921875 39.863281 64.039062 39.820312 C 63.289062 39.800781 62.535156 39.726562 61.785156 39.6875 C 61.574219 39.675781 61.363281 39.695312 61.179688 39.96875 C 61.511719 41.0625 61.800781 42.222656 62.277344 43.367188 C 62.457031 43.394531 62.617188 43.449219 62.773438 43.4375 C 65.566406 43.234375 68.359375 43.019531 71.152344 42.8125 C 71.695312 42.769531 72.242188 42.757812 72.785156 42.71875 C 73.703125 42.652344 74.53125 42.878906 75.246094 43.46875 C 75.695312 43.839844 76.152344 44.203125 76.644531 44.601562 C 76.40625 45.835938 76.546875 47.117188 76.066406 48.292969 C 75.578125 49.484375 75.097656 50.6875 74.28125 51.769531 C 72.382812 51.886719 70.464844 52.011719 68.742188 52.121094 C 66.863281 51.617188 65.167969 51.160156 63.410156 50.6875 C 62.226562 51.820312 61.71875 53.277344 61.527344 54.894531 C 61.746094 55.234375 62.074219 55.414062 62.445312 55.5 C 63.550781 55.753906 64.648438 56.070312 65.769531 56.207031 C 66.589844 56.304688 67.4375 56.164062 68.269531 56.105469 C 71.023438 55.910156 73.777344 55.707031 76.570312 55.503906 C 76.945312 55.722656 77.339844 55.949219 77.753906 56.191406 C 77.808594 56.394531 77.882812 56.589844 77.917969 56.792969 C 78.101562 57.816406 78.273438 58.84375 78.453125 59.867188 C 78.535156 60.324219 78.527344 60.769531 78.433594 61.230469 C 78.152344 62.628906 77.792969 63.992188 77 65.269531 C 75.632812 65.503906 74.214844 65.574219 72.730469 65.695312 C 72.234375 65.398438 71.644531 65.289062 71 65.238281 C 69.664062 65.128906 68.335938 64.914062 67.011719 64.703125 C 66.457031 64.617188 65.941406 64.636719 65.394531 64.757812 C 64.042969 65.058594 62.675781 65.25 61.289062 65.292969 C 60.664062 65.3125 60.042969 65.460938 59.421875 65.550781 C 58.347656 65.707031 57.269531 65.835938 56.199219 66.023438 C 55.667969 66.113281 55.203125 66.023438 54.75 65.761719 C 53.695312 65.140625 52.761719 64.371094 51.925781 63.476562 C 51.679688 63.214844 51.582031 62.910156 51.546875 62.574219 C 51.449219 61.582031 51.351562 60.589844 51.269531 59.59375 C 51.25 59.347656 51.234375 59.082031 51.300781 58.851562 C 51.601562 57.800781 51.785156 56.738281 51.820312 55.648438 C 51.828125 55.441406 51.882812 55.238281 51.929688 54.9375 C 51.355469 53.617188 51.582031 52.148438 51.617188 50.699219 C 51.65625 48.996094 51.824219 47.292969 51.910156 45.589844 C 51.933594 45.09375 51.878906 44.59375 51.84375 44.097656 C 51.761719 42.976562 51.632812 41.859375 51.597656 40.738281 C 51.566406 39.699219 51.621094 38.65625 51.664062 37.617188 C 51.707031 36.621094 51.777344 35.625 51.847656 34.625 C 51.875 34.253906 51.945312 33.882812 51.984375 33.582031 M 60.617188 58.640625 C 60.03125 59.304688 59.488281 59.800781 59.207031 60.503906 C 59.355469 60.742188 59.46875 60.964844 59.613281 61.164062 C 59.78125 61.390625 60 61.460938 60.238281 61.246094 C 60.734375 59.796875 60.796875 59.441406 60.617188 58.640625 M 65.441406 61.605469 C 65.84375 61.371094 66.171875 61.191406 66.480469 60.988281 C 66.558594 60.933594 66.574219 60.789062 66.644531 60.628906 C 66.375 60.535156 66.140625 60.460938 65.914062 60.375 C 65.65625 60.269531 65.402344 60.152344 65.144531 60.042969 C 64.863281 60.695312 64.863281 60.695312 65.441406 61.605469 M 68.441406 34.257812 C 68.417969 34.402344 68.371094 34.492188 68.398438 34.554688 C 68.621094 35.066406 69.09375 35.347656 69.445312 35.726562 C 69.617188 35.699219 69.734375 35.679688 69.878906 35.65625 C 69.867188 35.523438 69.898438 35.371094 69.835938 35.300781 C 69.539062 34.957031 69.226562 34.625 68.890625 34.324219 C 68.796875 34.238281 68.589844 34.277344 68.441406 34.257812 M 54.636719 55.613281 C 54.78125 56.066406 55.015625 56.359375 55.269531 56.636719 C 55.347656 56.71875 55.480469 56.753906 55.59375 56.808594 C 55.742188 56.878906 55.902344 56.773438 55.964844 56.519531 C 55.804688 56.285156 55.621094 56.015625 55.441406 55.75 C 55.171875 55.703125 54.9375 55.664062 54.636719 55.613281 M 57.859375 39.109375 C 57.535156 39.648438 57.226562 40.164062 56.90625 40.699219 C 56.980469 40.78125 57.058594 40.859375 57.128906 40.933594 C 57.765625 40.601562 57.789062 39.929688 58.105469 39.421875 C 58.023438 39.316406 57.949219 39.222656 57.859375 39.109375 M 57.277344 44.832031 C 57.046875 44.238281 56.683594 44.09375 56.179688 44.222656 C 56.261719 44.925781 56.492188 45.066406 57.277344 44.832031 M 57.578125 46.882812 C 57.671875 47.203125 57.761719 47.5 57.863281 47.84375 C 58.078125 47.808594 58.226562 47.785156 58.371094 47.761719 C 58.414062 47.597656 58.449219 47.480469 58.480469 47.367188 C 58.324219 46.984375 58.125 46.699219 57.578125 46.882812 M 56.089844 52.054688 C 55.769531 52.179688 55.792969 52.429688 55.882812 52.65625 C 56.011719 52.976562 56.222656 53.214844 56.628906 53.058594 C 56.523438 52.675781 56.550781 52.230469 56.089844 52.054688 M 69.035156 60.988281 C 69.539062 60.945312 69.5625 60.429688 69.921875 60.207031 C 69.800781 60.074219 69.726562 59.992188 69.65625 59.914062 C 69.019531 60.484375 69.027344 60.492188 69.035156 60.988281 M 55.96875 60.917969 C 56.351562 61.710938 56.351562 61.710938 56.859375 61.511719 C 56.683594 61.277344 56.519531 61.046875 56.28125 60.726562 C 56.144531 60.808594 56.050781 60.867188 55.96875 60.917969 M 57.125 53.066406 C 56.9375 53.238281 56.824219 53.425781 56.976562 53.683594 C 57.046875 53.714844 57.117188 53.746094 57.1875 53.777344 C 57.515625 53.328125 57.523438 53.328125 57.125 53.066406 M 59.386719 56.824219 C 59.210938 56.867188 59.097656 56.890625 58.988281 56.917969 C 59.101562 57.386719 59.101562 57.386719 59.675781 57.242188 C 59.566406 57.085938 59.476562 56.953125 59.386719 56.824219 "/>
</g>
</g>
</g>
</g>
</g>
</g>
<g clip-path="url(#clip13)" clip-rule="nonzero">
<g clip-path="url(#clip14)" clip-rule="nonzero">
<g clip-path="url(#clip15)" clip-rule="nonzero">
<g clip-path="url(#clip16)" clip-rule="nonzero">
<g clip-path="url(#clip17)" clip-rule="nonzero">
<g clip-path="url(#clip18)" clip-rule="nonzero">
<path style=" stroke:none;fill-rule:nonzero;fill:rgb(69.018555%,82.348633%,20.779419%);fill-opacity:1;" d="M 67.046875 31.402344 C 67.597656 30.980469 68.144531 30.960938 68.722656 30.964844 C 71.324219 30.984375 73.925781 30.964844 76.605469 30.957031 C 78.734375 31.578125 80.945312 32.222656 83.210938 32.886719 C 84.972656 34.15625 86.523438 35.71875 87.851562 37.53125 C 88.09375 39.808594 88.339844 42.085938 88.578125 44.363281 C 88.675781 45.261719 88.367188 46.101562 88.046875 46.898438 C 87.5 48.261719 86.941406 49.628906 86.167969 50.886719 C 85.988281 51.179688 85.8125 51.5 85.5625 51.71875 C 84.046875 53.027344 82.511719 54.304688 80.851562 55.421875 C 80.742188 55.496094 80.625 55.554688 80.511719 55.617188 C 78.214844 55.75 75.921875 55.894531 73.628906 56 C 73.15625 56.023438 72.675781 55.933594 72.210938 55.839844 C 71.316406 55.667969 70.429688 55.457031 69.5625 55.261719 C 69.175781 55.917969 68.613281 57.574219 68.289062 58.988281 C 68.453125 59.769531 69.117188 60.300781 69.375 61.09375 C 69.101562 62.605469 68.503906 64.042969 67.90625 65.449219 C 67.375 65.925781 66.753906 66.140625 66.15625 66.398438 C 65.601562 66.640625 65.050781 66.898438 64.445312 67.171875 C 63.277344 67.078125 62.058594 67.042969 60.859375 66.859375 C 60.1875 66.757812 59.546875 66.429688 58.902344 66.171875 C 58.542969 66.03125 58.210938 65.824219 57.855469 65.644531 C 57.4375 64.753906 57.386719 63.816406 57.5625 62.859375 C 57.765625 61.746094 57.839844 60.625 57.777344 59.492188 C 57.734375 58.714844 57.742188 57.929688 57.777344 57.152344 C 57.820312 56.0625 57.785156 54.984375 57.402344 53.972656 C 57.753906 52.84375 57.84375 51.722656 57.808594 50.585938 C 57.789062 49.9375 57.796875 49.285156 57.792969 48.640625 C 58.027344 48.164062 58.234375 47.710938 58.109375 47.148438 C 57.78125 45.65625 57.753906 44.136719 57.753906 42.617188 C 57.757812 40.839844 57.800781 39.058594 57.777344 37.28125 C 57.769531 36.773438 57.589844 36.269531 57.390625 35.773438 C 57.515625 34.609375 57.636719 33.449219 57.75 32.371094 C 58.316406 31.59375 59.082031 31.246094 59.773438 30.800781 C 60.105469 30.585938 60.5 30.578125 60.90625 30.601562 C 62.300781 30.6875 63.671875 30.898438 65.039062 31.167969 C 65.675781 31.292969 66.328125 31.320312 67.046875 31.402344 M 79.859375 50.289062 C 79.890625 50.367188 79.820312 50.574219 80.03125 50.429688 C 79.976562 50.382812 79.921875 50.332031 79.867188 50.285156 C 80.066406 49.832031 79.96875 49.449219 79.5625 49.175781 C 79.390625 49.058594 79.171875 48.996094 79.019531 49.339844 C 79.21875 49.691406 79.300781 50.179688 79.859375 50.289062 M 77.757812 41.464844 C 77.097656 40.847656 76.371094 40.59375 75.574219 40.519531 C 75.058594 40.472656 74.535156 40.460938 74.019531 40.40625 C 72.292969 40.230469 70.570312 40.042969 68.847656 39.859375 C 68.566406 39.832031 68.328125 39.890625 68.136719 40.21875 C 68.023438 42.089844 67.902344 44.03125 67.789062 45.933594 C 68.097656 46.421875 68.3125 46.902344 68.734375 47.226562 C 69.089844 47.304688 69.425781 47.402344 69.769531 47.449219 C 70.023438 47.484375 70.335938 47.546875 70.53125 47.441406 C 71.132812 47.109375 71.8125 47.242188 72.417969 47.035156 C 73.332031 46.722656 74.277344 46.671875 75.21875 46.542969 C 75.59375 46.492188 76.015625 46.546875 76.34375 46.222656 C 77.011719 44.730469 77.503906 43.164062 77.757812 41.464844 M 62.410156 46.800781 C 63.339844 48.105469 63.960938 49.597656 65.238281 50.699219 C 65.289062 50.53125 65.367188 50.40625 65.347656 50.304688 C 65.234375 49.667969 65.09375 49.035156 64.960938 48.40625 C 64.820312 47.726562 64.753906 47.042969 65.039062 46.386719 C 65.175781 46.074219 65.074219 45.800781 64.980469 45.492188 C 64.65625 45.253906 64.359375 44.914062 63.832031 44.941406 C 63.378906 45.535156 62.914062 46.144531 62.410156 46.800781 M 82.890625 44.515625 C 83.429688 44.0625 83.886719 43.675781 84.332031 43.300781 C 83.941406 42.234375 83.550781 41.230469 83.203125 40.214844 C 83 39.628906 82.6875 39.125 82.324219 38.609375 C 82.039062 39.21875 82.039062 39.21875 82.695312 42.242188 C 82.480469 42.882812 81.820312 43.324219 81.828125 44.148438 C 82.148438 44.257812 82.464844 44.371094 82.890625 44.515625 M 63.464844 38.808594 C 63.734375 38.875 63.980469 38.953125 64.230469 38.996094 C 64.519531 39.042969 64.8125 39.058594 65.113281 39.089844 C 65.308594 38.535156 65.453125 38.046875 65.445312 37.503906 C 65.3125 37.382812 65.191406 37.273438 65.027344 37.125 C 64.503906 37.566406 64.007812 37.972656 63.53125 38.398438 C 63.460938 38.457031 63.492188 38.625 63.464844 38.808594 M 63.667969 55.480469 C 63.390625 55.6875 63.238281 55.742188 63.199219 55.839844 C 62.929688 56.515625 62.683594 57.203125 62.433594 57.882812 C 62.304688 58.234375 62.441406 58.558594 62.542969 58.929688 C 63.410156 57.996094 63.402344 56.816406 63.667969 55.480469 M 67.128906 52.808594 C 67.835938 52.714844 68.160156 52.222656 68.566406 51.71875 C 68.355469 51.542969 68.171875 51.378906 67.976562 51.242188 C 67.804688 51.121094 67.609375 51.015625 67.347656 51.230469 C 67.242188 51.699219 67.027344 52.199219 67.128906 52.808594 M 80.722656 47.042969 C 81.414062 47.074219 82 46.917969 82.582031 46.375 C 81.988281 46.195312 81.480469 46.027344 80.988281 46.023438 C 80.699219 46.316406 80.59375 46.578125 80.722656 47.042969 M 78.710938 37.285156 C 79.117188 37.617188 79.507812 37.929688 79.875 38.226562 C 80.207031 38.046875 80.152344 37.820312 79.996094 37.671875 C 79.671875 37.351562 79.308594 37.070312 78.890625 36.710938 C 78.816406 36.953125 78.769531 37.101562 78.710938 37.285156 M 62.386719 37.351562 C 62.636719 37.316406 62.753906 37.300781 62.910156 37.277344 C 62.917969 37.066406 62.925781 36.875 62.933594 36.640625 C 62.746094 36.671875 62.632812 36.6875 62.492188 36.710938 C 62.464844 36.882812 62.4375 37.039062 62.386719 37.351562 M 70.757812 35.746094 C 70.210938 35.589844 70.210938 35.589844 69.964844 35.847656 C 70.230469 36.066406 70.230469 36.066406 70.757812 35.746094 M 70.941406 35.425781 C 70.976562 35.410156 71.03125 35.394531 71.039062 35.367188 C 71.046875 35.34375 71.007812 35.300781 70.988281 35.265625 C 70.957031 35.285156 70.902344 35.296875 70.894531 35.328125 C 70.886719 35.351562 70.921875 35.394531 70.941406 35.425781 "/>
</g>
</g>
</g>
</g>
</g>
</g>
<g clip-path="url(#clip19)" clip-rule="nonzero">
<g clip-path="url(#clip20)" clip-rule="nonzero">
<g clip-path="url(#clip21)" clip-rule="nonzero">
<g clip-path="url(#clip22)" clip-rule="nonzero">
<g clip-path="url(#clip23)" clip-rule="nonzero">
<g clip-path="url(#clip24)" clip-rule="nonzero">
<path style=" stroke:none;fill-rule:nonzero;fill:rgb(69.018555%,82.348633%,20.779419%);fill-opacity:1;" d="M 48.617188 32.46875 C 49.835938 32.484375 50.894531 32.066406 52.042969 32.308594 C 53.097656 33.164062 53.308594 34.507812 53.871094 35.652344 C 53.691406 36.445312 53.1875 37 52.601562 37.441406 C 51.855469 38 51.3125 38.714844 50.78125 39.457031 C 50.398438 39.992188 50.296875 40.535156 50.492188 41.175781 C 50.71875 41.921875 50.875 42.6875 51.0625 43.433594 C 50.554688 43.988281 49.980469 44.351562 49.328125 44.613281 C 48.601562 44.902344 47.886719 45.207031 47.171875 45.503906 C 46.492188 45.335938 45.980469 44.929688 45.476562 44.523438 C 44.78125 43.964844 44.015625 43.601562 43.007812 43.574219 C 41.921875 44.390625 40.820312 45.3125 39.453125 45.929688 C 39.238281 45.816406 38.976562 45.742188 38.804688 45.574219 C 37.996094 44.769531 37.359375 43.839844 36.855469 42.734375 C 37.464844 41.605469 38.097656 40.429688 38.753906 39.214844 C 38.523438 39.011719 38.363281 38.804688 38.152344 38.683594 C 37.328125 38.207031 36.484375 37.761719 35.65625 37.296875 C 35 36.925781 34.46875 36.425781 34.015625 35.746094 C 34.246094 34.714844 34.5 33.667969 34.742188 32.664062 C 35.84375 32.097656 36.957031 31.949219 38.082031 31.78125 C 39.015625 32.40625 39.984375 32.972656 41.171875 33.203125 C 41.257812 33 41.367188 32.8125 41.410156 32.613281 C 41.601562 31.765625 41.765625 30.910156 41.949219 30.0625 C 42.140625 29.203125 42.554688 28.441406 43.035156 27.71875 C 43.128906 27.582031 43.269531 27.476562 43.398438 27.347656 C 44.59375 27.691406 45.484375 28.425781 46.289062 29.277344 C 46.734375 29.75 47.09375 30.289062 47.292969 30.917969 C 47.515625 31.621094 48.039062 32.0625 48.617188 32.46875 M 46.460938 37.714844 C 46.480469 37.832031 46.503906 37.949219 46.53125 38.109375 C 46.738281 38.121094 46.933594 38.132812 47.144531 38.144531 C 47.039062 37.625 47.039062 37.625 46.460938 37.714844 "/>
</g>
</g>
</g>
</g>
</g>
</g>
</g>
</svg>
