<?xml version="1.0" encoding="UTF-8" standalone="no"?>
<!DOCTYPE svg PUBLIC "-//W3C//DTD SVG 1.1//EN" "http://www.w3.org/Graphics/SVG/1.1/DTD/svg11.dtd">
<svg xmlns="http://www.w3.org/2000/svg" xmlns:xlink="http://www.w3.org/1999/xlink" version="1.1" width="841.89pt" height="283.465pt" viewBox="0 0 841.89 283.465">
<g enable-background="new">
<clipPath id="cp0">
<path transform="matrix(1,0,0,-1,0,283.465)" d="M 0 0 L 841.89 0 L 841.89 283.465 L 0 283.465 Z "/>
</clipPath>
<g clip-path="url(#cp0)">
<path transform="matrix(1,0,0,-1,133.287,235.7649)" d="M 0 0 C -3.436 -.468 -6.655 -.934 -9.882 -1.334 C -11.496 -1.534 -13.146 -1.848 -14.741 -1.696 C -17.228 -1.459 -19.697 -.941 -22.143 -.401 C -23.373 -.13 -24.396 .606 -25.199 1.663 C -27.342 4.482 -29.126 7.518 -30.314 10.833 C -32.853 17.913 -35.224 25.052 -37.687 32.16 C -38.918 35.714 -40.224 39.242 -41.448 42.798 C -41.894 44.096 -42.282 45.425 -42.559 46.767 C -43.39 50.805 -44.138 54.859 -44.957 58.899 C -45.124 59.721 -45.465 60.508 -45.83 61.634 C -46.716 60.155 -47.419 58.982 -48.063 57.906 C -48.179 56.65 -48.223 55.515 -48.398 54.402 C -48.745 52.188 -48.464 50.14 -46.901 48.338 C -46.905 47.079 -46.837 45.823 -46.924 44.578 C -47.495 36.434 -48.083 28.292 -48.7 20.151 C -48.976 16.514 -49.331 12.884 -49.656 9.251 C -49.835 7.247 -49.932 5.229 -50.239 3.244 C -50.545 1.267 -51.068 -.675 -51.528 -2.782 C -53.092 -4.143 -55.182 -4.723 -57.093 -5.602 C -59.601 -6.755 -62.219 -7.665 -64.724 -8.823 C -66.144 -9.48 -67.623 -9.66 -69.104 -9.691 C -71.234 -9.735 -73.37 -9.545 -75.471 -9.456 C -77.776 -7.518 -79.491 -5.212 -81.056 -2.801 C -82.966 .14 -84.707 3.191 -86.671 6.094 C -87.744 7.682 -88.538 9.364 -89.1 11.155 C -89.849 13.542 -90.524 15.956 -91.117 18.386 C -91.54 20.118 -92.203 21.698 -93.167 23.2 C -94.654 25.519 -96.027 27.911 -97.445 30.266 C -97.208 31.211 -96.997 32.054 -96.712 33.19 C -97.149 34.226 -97.673 35.493 -98.214 36.752 C -100.536 42.155 -102.915 47.534 -105.162 52.967 C -106.069 55.161 -106.642 57.491 -107.45 59.728 C -109.196 64.563 -110.894 69.418 -112.821 74.181 C -113.628 76.177 -114.337 78.122 -114.526 80.278 C -114.645 81.639 -115.017 82.977 -115.309 84.498 C -113.647 86.902 -111.62 89.077 -109.508 91.135 C -104.839 91.793 -100.266 92.451 -95.687 93.073 C -94.811 93.192 -93.986 92.961 -93.135 92.621 C -90.403 91.529 -88.125 89.8 -85.724 87.618 C -85.385 86.469 -84.964 85.032 -84.536 83.598 C -84.357 82.997 -84.24 82.363 -83.962 81.81 C -81.586 77.095 -81.385 71.91 -80.78 66.831 C -80.436 63.945 -79.853 61.184 -78.769 58.472 C -76.351 52.427 -74.095 46.317 -71.817 40.349 C -71.833 36.99 -72.507 33.796 -72.473 30.437 C -70.116 30.892 -68.962 32.491 -67.475 33.58 C -66.749 34.112 -66.097 34.683 -65.932 35.952 C -66.502 37.315 -67.156 38.939 -67.857 40.543 C -68.631 42.31 -68.847 44.102 -68.669 46.048 C -67.733 56.318 -66.955 66.603 -65.993 76.871 C -65.628 80.77 -65.939 84.633 -66.07 88.512 C -66.108 89.632 -66.148 90.753 -66.19 91.985 C -63.749 94.531 -60.777 96.031 -57.375 96.555 C -55.409 96.857 -53.378 96.737 -51.377 96.814 C -50.251 96.857 -49.122 96.88 -47.999 96.968 C -44.461 97.247 -41.032 96.499 -37.401 94.578 C -35.033 90.997 -33.282 87.025 -32.034 82.773 C -30.377 77.128 -28.476 71.555 -26.707 65.943 C -24.938 60.331 -23.207 54.707 -21.448 49.092 C -21.111 48.013 -20.83 46.898 -20.336 45.891 C -19.579 44.348 -19.746 43 -20.774 41.68 C -20.915 41.499 -20.921 41.212 -21.02 40.871 C -20.014 38.128 -17.93 36.241 -15.427 34.511 C -13.373 36.906 -13.371 39.816 -13.039 42.69 C -13.772 44.516 -14.564 46.362 -15.255 48.245 C -16.081 50.495 -16.348 52.835 -16.444 55.237 C -16.675 60.995 -16.346 66.761 -16.85 72.518 C -17.079 75.131 -16.727 77.771 -16.917 80.416 C -17.143 83.536 -16.974 86.683 -17.049 89.816 C -17.126 93.039 -16.399 96.033 -14.782 98.824 C -14.219 99.796 -13.733 100.812 -13.288 101.663 C -10.594 102.952 -6.486 103.965 1.598 105.362 C 4.86 104.364 8.319 103.305 11.925 102.202 C 12.571 101.39 13.277 100.516 13.967 99.631 C 14.655 98.749 15.327 97.855 16.016 96.954 C 14.565 93.702 14.021 90.392 13.617 87.017 C 12.765 79.911 11.942 72.792 10.746 65.739 C 9.799 60.155 9.299 54.53 8.554 48.93 C 7.909 44.078 7.254 39.226 6.468 34.396 C 6.169 32.557 5.5 30.778 4.984 28.976 C 4.365 26.816 3.73 24.66 3.181 22.773 C 3.835 20.279 4.339 18.08 4.999 15.93 C 5.506 14.279 5.434 12.608 4.87 11.112 C 3.504 7.488 1.888 3.958 .365 .393 C .32 .287 .201 .212 0 0 M -39.544 76.413 C -43.526 78.019 -47.201 79.273 -50.496 81.362 C -50.743 81.518 -51.182 81.371 -51.711 81.363 C -52.381 78.042 -53.788 74.969 -54.384 71.581 C -52.67 70.295 -50.998 69.393 -48.953 69.336 C -47.928 70.739 -48.834 72.52 -47.583 73.851 C -45.386 73.736 -43.473 72.273 -41.052 72.023 C -40.589 73.37 -40.112 74.759 -39.544 76.413 M -16.479 17.139 C -17.073 15.292 -17.536 13.892 -17.965 12.482 C -18.032 12.262 -17.941 11.994 -17.91 11.577 C -17.602 11.235 -17.205 10.794 -16.806 10.352 C -14.626 11.242 -13.998 13.238 -12.739 14.61 C -13.482 16.246 -14.888 16.414 -16.479 17.139 M -72.508 20.433 C -71.006 18.048 -68.955 16.915 -66.785 15.928 C -66.197 15.66 -65.634 15.469 -65.043 15.891 C -65.466 17.278 -65.461 17.284 -67.488 18.827 C -68.889 19.894 -70.344 20.829 -72.508 20.433 M -91.768 48.737 C -91.36 51.203 -91.732 53.136 -91.712 55.054 C -91.71 55.22 -92.019 55.39 -92.32 55.697 C -93.028 55.446 -93.812 55.168 -94.543 54.909 C -94.593 52.149 -94.396 51.68 -91.768 48.737 M -4.392 53.652 C -3.8 52.766 -3.37 51.685 -2.039 51.47 C -1.486 52.129 -1.392 52.833 -1.876 53.501 C -2.364 54.175 -2.733 55.031 -3.698 55.175 C -4.56 54.946 -4.394 54.273 -4.392 53.652 M -92.954 72.702 C -94.347 74.384 -94.358 74.373 -95.027 74.336 C -96.111 73.133 -96.233 72.472 -95.535 71.571 C -94.473 71.227 -93.617 71.432 -92.954 72.702 M -28.839 38.023 C -28.726 39.589 -28.73 40.652 -30.294 41.007 C -30.583 40.545 -30.864 40.148 -31.088 39.722 C -31.255 39.406 -31.349 39.051 -31.496 38.657 C -31.157 38.434 -30.883 38.141 -30.56 38.069 C -30.109 37.969 -29.622 38.033 -28.839 38.023 M .877 74.768 C 1.475 75.687 1.597 76.583 1.001 77.5 C .38 77.655 -.232 77.901 -.791 76.999 C -.536 76.363 -.226 75.588 .072 74.842 C .417 74.81 .643 74.789 .877 74.768 M -77.145 29.079 C -77.352 28.224 -77.561 27.5 -76.561 27.212 C -75.771 27.357 -75.28 27.795 -75.149 28.598 C -75.489 29.528 -76.169 29.408 -77.145 29.079 M -15.551 27.011 C -15.395 28.45 -15.409 28.442 -16.95 29.124 C -17.09 28.832 -17.23 28.537 -17.422 28.134 C -16.774 27.745 -16.198 27.399 -15.551 27.011 M -2.512 67.076 C -2.162 66.866 -1.874 66.694 -1.588 66.523 C -.996 67.444 -.996 67.444 -2.004 67.996 C -2.164 67.707 -2.324 67.417 -2.512 67.076 M -86.563 43.713 C -86.214 43.509 -85.928 43.341 -85.644 43.174 C -85.061 44.088 -85.061 44.088 -86.066 44.633 C -86.222 44.344 -86.378 44.055 -86.563 43.713 " fill="#b0d235"/>
<path transform="matrix(1,0,0,-1,615.1917,103.27409)" d="M 0 0 C -.008 2.292 -.041 4.67 -.018 7.048 C .004 9.195 -.25 11.288 -.847 13.359 C -1.502 15.634 -2.047 17.942 -2.65 20.275 C -2.359 20.879 -2.09 21.434 -1.824 21.99 C -1.075 23.55 -.992 25.061 -1.796 26.685 C -2.516 28.14 -3.013 29.71 -3.549 31.249 C -3.748 31.82 -3.778 32.449 -3.908 33.184 C -2.951 34.042 -2.031 34.867 -1.048 35.748 C 2.534 35.984 6.148 36.285 9.768 36.441 C 12.906 36.577 16.009 36.77 19.012 37.827 C 20.303 38.282 21.676 38.507 22.974 38.827 C 24.938 38.324 26.869 37.829 29.005 37.281 C 31.859 37.993 34.901 38.727 37.928 39.52 C 39.175 39.848 40.413 39.907 41.653 39.63 C 43.422 39.235 45.133 39.509 46.867 39.87 C 49.813 40.483 52.823 40.844 55.714 41.644 C 57.921 42.255 59.968 41.952 62.013 41.36 C 65.014 40.49 67.965 39.451 70.933 38.469 C 71.523 38.274 72.127 38.076 72.666 37.774 C 75.725 36.059 78.767 34.312 81.981 32.481 C 83.807 29.056 85.711 25.542 87.547 21.992 C 87.943 21.227 88.139 20.345 88.346 19.497 C 89.207 15.966 90.038 12.428 90.839 9.065 C 89.573 3.522 88.348 -1.844 87.116 -7.236 C 83.584 -11.178 81.834 -12.749 77.783 -15.582 C 77.285 -16.678 76.721 -17.919 76.254 -18.947 C 76.326 -20.959 78.299 -21.346 78.82 -22.775 C 81.748 -25.876 84.758 -28.904 87.575 -32.103 C 89.306 -34.069 90.858 -36.221 92.281 -38.425 C 94.451 -41.785 97.001 -44.935 98.319 -48.798 C 98.52 -49.387 98.916 -49.913 99.098 -50.506 C 99.388 -51.451 99.574 -52.427 99.845 -53.56 C 98.968 -54.387 98.068 -55.235 97.082 -56.164 C 92.746 -57.096 88.353 -58.04 83.961 -58.984 C 82.355 -59.329 80.734 -59.361 79.098 -59.296 C 76.845 -59.208 74.588 -59.217 72.335 -59.141 C 70.809 -59.089 69.31 -58.847 68.184 -57.679 C 64.712 -54.072 60.79 -50.894 57.852 -46.778 C 56.395 -44.738 54.846 -42.763 53.409 -40.709 C 52.841 -39.897 52.46 -38.952 52.002 -38.063 C 50.57 -35.282 49.156 -32.492 47.698 -29.725 C 47.412 -29.182 46.962 -28.725 46.565 -28.197 C 44.278 -27.987 42.044 -27.782 39.633 -27.56 C 38.412 -28.546 37.161 -29.556 35.864 -30.603 C 35.889 -31.595 35.794 -32.476 35.955 -33.307 C 36.547 -36.372 37.153 -39.439 37.9 -42.468 C 38.269 -43.965 38.501 -45.432 38.152 -46.921 C 37.787 -48.478 38.077 -49.893 38.712 -51.307 C 39.429 -52.905 40.129 -54.514 40.756 -56.149 C 40.971 -56.708 40.944 -57.361 41.005 -57.812 C 39.295 -60.706 37.107 -62.933 34.938 -65.194 C 34.016 -66.154 32.996 -66.759 31.746 -67.037 C 27.715 -67.935 23.68 -68.814 19.714 -69.686 C 15.522 -68.058 11.71 -65.95 8.154 -62.965 C 8.087 -60.606 7.916 -58.115 7.982 -55.63 C 8.026 -53.954 7.813 -52.428 7.124 -50.881 C 6.466 -49.405 6.037 -47.814 5.632 -46.242 C 5.037 -43.935 4.604 -41.586 3.998 -39.282 C 3.7 -38.145 3.642 -37.081 4.019 -35.965 C 4.216 -35.383 4.412 -34.751 4.388 -34.151 C 4.177 -29.02 4.054 -23.88 3.626 -18.767 C 3.293 -14.785 2.554 -10.838 2.008 -6.874 C 1.855 -5.76 1.881 -4.602 1.581 -3.532 C 1.28 -2.458 .676 -1.47 0 0 M 61.097 3.096 C 59.477 7.96 57.294 10.983 53.119 14.177 C 46.683 15.017 40.1 16.053 33.405 15.486 C 32.448 15.405 31.384 15.905 30.441 14.943 C 30.198 11.154 27.689 7.795 27.714 3.892 C 28.919 1.828 30.034 -.131 31.199 -2.06 C 32.256 -3.81 33.555 -5.312 35.921 -6.008 C 39.892 -4.965 44.088 -3.652 48.375 -2.792 C 53.049 -1.854 57.086 .241 61.097 3.096 M 75.586 -.417 C 76.095 .778 76.042 2.029 76.167 3.239 C 76.295 4.479 76.413 5.723 76.459 6.968 C 76.503 8.169 77.039 9.407 76.275 10.677 C 74.919 10.766 73.568 11.029 72.079 10.309 C 71.134 8.768 69.678 7.338 69.535 5.275 C 71.332 2.822 73.103 1.15 75.586 -.417 M 28.774 -18.614 C 26.948 -16.955 25.03 -16.463 23.031 -15.864 C 22.596 -16.285 21.952 -16.633 21.749 -17.154 C 21.161 -18.656 20.721 -20.22 20.301 -21.78 C 20.233 -22.031 20.567 -22.39 20.773 -22.819 C 22.88 -21.809 24.9 -20.862 26.897 -19.87 C 27.45 -19.594 27.935 -19.182 28.774 -18.614 M 15.996 19.116 C 13.949 21.193 12.234 22.342 10.137 22.86 C 9.95 22.906 9.698 22.687 9.245 22.492 C 9.137 22.053 8.918 21.472 8.869 20.878 C 8.81 20.168 7.853 19.653 8.505 18.724 C 8.759 18.645 9.111 18.425 9.442 18.453 C 11.388 18.617 13.329 18.838 15.996 19.116 M 19.323 3.074 C 18.179 5.258 16.02 5.453 14.326 6.367 C 14.203 6.433 13.913 6.187 13.702 6.086 C 13.68 5.964 13.605 5.821 13.645 5.725 C 14.56 3.506 16.553 2.907 18.631 2.471 C 18.764 2.442 18.969 2.756 19.323 3.074 M 63.003 20.438 C 63.665 21.717 63.548 23.053 63.587 24.242 C 62.66 25.031 61.881 25.207 61.026 24.657 C 60.827 22.266 61.246 21.339 63.003 20.438 M 16.882 -12.534 C 17.445 -12.58 17.837 -12.421 17.873 -11.683 C 17.197 -10.486 16.357 -9.361 15.008 -8.719 C 14.756 -9.049 14.617 -9.232 14.362 -9.565 C 15.027 -10.652 15.8 -11.716 16.882 -12.534 M 70.077 20.514 C 69.113 20.379 68.564 20.301 68.101 20.236 C 67.782 19.234 67.398 18.435 68.288 17.565 C 68.728 17.618 69.278 17.684 69.823 17.749 C 69.904 18.634 69.967 19.321 70.077 20.514 M 27.293 28.275 C 26.441 28.937 25.955 29.475 25.35 29.738 C 24.754 29.997 24.174 29.762 24.089 28.958 C 25.406 27.296 25.406 27.296 27.293 28.275 M 25.227 -33.083 C 25.663 -32.777 26.048 -32.491 25.502 -31.783 C 24.638 -31.463 23.611 -31.336 22.519 -31.544 C 22.568 -31.794 22.546 -32.045 22.66 -32.19 C 22.88 -32.468 23.177 -32.686 23.43 -32.918 C 24.059 -32.976 24.659 -33.031 25.227 -33.083 M 65.138 -9.795 C 66.427 -11.513 67.878 -11.321 69.527 -11.276 C 68.284 -10.034 67.129 -9.244 65.138 -9.795 M 21.289 -41.77 C 20.839 -40.947 20.552 -40.254 19.582 -40.289 C 19.429 -40.544 19.258 -40.83 19.103 -41.088 C 20.07 -42.416 20.07 -42.416 20.689 -42.445 C 20.841 -42.274 20.993 -42.103 21.289 -41.77 " fill="#b0d235"/>
<path transform="matrix(1,0,0,-1,343.6542,105.6456)" d="M 0 0 C .79 .178 1.876 .451 2.974 .666 C 9.847 2.008 16.719 3.364 23.6 4.662 C 29.248 5.728 34.907 6.73 40.566 7.735 C 41.302 7.866 42.078 7.954 42.815 7.875 C 46.673 7.459 50.552 7.304 54.326 6.137 C 56.71 5.4 59.104 4.676 61.495 3.974 C 65.715 2.734 69.2 .404 72.467 -2.367 C 74.944 -4.467 77.396 -6.601 79.755 -8.83 C 80.74 -9.76 81.585 -10.898 82.275 -12.07 C 85.92 -18.262 88.423 -24.924 90.253 -31.855 C 90.412 -32.457 90.61 -33.049 90.802 -33.641 C 91.351 -35.335 91.587 -37.002 91.195 -38.816 C 90.94 -39.992 91.081 -41.317 91.315 -42.522 C 91.999 -46.037 91.644 -49.506 91.089 -52.98 C 90.872 -54.339 90.497 -55.681 90.381 -57.046 C 90.008 -61.458 88.692 -65.642 87.366 -69.818 C 86.955 -71.114 86.263 -72.34 85.573 -73.523 C 83.538 -77.009 80.947 -80.066 78.094 -82.904 C 74.941 -86.042 71.181 -88.264 67.156 -90.077 C 61.998 -92.401 56.647 -94.058 51.06 -95.019 C 40.832 -96.779 30.621 -98.638 20.401 -100.447 C 19.792 -100.555 19.163 -100.687 18.555 -100.643 C 13.699 -100.292 8.968 -99.139 4.069 -98.617 C 3.914 -97.668 3.78 -96.95 3.683 -96.227 C 3.6 -95.608 3.542 -94.984 3.504 -94.361 C 3.419 -92.987 3.321 -91.613 3.287 -90.238 C 3.212 -87.109 3.182 -83.978 3.115 -80.848 C 3.069 -78.72 3.074 -76.586 2.893 -74.469 C 2.799 -73.37 2.591 -72.14 2.003 -71.257 C 1.176 -70.017 1.101 -68.648 .84 -67.331 C .427 -65.25 .41 -63.09 -.022 -61.014 C -.453 -58.941 -1.188 -56.93 -1.838 -54.729 C -1.375 -53.324 -.868 -51.788 -.329 -50.15 C -.724 -47.501 -1.955 -45.016 -2.882 -42.438 C -3.354 -41.126 -3.707 -39.834 -3.819 -38.435 C -4.038 -35.69 -4.422 -32.965 -4.407 -30.195 C -4.398 -28.453 -4.708 -26.711 -4.871 -24.968 C -4.93 -24.348 -5.059 -23.721 -5.016 -23.106 C -4.853 -20.769 -5.352 -18.617 -6.64 -16.876 C -7.278 -10.237 -5.266 -4.221 0 0 M 28.172 -33.802 C 29.312 -35.371 29.807 -37.242 29.876 -39.322 C 29.972 -42.197 30.307 -45.065 30.539 -47.936 C 30.77 -50.804 30.981 -53.673 31.237 -56.539 C 31.414 -58.533 31.394 -60.591 31.913 -62.497 C 33.256 -67.426 36.567 -70.66 41.406 -72.652 C 45.958 -70.632 50.427 -68.404 54.668 -66.225 C 56.203 -62.671 57.49 -59.269 59.121 -56.04 C 60.73 -52.852 60.845 -49.517 60.699 -46.125 C 60.564 -43.003 60.23 -39.891 59.957 -36.438 C 58.476 -31.938 55.372 -28.276 51.309 -25.336 C 49.551 -24.065 47.621 -23.133 45.499 -22.839 C 39.738 -22.04 34.033 -22.453 28.291 -23.901 C 27.863 -25.42 27.933 -26.912 27.991 -28.405 C 28.053 -30.032 28.101 -31.66 28.172 -33.802 M 74.886 -46.04 C 74.519 -46.331 74.145 -46.629 74.017 -46.73 C 73.852 -48.523 73.641 -49.872 73.64 -51.222 C 73.639 -51.92 73.867 -52.737 75.022 -52.772 C 76.702 -51.436 77.515 -49.649 77.436 -47.237 C 76.64 -46.864 75.879 -46.506 74.886 -46.04 M 13.648 -84.601 C 13.45 -87.152 13.522 -87.569 14.498 -89.691 C 16.613 -88.837 17.411 -86.952 18.464 -84.854 C 16.798 -84.702 15.398 -84.266 13.648 -84.601 M 13.446 -12.012 C 15.077 -9.98 15.081 -9.982 15.369 -8.192 C 14.242 -7.685 13.057 -7.586 11.881 -7.716 C 10.956 -8.299 10.268 -8.939 10.437 -10.098 C 11.189 -11.156 12.315 -11.592 13.446 -12.012 M 71.438 -28.088 C 71.701 -25.697 70.328 -22.245 67.906 -18.976 C 67.033 -19.138 67.033 -19.889 67.205 -20.411 C 67.746 -22.062 68.348 -23.704 69.082 -25.277 C 69.586 -26.357 70.328 -27.334 71.438 -28.088 M 28.244 -6.469 C 27.966 -7.86 27.547 -9.138 28.077 -10.513 C 29.613 -9.902 29.613 -9.902 31.624 -7.292 C 30.514 -7.022 29.469 -6.767 28.244 -6.469 M 49.385 -11.51 C 48.778 -10.639 48.593 -10.091 48.221 -9.891 C 47.145 -9.315 46.016 -8.817 44.865 -8.414 C 44.283 -8.21 43.998 -8.664 44.016 -9.433 C 45.523 -10.147 46.63 -11.912 49.385 -11.51 M 19.744 -55.422 C 18.805 -55.318 17.957 -54.587 16.973 -55.53 C 16.777 -56.676 16.506 -57.872 17.759 -58.823 C 18.842 -57.996 20.006 -57.281 19.744 -55.422 M 58.059 -12.177 C 59.031 -14.603 59.38 -15.05 61.241 -16.329 C 61.334 -16.116 61.472 -15.91 61.51 -15.687 C 61.55 -15.452 61.576 -15.152 61.465 -14.966 C 60.849 -13.937 60.189 -12.935 59.492 -11.84 C 58.946 -11.969 58.514 -12.07 58.059 -12.177 M 72.913 -55.566 C 74.75 -56.679 75.539 -57.918 77.353 -57.258 C 76.588 -56.433 75.939 -55.733 75.265 -55.007 C 74.676 -55.147 74.229 -55.253 72.913 -55.566 M 18.013 -28.609 C 18.781 -27.961 18.778 -27.32 18.327 -26.628 C 17.658 -26.292 17 -26.024 16.552 -26.939 C 16.605 -27.731 16.991 -28.267 18.013 -28.609 M 70.907 -33.622 C 69.992 -35.143 69.966 -35.155 71.497 -36.179 C 71.915 -35.407 72.062 -34.634 71.552 -33.847 C 71.332 -33.77 71.12 -33.696 70.907 -33.622 M 5.778 -20.332 C 5.65 -19.578 5.557 -19.033 5.464 -18.486 C 4.734 -18.48 4.275 -18.622 4.257 -19.221 C 4.243 -19.648 4.408 -20.08 4.491 -20.498 C 4.906 -20.445 5.128 -20.416 5.778 -20.332 M 17.137 -46.73 C 16.783 -46.88 16.474 -47.01 16.166 -47.14 C 16.742 -48.497 16.742 -48.497 18.122 -47.843 C 17.792 -47.47 17.481 -47.119 17.137 -46.73 " fill="#b0d235"/>
<path transform="matrix(1,0,0,-1,750.8002,51.263)" d="M 0 0 C 5.353 .734 10.79 1.558 16.25 2.18 C 17.834 2.36 19.542 2.175 21.09 1.766 C 22.683 1.345 24.275 1.095 25.893 .93 C 30.15 .498 34.265 -.58 38.335 -1.833 C 44.425 -3.708 49.731 -6.905 54.227 -11.433 C 54.58 -11.787 54.972 -12.102 55.335 -12.447 C 57.344 -14.358 59.116 -16.428 60.351 -18.962 C 62.543 -23.463 64.858 -27.903 67.106 -32.377 C 67.385 -32.933 67.569 -33.538 67.842 -34.234 C 67.678 -36.018 67.483 -37.89 67.339 -39.767 C 67.098 -42.905 67.131 -45.993 68.434 -48.978 C 68.978 -50.225 69.104 -51.628 68.954 -53.041 C 68.519 -57.164 68.21 -61.302 67.722 -65.418 C 67.487 -67.398 67.062 -69.371 66.529 -71.294 C 66.236 -72.35 65.644 -73.367 65.01 -74.277 C 62.073 -78.492 59.153 -82.723 56.057 -86.82 C 54.786 -88.502 53.195 -89.995 51.557 -91.339 C 48.465 -93.876 45.227 -96.236 42.063 -98.687 C 40.842 -99.632 39.494 -100.116 37.954 -100.375 C 30.93 -101.555 23.924 -102.847 16.831 -104.114 C 16.306 -103.967 15.714 -103.71 15.102 -103.647 C 9.281 -103.046 4.004 -100.67 -1.341 -98.562 C -3.191 -97.832 -4.938 -96.787 -6.625 -95.717 C -9.801 -93.706 -12.862 -91.513 -16.045 -89.516 C -17.492 -88.609 -18.549 -87.507 -19.237 -85.95 C -20.4 -83.315 -21.65 -80.719 -22.87 -78.11 C -24.143 -75.387 -25.419 -72.666 -26.702 -69.947 C -27.241 -68.804 -27.552 -67.642 -27.628 -66.347 C -27.931 -61.226 -28.414 -56.116 -28.709 -50.995 C -28.988 -46.131 -29.344 -41.276 -28.071 -36.44 C -27.436 -34.032 -27.205 -31.515 -26.567 -29.078 C -26.235 -27.81 -25.678 -26.732 -24.971 -25.723 C -22.239 -21.826 -19.429 -17.983 -16.673 -14.103 C -15.429 -12.353 -13.99 -10.817 -12.275 -9.509 C -8.19 -6.392 -4.147 -3.218 0 0 M .758 -38.064 C .015 -42.861 .372 -47.507 .199 -52.13 C .18 -52.616 .376 -53.11 .472 -53.6 C 1.456 -58.642 4.042 -62.924 6.899 -67.069 C 7.624 -68.121 8.683 -68.818 9.793 -69.423 C 14.499 -71.99 19.491 -73.434 24.893 -73.262 C 29.46 -71.136 32.78 -67.949 36.408 -62.127 C 37.035 -57.875 37.39 -53.497 37.503 -49.099 C 37.61 -44.916 37.029 -40.864 34.974 -37.141 C 33.583 -34.621 32.107 -32.152 30.033 -30.055 C 24.492 -28.175 18.955 -26.229 12.844 -25.95 C 8.794 -30.009 4.733 -34.08 .758 -38.064 M 31.7 -83.634 C 27.912 -87.438 27.485 -88.544 28.194 -92.282 C 29.284 -92.92 30.2 -92.134 30.943 -91.678 C 32.59 -90.669 34.384 -89.74 35.466 -88.015 C 34.655 -86.106 33.497 -84.734 31.7 -83.634 M 56.628 -50.378 C 54.668 -51.024 53.3 -50.645 52.276 -51.539 C 50.598 -53.004 48.765 -54.335 47.749 -56.402 C 48.606 -59.28 50.669 -61.265 52.302 -63.571 C 52.551 -63.35 52.707 -63.281 52.722 -63.189 C 53.125 -60.64 51.467 -58.463 51.314 -56.075 C 52.662 -54.015 55.115 -53.152 56.628 -50.378 M 32.655 -12.23 C 33.402 -17.088 36.818 -18.175 39.765 -20.017 C 40.733 -19.781 41.865 -20.794 43.222 -19.825 C 40.094 -17.057 36.433 -15.25 32.655 -12.23 M -16.897 -48.953 C -15.563 -50.313 -14.178 -50.979 -12.298 -50.757 C -11.911 -50.206 -11.503 -49.624 -11.188 -49.175 C -11.76 -47.049 -13.005 -45.64 -14.32 -44.292 C -14.524 -44.082 -14.953 -44.092 -15.429 -43.958 C -15.942 -45.704 -16.424 -47.344 -16.897 -48.953 M 16.367 -85.795 C 15.805 -87.453 14.79 -89.022 15.113 -91.1 C 16.322 -91.595 17.479 -91.779 18.857 -91.467 C 19.288 -90.835 19.758 -90.144 20.291 -89.362 C 19.041 -88.032 18.265 -86.424 16.367 -85.795 M -6.714 -32.681 C -6.167 -31.473 -5.762 -30.703 -5.47 -29.892 C -5.263 -29.314 -5.128 -28.669 -5.751 -28.146 C -6.993 -27.823 -8.191 -27.788 -9.078 -29.05 C -9.276 -30.68 -8.183 -31.492 -6.714 -32.681 M -20.025 -35.424 C -20.225 -37.514 -19.738 -38.062 -17.832 -37.885 C -17.329 -37.129 -17.129 -36.347 -17.645 -35.504 C -18.425 -34.953 -19.216 -34.904 -20.025 -35.424 M -7.226 -74.648 C -7.938 -73.858 -7.938 -73.858 -8.933 -73.462 C -9.755 -74.255 -9.521 -75.305 -9.582 -76.274 C -9.593 -76.443 -9.39 -76.626 -9.219 -76.916 C -8.362 -76.189 -7.387 -75.802 -7.226 -74.648 M -4.754 -66.295 C -4.914 -67.522 -4.357 -68.025 -3.356 -68.32 C -3.173 -68.083 -2.846 -67.844 -2.811 -67.569 C -2.758 -67.142 -2.904 -66.69 -2.983 -66.123 C -3.702 -66.193 -4.247 -66.246 -4.754 -66.295 M -13.553 -60.621 C -14.611 -61.645 -14.72 -62.562 -14.052 -63.673 C -13.666 -63.507 -13.351 -63.372 -13.078 -63.255 C -12.733 -62.37 -12.547 -61.57 -13.553 -60.621 M 48.16 -41.424 C 48.618 -42.248 48.968 -42.88 49.909 -42.864 C 50.057 -42.605 50.221 -42.319 50.365 -42.068 C 49.97 -41.363 49.634 -40.719 48.766 -40.74 C 48.608 -40.918 48.457 -41.088 48.16 -41.424 M 52.431 -37.583 C 52.311 -38.599 52.947 -38.826 53.754 -38.813 C 54.313 -38.803 54.594 -38.47 54.571 -37.9 C 53.977 -36.985 53.252 -36.965 52.431 -37.583 M 48.903 -64.617 C 48.411 -63.348 47.605 -62.955 46.361 -63.404 C 46.846 -64.675 47.654 -65.061 48.903 -64.617 " fill="#b0d235"/>
<path transform="matrix(1,0,0,-1,151.2072,135.9914)" d="M 0 0 C 2.385 4.24 4.209 6.577 7.549 9.704 C 8.204 9.832 8.94 10.093 9.678 10.099 C 12.937 10.126 16.198 10.136 19.456 10.043 C 23.353 9.931 27.193 10.142 31.008 11.077 C 34.282 11.88 37.612 12.465 40.934 13.055 C 42.529 13.339 44.159 13.467 45.779 13.569 C 48.154 13.719 50.533 13.813 52.912 13.876 C 55.556 13.945 58.163 14.143 60.429 15.435 C 65.2 15.487 69.448 14.143 73.575 11.713 C 73.82 10.999 74.172 10.198 74.367 9.361 C 74.99 6.687 75.425 3.962 76.189 1.331 C 76.714 -.479 76.56 -2.221 75.999 -3.848 C 75.231 -6.072 74.467 -8.35 73.022 -10.345 C 70.721 -10.985 68.434 -11.622 65.906 -12.326 C 62.382 -11.08 58.622 -12.021 54.901 -12.278 C 49.29 -12.665 43.711 -13.489 38.113 -14.068 C 35.873 -14.299 33.615 -14.362 31.367 -14.525 C 30.738 -14.571 30.12 -14.713 29.686 -15.598 C 31.078 -18.729 32.368 -22.086 34.214 -25.315 C 34.751 -25.331 35.253 -25.441 35.715 -25.347 C 43.926 -23.681 52.131 -21.985 60.341 -20.31 C 61.938 -19.984 63.55 -19.734 65.149 -19.415 C 67.85 -18.877 70.383 -19.235 72.732 -20.725 C 74.206 -21.66 75.693 -22.576 77.299 -23.579 C 77.063 -27.35 77.956 -31.124 76.969 -34.817 C 75.97 -38.558 74.994 -42.332 72.981 -45.858 C 67.393 -46.936 61.75 -48.025 56.684 -49.002 C 50.919 -48.204 45.717 -47.483 40.327 -46.737 C 37.235 -50.569 36.28 -55.104 36.32 -60.005 C 37.095 -60.932 38.132 -61.35 39.263 -61.465 C 42.638 -61.809 46.021 -62.34 49.397 -62.316 C 51.861 -62.298 54.328 -61.559 56.779 -61.069 C 64.873 -59.453 72.961 -57.804 81.179 -56.142 C 82.374 -56.653 83.627 -57.188 84.949 -57.753 C 85.191 -58.339 85.473 -58.895 85.656 -59.483 C 86.585 -62.468 87.478 -65.465 88.405 -68.451 C 88.819 -69.787 88.957 -71.126 88.855 -72.53 C 88.546 -76.807 87.986 -81.02 86.12 -85.128 C 82.148 -86.34 77.971 -87.087 73.612 -88.011 C 72.031 -87.306 70.232 -87.209 68.305 -87.296 C 64.301 -87.479 60.278 -87.342 56.266 -87.212 C 54.594 -87.158 53.067 -87.414 51.492 -87.984 C 47.6 -89.39 43.616 -90.477 39.509 -91.13 C 37.666 -91.424 35.884 -92.102 34.074 -92.604 C 30.941 -93.471 27.788 -94.273 24.682 -95.228 C 23.14 -95.702 21.726 -95.612 20.29 -94.991 C 16.925 -93.536 13.867 -91.6 11.056 -89.246 C 10.226 -88.55 9.814 -87.688 9.589 -86.696 C 8.925 -83.771 8.264 -80.844 7.645 -77.908 C 7.491 -77.18 7.353 -76.393 7.463 -75.673 C 7.96 -72.432 8.1 -69.19 7.801 -65.924 C 7.744 -65.303 7.829 -64.669 7.858 -63.763 C 5.662 -60.037 5.78 -55.56 5.338 -51.232 C 4.817 -46.128 4.672 -40.986 4.285 -35.866 C 4.173 -34.379 3.82 -32.907 3.528 -31.438 C 2.872 -28.126 2.066 -24.839 1.545 -21.507 C 1.062 -18.42 .826 -15.291 .565 -12.173 C .314 -9.178 .15 -6.176 -.009 -3.174 C -.069 -2.051 -.006 -.921 0 0 M 35.025 -71.529 C 33.53 -73.729 32.114 -75.423 31.543 -77.625 C 32.063 -78.284 32.482 -78.901 32.99 -79.435 C 33.579 -80.056 34.245 -80.179 34.874 -79.444 C 35.806 -74.933 35.85 -73.849 35.025 -71.529 M 50.447 -78.556 C 51.551 -77.702 52.458 -77.049 53.297 -76.317 C 53.51 -76.131 53.504 -75.695 53.654 -75.184 C 52.816 -75.007 52.097 -74.88 51.392 -74.699 C 50.582 -74.491 49.785 -74.235 48.982 -73.999 C 48.391 -76.061 48.391 -76.061 50.447 -78.556 M 49.08 4.188 C 49.066 3.753 48.965 3.463 49.066 3.291 C 49.918 1.842 51.431 1.185 52.607 .193 C 53.107 .34 53.45 .441 53.877 .566 C 53.787 .957 53.823 1.423 53.612 1.612 C 52.598 2.516 51.553 3.397 50.438 4.167 C 50.126 4.382 49.535 4.192 49.08 4.188 M 16.142 -64.75 C 16.745 -66.045 17.542 -66.841 18.402 -67.564 C 18.668 -67.787 19.078 -67.842 19.428 -67.957 C 19.894 -68.11 20.335 -67.74 20.422 -66.959 C 19.863 -66.319 19.216 -65.58 18.58 -64.852 C 17.761 -64.818 17.048 -64.788 16.142 -64.75 M 19.505 -14.283 C 18.75 -16.009 18.025 -17.664 17.271 -19.388 C 17.532 -19.602 17.787 -19.811 18.021 -20.001 C 19.786 -18.768 19.607 -16.752 20.358 -15.119 C 20.072 -14.839 19.816 -14.587 19.505 -14.283 M 19.924 -31.584 C 19.023 -29.89 17.895 -29.601 16.446 -30.171 C 16.947 -32.241 17.691 -32.581 19.924 -31.584 M 21.592 -37.59 C 21.989 -38.503 22.363 -39.359 22.793 -40.345 C 23.418 -40.162 23.859 -40.032 24.269 -39.912 C 24.343 -39.41 24.398 -39.043 24.449 -38.692 C 23.847 -37.606 23.144 -36.836 21.592 -37.59 M 19.116 -53.579 C 18.209 -54.074 18.378 -54.81 18.732 -55.457 C 19.232 -56.37 19.941 -56.994 21.096 -56.379 C 20.64 -55.274 20.548 -53.938 19.116 -53.579 M 60.874 -75.363 C 62.353 -75.038 62.239 -73.489 63.216 -72.694 C 62.804 -72.336 62.562 -72.125 62.32 -71.914 C 60.647 -73.863 60.667 -73.874 60.874 -75.363 M 22.089 -80.079 C 23.518 -82.302 23.518 -82.302 24.951 -81.522 C 24.345 -80.879 23.764 -80.263 22.938 -79.387 C 22.565 -79.691 22.309 -79.9 22.089 -80.079 M 22.571 -56.213 C 22.077 -56.8 21.808 -57.396 22.362 -58.114 C 22.584 -58.179 22.803 -58.244 23.022 -58.309 C 23.826 -56.845 23.846 -56.839 22.571 -56.213 M 30.687 -66.568 C 30.178 -66.764 29.862 -66.885 29.547 -67.006 C 30.052 -68.355 30.052 -68.355 31.7 -67.713 C 31.322 -67.286 31.005 -66.928 30.687 -66.568 " fill="#b0d235"/>
<path transform="matrix(1,0,0,-1,329.6674,182.4168)" d="M 0 0 C 1.015 -3.164 2.315 -6.691 3.247 -10.312 C 3.833 -12.587 4.049 -15 3.369 -17.365 C 3.197 -17.964 3.049 -18.577 2.961 -19.194 C 2.605 -21.683 2.147 -24.144 1.029 -26.648 C -.774 -27.413 -2.886 -27.7 -4.941 -28.19 C -6.403 -28.539 -7.885 -28.816 -9.327 -29.234 C -10.701 -29.632 -12.013 -29.749 -13.36 -29.148 C -13.803 -28.95 -14.332 -28.87 -14.822 -28.869 C -19.833 -28.855 -24.846 -28.828 -29.857 -28.902 C -31.087 -28.92 -32.383 -29.106 -33.528 -29.536 C -37.648 -31.085 -41.935 -31.94 -46.2 -32.937 C -51.068 -34.076 -55.887 -35.44 -60.691 -36.832 C -62.106 -37.242 -63.446 -37.337 -64.731 -36.765 C -68.641 -35.022 -72.309 -32.892 -75.385 -29.603 C -76.207 -25.786 -77.067 -21.878 -77.871 -17.958 C -77.992 -17.366 -77.991 -16.672 -77.801 -16.108 C -77.271 -14.529 -77.431 -12.922 -77.4 -11.317 C -77.371 -9.808 -77.249 -8.3 -77.271 -6.793 C -77.281 -6.058 -77.307 -5.168 -77.702 -4.62 C -79.033 -2.777 -79.112 -.627 -79.321 1.446 C -79.988 8.049 -80.506 14.665 -80.736 21.303 C -80.783 22.667 -81.115 24.027 -81.377 25.377 C -82.165 29.427 -82.973 33.473 -83.795 37.517 C -84.295 39.98 -84.376 42.48 -84.531 44.976 C -84.795 49.225 -85.109 53.47 -85.419 57.956 C -83.897 61.652 -81.093 64.69 -78.116 67.78 C -77.378 68.253 -76.456 68.473 -75.4 68.452 C -71.516 68.375 -67.629 68.328 -63.745 68.376 C -60.996 68.411 -58.248 68.559 -55.537 69.119 C -51.616 69.929 -47.695 70.746 -43.756 71.462 C -42.165 71.752 -40.529 71.822 -38.909 71.922 C -35.037 72.16 -31.163 72.356 -27.314 72.568 C -26.503 72.993 -25.732 73.398 -25.087 73.736 C -20.12 73.954 -15.815 72.4 -11.843 70.083 C -10.33 68.192 -10.67 65.901 -10.043 63.881 C -9.414 61.859 -9.043 59.756 -8.716 58.357 C -8.988 54.357 -10.452 51.447 -11.862 48.388 C -14.098 47.056 -16.809 46.982 -19.385 46.031 C -22.888 47.137 -26.517 46.288 -30.124 46.051 C -35.237 45.714 -40.332 45.117 -45.433 44.612 C -48.654 44.294 -51.871 43.94 -55.241 43.587 C -55.229 42.857 -55.403 42.172 -55.179 41.662 C -53.922 38.802 -52.569 35.986 -51.256 33.168 C -50.765 33.088 -50.387 32.921 -50.056 32.987 C -40.728 34.838 -31.395 36.669 -22.086 38.611 C -19.453 39.16 -16.887 39.419 -13.821 38.401 C -12.331 37.516 -10.401 36.369 -8.66 35.335 C -7.961 34.241 -7.807 33.264 -7.841 32.241 C -7.96 28.598 -7.772 24.883 -8.87 21.387 C -9.796 18.44 -10.293 15.271 -12.347 12.527 C -15.303 11.92 -18.353 11.291 -21.406 10.671 C -21.65 10.621 -21.926 10.693 -22.155 10.615 C -26.345 9.191 -30.578 9.656 -34.829 10.257 C -38.062 10.714 -41.31 11.071 -44.365 11.449 C -45.473 11.088 -45.9 10.347 -46.344 9.561 C -48.398 5.928 -48.756 1.995 -48.719 -2.134 C -48.015 -2.449 -47.481 -2.852 -46.909 -2.918 C -43.415 -3.321 -39.916 -3.684 -36.411 -3.973 C -35.565 -4.042 -34.682 -3.833 -33.832 -3.667 C -24.871 -1.911 -15.893 -.232 -6.967 1.689 C -4.407 2.24 -2.282 2.042 0 0 M -53.842 -18.978 C -53.309 -19.712 -52.841 -20.413 -52.315 -21.064 C -51.88 -21.602 -51.336 -21.758 -50.747 -21.285 C -49.835 -17.735 -49.74 -16.707 -50.087 -13.207 C -51.709 -15.138 -52.686 -17.095 -53.842 -18.978 M -31.765 -16.769 C -32.863 -16.565 -33.582 -16.318 -34.298 -16.327 C -35.158 -16.337 -35.732 -15.188 -37.142 -16.083 C -36.512 -17.417 -36.664 -19.178 -34.738 -20.166 C -33.571 -19.335 -31.99 -19 -31.765 -16.769 M -67.36 38.411 C -65.835 38.249 -66.035 39.735 -65.3 40.284 C -65.204 41.47 -64.835 42.66 -65.136 43.815 C -65.489 43.931 -65.704 44.002 -66.088 44.129 C -66.735 42.275 -68.151 40.617 -67.36 38.411 M -36.119 61.982 C -34.942 60.126 -33.605 58.94 -31.655 58.595 C -31.549 58.576 -31.389 58.863 -31.236 59.027 C -32.133 60.779 -33.625 61.805 -35.324 62.589 C -35.524 62.436 -35.708 62.296 -36.119 61.982 M -68.822 -6.764 C -68.509 -8.502 -67.041 -8.996 -65.746 -9.617 C -65.296 -9.833 -64.784 -9.705 -64.556 -9.126 C -65.663 -6.995 -66.871 -6.299 -68.822 -6.764 M -67.059 5.633 C -67.29 5.347 -67.434 5.168 -67.678 4.866 C -67.116 3.891 -66.523 2.863 -65.956 1.881 C -65.298 1.751 -64.675 1.432 -64.254 2.407 C -64.522 3.057 -64.839 3.824 -65.109 4.478 C -65.849 4.916 -66.463 5.279 -67.059 5.633 M -61.418 20.971 C -61.992 20.986 -62.465 20.998 -62.904 21.009 C -63.373 19.029 -63.373 19.029 -61.612 18.192 C -60.913 18.914 -60.918 19.733 -61.418 20.971 M -23.285 -13.21 C -23.946 -14.285 -24.458 -14.962 -24.793 -15.718 C -25.033 -16.26 -25.062 -16.918 -24.222 -17.109 C -22.318 -14.978 -22.318 -14.978 -23.285 -13.21 M -68.778 27.844 C -68.083 26.492 -67.383 25.745 -66.119 26.304 C -65.596 26.906 -65.492 27.442 -65.996 28.069 C -66.835 28.446 -67.71 28.724 -68.778 27.844 M -70.118 24.639 C -71.027 23.643 -70.463 22.845 -69.75 22.097 C -69.609 21.95 -69.322 21.943 -69.101 21.872 C -68.17 22.244 -68.274 22.945 -68.564 23.806 C -69.021 24.051 -69.557 24.338 -70.118 24.639 M -60.44 -22.709 C -61.192 -22.208 -61.883 -21.748 -62.627 -21.253 C -62.92 -21.562 -63.139 -21.793 -63.498 -22.172 C -62.616 -22.764 -61.853 -23.276 -61.009 -23.842 C -60.769 -23.364 -60.619 -23.065 -60.44 -22.709 M -62.191 2.046 C -63.104 1.374 -63.104 1.374 -63.424 .464 C -62.734 -.235 -62.064 -.404 -61.276 .664 C -61.574 1.114 -61.881 1.577 -62.191 2.046 M -54.334 -9.809 C -54.209 -9.536 -54.072 -9.236 -53.953 -8.973 C -54.516 -8.218 -55.135 -8.091 -55.873 -8.541 C -55.673 -9.299 -55.286 -9.836 -54.334 -9.809 " fill="#b0d235"/>
<path transform="matrix(1,0,0,-1,534.3101,81.9377)" d="M 0 0 C 1.415 1.405 2.975 1.655 4.639 1.855 C 12.086 2.748 19.521 3.745 27.196 4.734 C 33.506 3.728 40.068 2.681 46.797 1.607 C 52.299 -1.392 57.3 -5.307 61.752 -10.024 C 63.273 -16.455 64.803 -22.892 66.315 -29.333 C 66.912 -31.873 66.338 -34.385 65.711 -36.786 C 64.64 -40.891 63.528 -45.008 61.777 -48.901 C 61.371 -49.803 60.984 -50.781 60.339 -51.499 C 56.484 -55.792 52.55 -60.013 48.201 -63.822 C 47.918 -64.069 47.601 -64.277 47.303 -64.5 C 40.776 -65.711 34.266 -66.958 27.737 -68.097 C 26.401 -68.33 24.988 -68.243 23.62 -68.151 C 21.001 -67.975 18.39 -67.69 15.839 -67.455 C 14.964 -69.467 13.958 -74.422 13.542 -78.586 C 14.291 -80.763 16.391 -82.047 17.407 -84.23 C 17.179 -88.658 15.983 -92.996 14.791 -97.241 C 13.439 -98.791 11.741 -99.635 10.122 -100.596 C 8.616 -101.49 7.134 -102.424 5.499 -103.427 C 2.129 -103.583 -1.374 -103.922 -4.866 -103.835 C -6.827 -103.786 -8.782 -103.079 -10.717 -102.577 C -11.797 -102.298 -12.828 -101.833 -13.91 -101.441 C -15.424 -99.035 -15.917 -96.373 -15.758 -93.572 C -15.573 -90.301 -15.772 -87.069 -16.365 -83.84 C -16.77 -81.628 -17.021 -79.38 -17.21 -77.137 C -17.474 -73.996 -17.973 -70.929 -19.433 -68.16 C -18.84 -64.8 -18.979 -61.557 -19.492 -58.314 C -19.785 -56.461 -19.999 -54.594 -20.246 -52.751 C -19.744 -51.301 -19.316 -49.924 -19.878 -48.353 C -21.364 -44.203 -21.993 -39.856 -22.534 -35.502 C -23.167 -30.406 -23.689 -25.294 -24.402 -20.209 C -24.605 -18.759 -25.301 -17.379 -26.052 -16.027 C -26.122 -12.651 -26.193 -9.275 -26.258 -6.146 C -24.925 -3.718 -22.854 -2.442 -21.04 -.922 C -20.16 -.186 -19.038 -.016 -17.865 .062 C -13.847 .329 -9.845 .214 -5.833 -.056 C -3.968 -.182 -2.085 -.029 0 0 M 43.501 -49.473 C 43.622 -49.686 43.497 -50.297 44.05 -49.812 C 43.875 -49.692 43.701 -49.572 43.526 -49.451 C 43.928 -48.085 43.508 -47.027 42.249 -46.388 C 41.715 -46.117 41.07 -46.013 40.752 -47.059 C 41.457 -47.995 41.865 -49.363 43.501 -49.473 M 34.292 -24.956 C 32.182 -23.424 30.014 -22.954 27.705 -23.034 C 26.207 -23.086 24.711 -23.24 23.212 -23.276 C 18.212 -23.396 13.21 -23.486 8.209 -23.583 C 7.396 -23.599 6.741 -23.861 6.303 -24.865 C 6.656 -30.269 7.023 -35.877 7.381 -41.366 C 8.438 -42.658 9.232 -43.956 10.553 -44.73 C 11.597 -44.826 12.597 -44.977 13.599 -44.99 C 14.336 -44.999 15.255 -45.071 15.781 -44.688 C 17.377 -43.522 19.375 -43.662 21.027 -42.851 C 23.53 -41.624 26.222 -41.129 28.869 -40.42 C 29.921 -40.138 31.149 -40.145 31.969 -39.095 C 33.342 -34.582 34.179 -29.916 34.292 -24.956 M -7.697 -45.801 C -4.558 -49.206 -2.248 -53.251 1.806 -55.944 C 1.889 -55.447 2.074 -55.064 1.981 -54.77 C 1.419 -52.993 .797 -51.235 .188 -49.473 C -.467 -47.577 -.898 -45.648 -.318 -43.662 C -.041 -42.715 -.435 -41.974 -.814 -41.119 C -1.833 -40.551 -2.799 -39.694 -4.299 -39.963 C -5.382 -41.824 -6.496 -43.738 -7.697 -45.801 M 50.086 -31.836 C 51.465 -30.336 52.63 -29.068 53.777 -27.821 C 52.267 -24.915 50.788 -22.181 49.421 -19.392 C 48.636 -17.79 47.552 -16.457 46.333 -15.115 C 45.733 -16.963 45.733 -16.963 48.704 -25.386 C 48.327 -27.306 46.593 -28.807 46.917 -31.161 C 47.875 -31.365 48.819 -31.566 50.086 -31.836 M -7.575 -22.523 C -6.774 -22.617 -6.044 -22.748 -5.311 -22.776 C -4.469 -22.807 -3.624 -22.746 -2.757 -22.725 C -2.399 -21.074 -2.158 -19.617 -2.377 -18.069 C -2.801 -17.771 -3.184 -17.501 -3.705 -17.135 C -5.051 -18.591 -6.324 -19.929 -7.533 -21.322 C -7.705 -21.52 -7.566 -21.987 -7.575 -22.523 M -.955 -70.217 C -1.671 -70.908 -2.092 -71.119 -2.169 -71.419 C -2.691 -73.45 -3.143 -75.5 -3.613 -77.545 C -3.855 -78.593 -3.355 -79.48 -2.93 -80.502 C -.782 -77.519 -1.234 -74.138 -.955 -70.217 M 7.986 -61.3 C 9.974 -60.782 10.721 -59.249 11.704 -57.657 C 11.031 -57.236 10.455 -56.83 9.836 -56.506 C 9.301 -56.226 8.714 -55.991 8.036 -56.708 C 7.902 -58.084 7.473 -59.6 7.986 -61.3 M 44.803 -39.855 C 46.788 -39.695 48.413 -39.032 49.881 -37.265 C 48.109 -36.968 46.598 -36.677 45.189 -36.844 C 44.464 -37.788 44.262 -38.567 44.803 -39.855 M 35.507 -12.635 C 36.795 -13.429 38.021 -14.185 39.183 -14.902 C 40.064 -14.267 39.826 -13.645 39.331 -13.266 C 38.286 -12.467 37.144 -11.794 35.819 -10.923 C 35.689 -11.638 35.607 -12.088 35.507 -12.635 M -11.183 -18.739 C -10.479 -18.548 -10.158 -18.461 -9.71 -18.34 C -9.766 -17.728 -9.816 -17.174 -9.878 -16.501 C -10.405 -16.656 -10.722 -16.749 -11.119 -16.864 C -11.136 -17.364 -11.152 -17.821 -11.183 -18.739 M 12.191 -11.107 C 10.574 -10.855 10.574 -10.855 9.953 -11.683 C 10.798 -12.208 10.798 -12.208 12.191 -11.107 M 12.598 -10.124 C 12.69 -10.057 12.842 -10.001 12.857 -9.92 C 12.871 -9.842 12.744 -9.737 12.68 -9.644 C 12.59 -9.712 12.444 -9.769 12.428 -9.851 C 12.413 -9.928 12.536 -10.032 12.598 -10.124 " fill="#b0d235"/>
<path transform="matrix(1,0,0,-1,481.9533,91.6779)" d="M 0 0 C 3.493 .398 6.369 1.978 9.748 1.697 C 13.075 -.366 14.166 -4.138 16.19 -7.221 C 15.956 -9.554 14.72 -11.32 13.196 -12.799 C 11.264 -14.674 9.972 -16.92 8.719 -19.237 C 7.814 -20.907 7.719 -22.502 8.515 -24.268 C 9.438 -26.316 10.16 -28.455 10.961 -30.534 C 9.714 -32.296 8.195 -33.547 6.425 -34.532 C 4.459 -35.625 2.518 -36.762 .58 -37.873 C -1.431 -37.635 -3.038 -36.654 -4.622 -35.68 C -6.824 -34.327 -9.143 -33.561 -12.039 -33.857 C -14.846 -36.587 -17.669 -39.626 -21.358 -41.888 C -22.009 -41.64 -22.793 -41.525 -23.341 -41.104 C -25.948 -39.098 -28.105 -36.665 -29.951 -33.678 C -28.615 -30.215 -27.231 -26.627 -25.794 -22.902 C -26.519 -22.399 -27.058 -21.874 -27.703 -21.603 C -30.236 -20.536 -32.809 -19.567 -35.353 -18.528 C -37.356 -17.71 -39.06 -16.468 -40.599 -14.686 C -40.318 -11.644 -39.974 -8.549 -39.64 -5.586 C -36.697 -3.567 -33.559 -2.734 -30.408 -1.846 C -27.502 -3.301 -24.528 -4.574 -21.048 -4.805 C -20.878 -4.185 -20.633 -3.617 -20.577 -3.032 C -20.341 -.53 -20.18 1.979 -19.954 4.482 C -19.725 7.012 -18.816 9.339 -17.698 11.588 C -17.486 12.014 -17.118 12.362 -16.797 12.778 C -13.251 12.229 -10.428 10.446 -7.82 8.296 C -6.378 7.108 -5.151 5.688 -4.351 3.958 C -3.457 2.025 -1.809 .952 0 0 M -4.276 -15.811 C -4.173 -16.139 -4.07 -16.465 -3.927 -16.919 C -3.329 -16.876 -2.77 -16.836 -2.159 -16.791 C -2.648 -15.349 -2.648 -15.349 -4.276 -15.811 " fill="#b0d235"/>
</g>
</g>
</svg>
